%TF.GenerationSoftware,KiCad,Pcbnew,(6.0.0)*%
%TF.CreationDate,2022-04-03T23:20:59+01:00*%
%TF.ProjectId,kit-soldadura-pcb,6b69742d-736f-46c6-9461-647572612d70,rev?*%
%TF.SameCoordinates,Original*%
%TF.FileFunction,Legend,Top*%
%TF.FilePolarity,Positive*%
%FSLAX46Y46*%
G04 Gerber Fmt 4.6, Leading zero omitted, Abs format (unit mm)*
G04 Created by KiCad (PCBNEW (6.0.0)) date 2022-04-03 23:20:59*
%MOMM*%
%LPD*%
G01*
G04 APERTURE LIST*
%ADD10C,0.150000*%
%ADD11C,0.120000*%
%ADD12C,0.203200*%
G04 APERTURE END LIST*
D10*
X153208571Y-78597142D02*
X154351428Y-78597142D01*
X144098571Y-78597142D02*
X145241428Y-78597142D01*
X144670000Y-79168571D02*
X144670000Y-78025714D01*
%TO.C,C2*%
X157823333Y-105367142D02*
X157775714Y-105414761D01*
X157632857Y-105462380D01*
X157537619Y-105462380D01*
X157394761Y-105414761D01*
X157299523Y-105319523D01*
X157251904Y-105224285D01*
X157204285Y-105033809D01*
X157204285Y-104890952D01*
X157251904Y-104700476D01*
X157299523Y-104605238D01*
X157394761Y-104510000D01*
X157537619Y-104462380D01*
X157632857Y-104462380D01*
X157775714Y-104510000D01*
X157823333Y-104557619D01*
X158204285Y-104557619D02*
X158251904Y-104510000D01*
X158347142Y-104462380D01*
X158585238Y-104462380D01*
X158680476Y-104510000D01*
X158728095Y-104557619D01*
X158775714Y-104652857D01*
X158775714Y-104748095D01*
X158728095Y-104890952D01*
X158156666Y-105462380D01*
X158775714Y-105462380D01*
X161064847Y-98595596D02*
X159541038Y-98595596D01*
X160302943Y-97833692D02*
X160302943Y-99357501D01*
%TO.C,C1*%
X140173333Y-105447142D02*
X140125714Y-105494761D01*
X139982857Y-105542380D01*
X139887619Y-105542380D01*
X139744761Y-105494761D01*
X139649523Y-105399523D01*
X139601904Y-105304285D01*
X139554285Y-105113809D01*
X139554285Y-104970952D01*
X139601904Y-104780476D01*
X139649523Y-104685238D01*
X139744761Y-104590000D01*
X139887619Y-104542380D01*
X139982857Y-104542380D01*
X140125714Y-104590000D01*
X140173333Y-104637619D01*
X141125714Y-105542380D02*
X140554285Y-105542380D01*
X140840000Y-105542380D02*
X140840000Y-104542380D01*
X140744761Y-104685238D01*
X140649523Y-104780476D01*
X140554285Y-104828095D01*
X137397378Y-98775513D02*
X138921187Y-98775513D01*
X138159283Y-99537417D02*
X138159283Y-98013608D01*
%TO.C,D3*%
X156152171Y-92401741D02*
X156152171Y-91401741D01*
X156390267Y-91401741D01*
X156533124Y-91449361D01*
X156628362Y-91544599D01*
X156675981Y-91639837D01*
X156723600Y-91830313D01*
X156723600Y-91973170D01*
X156675981Y-92163646D01*
X156628362Y-92258884D01*
X156533124Y-92354122D01*
X156390267Y-92401741D01*
X156152171Y-92401741D01*
X157056933Y-91401741D02*
X157675981Y-91401741D01*
X157342647Y-91782694D01*
X157485505Y-91782694D01*
X157580743Y-91830313D01*
X157628362Y-91877932D01*
X157675981Y-91973170D01*
X157675981Y-92211265D01*
X157628362Y-92306503D01*
X157580743Y-92354122D01*
X157485505Y-92401741D01*
X157199790Y-92401741D01*
X157104552Y-92354122D01*
X157056933Y-92306503D01*
%TO.C,R4*%
X159754306Y-85366738D02*
X159278116Y-85700072D01*
X159754306Y-85938167D02*
X158754306Y-85938167D01*
X158754306Y-85557214D01*
X158801926Y-85461976D01*
X158849545Y-85414357D01*
X158944783Y-85366738D01*
X159087640Y-85366738D01*
X159182878Y-85414357D01*
X159230497Y-85461976D01*
X159278116Y-85557214D01*
X159278116Y-85938167D01*
X159087640Y-84509595D02*
X159754306Y-84509595D01*
X158706687Y-84747691D02*
X159420973Y-84985786D01*
X159420973Y-84366738D01*
%TO.C,R3*%
X152222380Y-93539418D02*
X151746190Y-93872752D01*
X152222380Y-94110847D02*
X151222380Y-94110847D01*
X151222380Y-93729894D01*
X151270000Y-93634656D01*
X151317619Y-93587037D01*
X151412857Y-93539418D01*
X151555714Y-93539418D01*
X151650952Y-93587037D01*
X151698571Y-93634656D01*
X151746190Y-93729894D01*
X151746190Y-94110847D01*
X151222380Y-93206085D02*
X151222380Y-92587037D01*
X151603333Y-92920371D01*
X151603333Y-92777513D01*
X151650952Y-92682275D01*
X151698571Y-92634656D01*
X151793809Y-92587037D01*
X152031904Y-92587037D01*
X152127142Y-92634656D01*
X152174761Y-92682275D01*
X152222380Y-92777513D01*
X152222380Y-93063228D01*
X152174761Y-93158466D01*
X152127142Y-93206085D01*
%TO.C,R2*%
X147142380Y-93543441D02*
X146666190Y-93876775D01*
X147142380Y-94114870D02*
X146142380Y-94114870D01*
X146142380Y-93733917D01*
X146190000Y-93638679D01*
X146237619Y-93591060D01*
X146332857Y-93543441D01*
X146475714Y-93543441D01*
X146570952Y-93591060D01*
X146618571Y-93638679D01*
X146666190Y-93733917D01*
X146666190Y-94114870D01*
X146237619Y-93162489D02*
X146190000Y-93114870D01*
X146142380Y-93019632D01*
X146142380Y-92781536D01*
X146190000Y-92686298D01*
X146237619Y-92638679D01*
X146332857Y-92591060D01*
X146428095Y-92591060D01*
X146570952Y-92638679D01*
X147142380Y-93210108D01*
X147142380Y-92591060D01*
%TO.C,R1*%
X139332380Y-85442803D02*
X138856190Y-85776137D01*
X139332380Y-86014232D02*
X138332380Y-86014232D01*
X138332380Y-85633279D01*
X138380000Y-85538041D01*
X138427619Y-85490422D01*
X138522857Y-85442803D01*
X138665714Y-85442803D01*
X138760952Y-85490422D01*
X138808571Y-85538041D01*
X138856190Y-85633279D01*
X138856190Y-86014232D01*
X139332380Y-84490422D02*
X139332380Y-85061851D01*
X139332380Y-84776137D02*
X138332380Y-84776137D01*
X138475238Y-84871375D01*
X138570476Y-84966613D01*
X138618095Y-85061851D01*
%TO.C,Q2*%
X152643333Y-107213333D02*
X152536666Y-107160000D01*
X152430000Y-107053333D01*
X152270000Y-106893333D01*
X152163333Y-106840000D01*
X152056666Y-106840000D01*
X152110000Y-107106666D02*
X152003333Y-107053333D01*
X151896666Y-106946666D01*
X151843333Y-106733333D01*
X151843333Y-106360000D01*
X151896666Y-106146666D01*
X152003333Y-106040000D01*
X152110000Y-105986666D01*
X152323333Y-105986666D01*
X152430000Y-106040000D01*
X152536666Y-106146666D01*
X152590000Y-106360000D01*
X152590000Y-106733333D01*
X152536666Y-106946666D01*
X152430000Y-107053333D01*
X152323333Y-107106666D01*
X152110000Y-107106666D01*
X153016666Y-106093333D02*
X153070000Y-106040000D01*
X153176666Y-105986666D01*
X153443333Y-105986666D01*
X153550000Y-106040000D01*
X153603333Y-106093333D01*
X153656666Y-106200000D01*
X153656666Y-106306666D01*
X153603333Y-106466666D01*
X152963333Y-107106666D01*
X153656666Y-107106666D01*
%TO.C,Q1*%
X145693333Y-107193333D02*
X145586666Y-107140000D01*
X145480000Y-107033333D01*
X145320000Y-106873333D01*
X145213333Y-106820000D01*
X145106666Y-106820000D01*
X145160000Y-107086666D02*
X145053333Y-107033333D01*
X144946666Y-106926666D01*
X144893333Y-106713333D01*
X144893333Y-106340000D01*
X144946666Y-106126666D01*
X145053333Y-106020000D01*
X145160000Y-105966666D01*
X145373333Y-105966666D01*
X145480000Y-106020000D01*
X145586666Y-106126666D01*
X145640000Y-106340000D01*
X145640000Y-106713333D01*
X145586666Y-106926666D01*
X145480000Y-107033333D01*
X145373333Y-107086666D01*
X145160000Y-107086666D01*
X146706666Y-107086666D02*
X146066666Y-107086666D01*
X146386666Y-107086666D02*
X146386666Y-105966666D01*
X146280000Y-106126666D01*
X146173333Y-106233333D01*
X146066666Y-106286666D01*
%TO.C,D2*%
X140958699Y-92613743D02*
X140958699Y-91613743D01*
X141196795Y-91613743D01*
X141339652Y-91661363D01*
X141434890Y-91756601D01*
X141482509Y-91851839D01*
X141530128Y-92042315D01*
X141530128Y-92185172D01*
X141482509Y-92375648D01*
X141434890Y-92470886D01*
X141339652Y-92566124D01*
X141196795Y-92613743D01*
X140958699Y-92613743D01*
X141911080Y-91708982D02*
X141958699Y-91661363D01*
X142053937Y-91613743D01*
X142292033Y-91613743D01*
X142387271Y-91661363D01*
X142434890Y-91708982D01*
X142482509Y-91804220D01*
X142482509Y-91899458D01*
X142434890Y-92042315D01*
X141863461Y-92613743D01*
X142482509Y-92613743D01*
%TO.C,D1*%
X148491904Y-84238517D02*
X148491904Y-83238517D01*
X148730000Y-83238517D01*
X148872857Y-83286137D01*
X148968095Y-83381375D01*
X149015714Y-83476613D01*
X149063333Y-83667089D01*
X149063333Y-83809946D01*
X149015714Y-84000422D01*
X148968095Y-84095660D01*
X148872857Y-84190898D01*
X148730000Y-84238517D01*
X148491904Y-84238517D01*
X150015714Y-84238517D02*
X149444285Y-84238517D01*
X149730000Y-84238517D02*
X149730000Y-83238517D01*
X149634761Y-83381375D01*
X149539523Y-83476613D01*
X149444285Y-83524232D01*
D11*
%TO.C,C2*%
X160610000Y-101260000D02*
G75*
G03*
X160610000Y-101260000I-2620000J0D01*
G01*
%TO.C,C1*%
X143019197Y-101542872D02*
G75*
G03*
X143019197Y-101542872I-2620000J0D01*
G01*
%TO.C,G\u002A\u002A\u002A*%
G36*
X153849830Y-115372187D02*
G01*
X153826069Y-115310092D01*
X153806148Y-115255077D01*
X154491938Y-115255077D01*
X154730308Y-115255077D01*
X154720538Y-115206231D01*
X154718017Y-115178279D01*
X154715736Y-115123543D01*
X154713785Y-115046498D01*
X154712250Y-114951621D01*
X154711219Y-114843388D01*
X154710779Y-114726275D01*
X154710769Y-114706046D01*
X154710769Y-114254708D01*
X154491938Y-114254708D01*
X154491938Y-115255077D01*
X153806148Y-115255077D01*
X153805897Y-115254385D01*
X153788998Y-115201902D01*
X153775054Y-115149475D01*
X153763746Y-115093938D01*
X153754758Y-115032125D01*
X153747772Y-114960869D01*
X153742471Y-114877004D01*
X153738536Y-114777364D01*
X153735650Y-114658782D01*
X153733496Y-114518091D01*
X153731756Y-114352127D01*
X153730296Y-114180461D01*
X153723773Y-113379385D01*
X156445785Y-113379385D01*
X156445785Y-114159196D01*
X156445645Y-114350701D01*
X156445072Y-114514071D01*
X156443834Y-114652437D01*
X156441697Y-114768924D01*
X156438429Y-114866660D01*
X156433799Y-114948773D01*
X156427573Y-115018391D01*
X156419519Y-115078641D01*
X156409406Y-115132651D01*
X156397000Y-115183548D01*
X156382069Y-115234460D01*
X156364381Y-115288515D01*
X156361181Y-115297955D01*
X156274767Y-115505746D01*
X156158913Y-115709692D01*
X156015384Y-115907828D01*
X155845945Y-116098188D01*
X155652361Y-116278808D01*
X155436397Y-116447722D01*
X155199819Y-116602967D01*
X155176457Y-116616861D01*
X155132968Y-116641383D01*
X155100598Y-116657578D01*
X155089127Y-116661504D01*
X155071506Y-116653734D01*
X155034385Y-116633379D01*
X154984815Y-116604353D01*
X154968677Y-116594605D01*
X154732273Y-116437528D01*
X154516963Y-116267311D01*
X154324550Y-116085927D01*
X154156840Y-115895348D01*
X154015638Y-115697546D01*
X153963277Y-115603365D01*
X154491938Y-115603365D01*
X154495234Y-115643016D01*
X154508912Y-115675331D01*
X154538658Y-115710952D01*
X154561413Y-115733404D01*
X154635070Y-115789907D01*
X154698182Y-115815941D01*
X154786494Y-115827673D01*
X154883171Y-115825696D01*
X154975323Y-115811082D01*
X155045724Y-115787059D01*
X155100886Y-115751878D01*
X155147366Y-115707727D01*
X155156818Y-115695254D01*
X155195323Y-115638589D01*
X155196642Y-114794248D01*
X155197101Y-114631528D01*
X155197931Y-114475770D01*
X155198447Y-114411015D01*
X155351631Y-114411015D01*
X155461046Y-114411015D01*
X155461046Y-115255077D01*
X155695508Y-115255077D01*
X155695508Y-114411015D01*
X155804923Y-114411015D01*
X155804923Y-114254708D01*
X155351631Y-114254708D01*
X155351631Y-114411015D01*
X155198447Y-114411015D01*
X155199090Y-114330242D01*
X155200532Y-114198212D01*
X155202215Y-114082945D01*
X155204093Y-113987709D01*
X155206124Y-113915771D01*
X155208263Y-113870397D01*
X155209222Y-113859732D01*
X155223135Y-113790452D01*
X155246677Y-113747068D01*
X155283962Y-113724705D01*
X155328331Y-113718612D01*
X155388443Y-113729994D01*
X155431606Y-113766556D01*
X155456039Y-113826144D01*
X155461046Y-113879162D01*
X155463686Y-113942370D01*
X155474156Y-113983309D01*
X155496283Y-114010715D01*
X155527068Y-114029871D01*
X155581851Y-114043866D01*
X155630986Y-114031460D01*
X155668830Y-113997512D01*
X155689739Y-113946882D01*
X155689255Y-113890218D01*
X155660364Y-113817316D01*
X155604970Y-113758062D01*
X155525430Y-113714087D01*
X155424102Y-113687021D01*
X155388762Y-113682332D01*
X155289664Y-113682517D01*
X155194959Y-113701959D01*
X155111118Y-113737900D01*
X155044611Y-113787583D01*
X155002500Y-113846922D01*
X154998129Y-113868011D01*
X154994170Y-113911649D01*
X154990593Y-113979011D01*
X154987366Y-114071273D01*
X154984457Y-114189610D01*
X154981834Y-114335199D01*
X154979464Y-114509214D01*
X154977317Y-114712833D01*
X154976492Y-114805271D01*
X154968677Y-115723158D01*
X154933855Y-115757967D01*
X154889825Y-115784221D01*
X154836276Y-115792653D01*
X154786154Y-115782593D01*
X154762535Y-115766834D01*
X154745593Y-115735299D01*
X154731093Y-115681039D01*
X154723894Y-115635401D01*
X154708714Y-115556536D01*
X154684006Y-115504738D01*
X154647236Y-115476605D01*
X154599786Y-115468697D01*
X154546848Y-115482150D01*
X154510428Y-115520398D01*
X154493059Y-115580279D01*
X154491938Y-115603365D01*
X153963277Y-115603365D01*
X153902749Y-115494493D01*
X153849830Y-115372187D01*
G37*
G36*
X136492580Y-115935120D02*
G01*
X136524223Y-115853407D01*
X136570881Y-115797701D01*
X136633850Y-115766663D01*
X136714429Y-115758950D01*
X136748174Y-115761646D01*
X136805149Y-115771605D01*
X136856076Y-115785889D01*
X136875068Y-115793825D01*
X136918274Y-115816167D01*
X136889724Y-115945930D01*
X136873129Y-116023406D01*
X136864059Y-116075471D01*
X136862957Y-116107163D01*
X136870267Y-116123520D01*
X136886429Y-116129580D01*
X136905934Y-116130400D01*
X136955767Y-116116102D01*
X136996663Y-116077219D01*
X137026076Y-116019769D01*
X137041458Y-115949766D01*
X137040263Y-115873229D01*
X137032101Y-115832304D01*
X136996226Y-115754178D01*
X136938417Y-115692327D01*
X136864174Y-115648032D01*
X136778994Y-115622576D01*
X136688377Y-115617242D01*
X136597821Y-115633314D01*
X136512826Y-115672074D01*
X136472499Y-115701752D01*
X136406879Y-115776999D01*
X136362543Y-115868001D01*
X136339909Y-115968117D01*
X136339394Y-116070709D01*
X136361417Y-116169137D01*
X136406396Y-116256761D01*
X136435321Y-116292047D01*
X136500762Y-116348196D01*
X136573918Y-116383321D01*
X136662706Y-116400436D01*
X136727569Y-116403319D01*
X136795530Y-116402103D01*
X136858778Y-116398322D01*
X136904794Y-116392757D01*
X136908545Y-116392011D01*
X136945300Y-116386191D01*
X136964644Y-116394345D01*
X136977687Y-116423437D01*
X136982332Y-116438265D01*
X136991507Y-116475338D01*
X136987783Y-116499272D01*
X136966074Y-116515295D01*
X136921296Y-116528638D01*
X136887015Y-116536294D01*
X136753109Y-116550832D01*
X136616908Y-116539634D01*
X136537702Y-116520218D01*
X136439144Y-116474393D01*
X136347461Y-116404623D01*
X136271185Y-116318183D01*
X136238243Y-116264943D01*
X136218910Y-116225291D01*
X136206569Y-116188889D01*
X136199689Y-116146861D01*
X136196740Y-116090332D01*
X136196180Y-116020985D01*
X136201039Y-115907846D01*
X136217448Y-115817279D01*
X136248286Y-115741823D01*
X136296434Y-115674014D01*
X136351623Y-115618178D01*
X136435990Y-115553848D01*
X136525530Y-115513092D01*
X136628480Y-115492932D01*
X136707444Y-115489461D01*
X136835841Y-115501138D01*
X136946946Y-115535338D01*
X137037943Y-115591082D01*
X137062036Y-115612990D01*
X137120555Y-115681107D01*
X137157353Y-115750646D01*
X137176181Y-115831275D01*
X137180862Y-115919385D01*
X137179370Y-115987465D01*
X137173220Y-116035821D01*
X137159902Y-116075915D01*
X137137203Y-116118703D01*
X137078950Y-116190852D01*
X137004652Y-116236201D01*
X136914052Y-116254893D01*
X136893514Y-116255446D01*
X136833159Y-116250094D01*
X136788697Y-116231217D01*
X136771753Y-116218529D01*
X136731898Y-116193396D01*
X136698833Y-116193050D01*
X136696308Y-116193985D01*
X136661614Y-116201854D01*
X136611981Y-116206797D01*
X136593223Y-116207455D01*
X136533663Y-116202598D01*
X136495640Y-116183048D01*
X136476109Y-116144611D01*
X136472024Y-116083094D01*
X136473858Y-116055937D01*
X136611185Y-116055937D01*
X136614929Y-116076747D01*
X136629894Y-116083148D01*
X136640503Y-116083508D01*
X136683334Y-116076122D01*
X136704620Y-116067611D01*
X136727140Y-116042281D01*
X136747229Y-115998862D01*
X136760470Y-115950464D01*
X136762448Y-115910195D01*
X136760365Y-115902115D01*
X136740340Y-115886574D01*
X136705164Y-115880308D01*
X136667856Y-115887543D01*
X136642256Y-115912518D01*
X136625051Y-115960131D01*
X136615817Y-116012539D01*
X136611185Y-116055937D01*
X136473858Y-116055937D01*
X136474652Y-116044183D01*
X136492580Y-115935120D01*
G37*
G36*
X138282007Y-115498317D02*
G01*
X138359036Y-115501025D01*
X138415928Y-115505201D01*
X138448050Y-115510571D01*
X138452919Y-115512985D01*
X138460194Y-115537656D01*
X138460432Y-115584008D01*
X138457535Y-115614585D01*
X138446830Y-115700554D01*
X138263230Y-115694733D01*
X138173770Y-115692944D01*
X138110871Y-115695432D01*
X138069926Y-115704064D01*
X138046328Y-115720705D01*
X138035470Y-115747220D01*
X138032744Y-115785477D01*
X138032738Y-115788077D01*
X138036202Y-115824806D01*
X138049772Y-115852845D01*
X138078214Y-115875581D01*
X138126296Y-115896400D01*
X138198784Y-115918690D01*
X138227785Y-115926651D01*
X138325071Y-115956110D01*
X138395252Y-115987300D01*
X138442304Y-116025302D01*
X138470206Y-116075195D01*
X138482932Y-116142060D01*
X138484461Y-116230977D01*
X138483706Y-116253571D01*
X138476740Y-116342050D01*
X138461604Y-116406383D01*
X138434870Y-116453324D01*
X138393110Y-116489627D01*
X138352160Y-116512797D01*
X138294520Y-116531482D01*
X138215492Y-116543530D01*
X138124303Y-116548631D01*
X138030181Y-116546472D01*
X137942353Y-116536741D01*
X137900209Y-116528082D01*
X137848645Y-116513623D01*
X137809480Y-116499840D01*
X137793460Y-116491343D01*
X137788165Y-116469404D01*
X137788926Y-116429093D01*
X137794467Y-116382429D01*
X137803514Y-116341431D01*
X137811387Y-116322320D01*
X137831147Y-116315017D01*
X137876135Y-116318473D01*
X137923323Y-116327224D01*
X138024458Y-116343610D01*
X138111356Y-116348013D01*
X138178850Y-116340473D01*
X138216830Y-116324898D01*
X138241425Y-116291069D01*
X138252067Y-116242458D01*
X138247767Y-116192730D01*
X138228963Y-116156919D01*
X138204426Y-116143410D01*
X138157459Y-116126013D01*
X138096167Y-116107555D01*
X138061913Y-116098623D01*
X137983012Y-116076976D01*
X137926716Y-116055568D01*
X137884607Y-116030753D01*
X137861780Y-116011917D01*
X137835737Y-115987000D01*
X137819199Y-115964831D01*
X137809712Y-115937412D01*
X137804824Y-115896744D01*
X137802084Y-115834826D01*
X137801447Y-115815098D01*
X137802321Y-115718987D01*
X137813396Y-115646663D01*
X137836827Y-115591704D01*
X137874766Y-115547689D01*
X137897167Y-115529726D01*
X137916411Y-115517431D01*
X137938782Y-115508694D01*
X137969684Y-115502917D01*
X138014522Y-115499502D01*
X138078697Y-115497851D01*
X138167616Y-115497364D01*
X138189474Y-115497354D01*
X138282007Y-115498317D01*
G37*
G36*
X141938467Y-115492016D02*
G01*
X142009895Y-115495237D01*
X142066379Y-115499708D01*
X142088923Y-115502774D01*
X142151446Y-115514208D01*
X142147079Y-115607059D01*
X142142974Y-115658465D01*
X142136817Y-115696469D01*
X142131448Y-115710517D01*
X142111904Y-115713982D01*
X142068679Y-115714563D01*
X142009216Y-115712295D01*
X141971692Y-115709799D01*
X141868105Y-115705284D01*
X141791726Y-115710069D01*
X141739774Y-115724628D01*
X141709468Y-115749432D01*
X141706153Y-115754918D01*
X141700564Y-115780501D01*
X141695842Y-115830975D01*
X141692370Y-115899972D01*
X141690531Y-115981125D01*
X141690338Y-116017849D01*
X141690678Y-116109178D01*
X141692143Y-116174828D01*
X141695399Y-116220379D01*
X141701115Y-116251411D01*
X141709958Y-116273503D01*
X141722596Y-116292236D01*
X141723266Y-116293091D01*
X141743517Y-116315552D01*
X141765680Y-116327580D01*
X141799213Y-116331753D01*
X141853571Y-116330649D01*
X141860036Y-116330368D01*
X141963877Y-116325785D01*
X141972801Y-116003951D01*
X142077755Y-116008560D01*
X142182708Y-116013169D01*
X142187006Y-116258176D01*
X142189017Y-116352256D01*
X142189464Y-116419900D01*
X142185704Y-116465918D01*
X142175096Y-116495116D01*
X142154993Y-116512305D01*
X142122755Y-116522290D01*
X142075737Y-116529880D01*
X142034215Y-116536089D01*
X141927935Y-116548063D01*
X141825446Y-116550729D01*
X141735526Y-116544254D01*
X141667796Y-116529108D01*
X141575296Y-116482793D01*
X141503733Y-116415879D01*
X141495920Y-116405782D01*
X141485079Y-116389219D01*
X141476857Y-116369450D01*
X141470805Y-116341990D01*
X141466477Y-116302354D01*
X141463425Y-116246059D01*
X141461203Y-116168620D01*
X141459362Y-116065553D01*
X141458899Y-116034494D01*
X141454105Y-115706324D01*
X141495551Y-115635602D01*
X141539370Y-115577129D01*
X141594954Y-115535247D01*
X141666958Y-115508115D01*
X141760035Y-115493893D01*
X141862277Y-115490592D01*
X141938467Y-115492016D01*
G37*
G36*
X142600067Y-115881712D02*
G01*
X142601565Y-116002354D01*
X142603085Y-116095615D01*
X142605007Y-116165375D01*
X142607714Y-116215511D01*
X142611588Y-116249904D01*
X142617011Y-116272431D01*
X142624365Y-116286972D01*
X142634032Y-116297406D01*
X142641639Y-116303742D01*
X142684675Y-116323555D01*
X142743673Y-116333099D01*
X142805426Y-116331930D01*
X142856723Y-116319608D01*
X142871382Y-116311438D01*
X142880753Y-116302783D01*
X142888112Y-116289627D01*
X142893803Y-116268194D01*
X142898172Y-116234706D01*
X142901563Y-116185384D01*
X142904320Y-116116452D01*
X142906789Y-116024132D01*
X142909314Y-115904647D01*
X142909538Y-115893315D01*
X142917354Y-115497354D01*
X143151815Y-115497354D01*
X143151815Y-115895938D01*
X143151366Y-116006687D01*
X143150102Y-116108934D01*
X143148149Y-116197938D01*
X143145634Y-116268955D01*
X143142682Y-116317243D01*
X143140097Y-116336303D01*
X143110048Y-116396594D01*
X143058163Y-116455107D01*
X142992958Y-116502567D01*
X142982096Y-116508393D01*
X142918980Y-116529980D01*
X142836582Y-116543567D01*
X142745989Y-116548583D01*
X142658285Y-116544455D01*
X142584555Y-116530613D01*
X142579808Y-116529138D01*
X142507375Y-116492929D01*
X142442456Y-116437419D01*
X142394979Y-116371859D01*
X142383570Y-116346219D01*
X142376539Y-116310025D01*
X142371044Y-116244244D01*
X142367067Y-116148449D01*
X142364589Y-116022215D01*
X142363651Y-115892031D01*
X142362462Y-115489538D01*
X142595395Y-115489538D01*
X142600067Y-115881712D01*
G37*
G36*
X143707012Y-115490835D02*
G01*
X143755352Y-115492049D01*
X143850693Y-115495970D01*
X143923787Y-115501728D01*
X143971463Y-115508998D01*
X143989544Y-115516030D01*
X143999983Y-115546167D01*
X143998610Y-115604356D01*
X143996727Y-115621006D01*
X143985866Y-115707937D01*
X143825022Y-115698096D01*
X143752732Y-115694901D01*
X143688217Y-115694261D01*
X143640386Y-115696152D01*
X143622919Y-115698610D01*
X143598266Y-115707789D01*
X143586041Y-115725230D01*
X143581972Y-115760099D01*
X143581662Y-115787156D01*
X143582742Y-115826539D01*
X143589469Y-115854024D01*
X143607069Y-115873679D01*
X143640772Y-115889569D01*
X143695804Y-115905760D01*
X143752662Y-115920159D01*
X143853069Y-115948867D01*
X143926263Y-115980575D01*
X143976255Y-116019830D01*
X144007058Y-116071178D01*
X144022681Y-116139166D01*
X144027135Y-116228342D01*
X144027138Y-116231312D01*
X144021267Y-116334343D01*
X144001598Y-116413190D01*
X143965054Y-116470755D01*
X143908554Y-116509940D01*
X143829019Y-116533644D01*
X143723370Y-116544770D01*
X143693188Y-116545907D01*
X143623168Y-116546975D01*
X143561184Y-116546350D01*
X143516506Y-116544196D01*
X143503508Y-116542587D01*
X143438859Y-116527243D01*
X143382663Y-116508614D01*
X143341468Y-116489424D01*
X143321820Y-116472396D01*
X143321441Y-116466853D01*
X143328243Y-116440147D01*
X143336530Y-116395899D01*
X143339902Y-116374675D01*
X143346682Y-116332201D01*
X143351625Y-116306184D01*
X143352888Y-116302338D01*
X143368006Y-116305319D01*
X143405849Y-116313173D01*
X143458565Y-116324270D01*
X143464437Y-116325513D01*
X143559278Y-116341529D01*
X143643973Y-116348069D01*
X143711901Y-116344962D01*
X143754628Y-116333050D01*
X143773968Y-116314954D01*
X143783047Y-116281944D01*
X143784862Y-116239667D01*
X143782766Y-116191603D01*
X143773376Y-116163957D01*
X143752041Y-116145998D01*
X143741877Y-116140518D01*
X143701463Y-116124548D01*
X143646137Y-116108193D01*
X143614345Y-116100671D01*
X143513015Y-116074487D01*
X143439052Y-116042241D01*
X143388602Y-115999529D01*
X143357816Y-115941945D01*
X143342840Y-115865084D01*
X143339655Y-115786523D01*
X143343772Y-115693479D01*
X143357972Y-115625016D01*
X143385024Y-115575320D01*
X143427699Y-115538580D01*
X143467759Y-115517717D01*
X143500375Y-115504861D01*
X143533865Y-115496346D01*
X143574973Y-115491571D01*
X143630441Y-115489935D01*
X143707012Y-115490835D01*
G37*
G36*
X137595077Y-116536800D02*
G01*
X137360615Y-116536800D01*
X137360615Y-115489538D01*
X137595077Y-115489538D01*
X137595077Y-116536800D01*
G37*
G36*
X139361354Y-115708369D02*
G01*
X139080000Y-115708369D01*
X139080000Y-116536800D01*
X138845538Y-116536800D01*
X138845538Y-115708369D01*
X138562756Y-115708369D01*
X138567378Y-115602861D01*
X138572000Y-115497354D01*
X139361354Y-115489002D01*
X139361354Y-115708369D01*
G37*
G36*
X140455508Y-115708369D02*
G01*
X140174154Y-115708369D01*
X140174154Y-116536800D01*
X139939692Y-116536800D01*
X139939692Y-115708369D01*
X139658338Y-115708369D01*
X139658338Y-115489538D01*
X140455508Y-115489538D01*
X140455508Y-115708369D01*
G37*
G36*
X140572306Y-116007515D02*
G01*
X140608503Y-115889039D01*
X140642053Y-115780033D01*
X140671819Y-115684133D01*
X140696662Y-115604968D01*
X140715446Y-115546174D01*
X140727033Y-115511382D01*
X140730125Y-115503423D01*
X140748477Y-115497494D01*
X140790874Y-115492827D01*
X140850104Y-115490045D01*
X140891156Y-115489538D01*
X141043606Y-115489538D01*
X141197373Y-115993631D01*
X141234150Y-116114085D01*
X141268196Y-116225377D01*
X141298394Y-116323878D01*
X141323630Y-116405960D01*
X141342789Y-116467995D01*
X141354756Y-116506354D01*
X141358288Y-116517261D01*
X141353604Y-116527484D01*
X141327778Y-116533667D01*
X141276826Y-116536465D01*
X141239321Y-116536800D01*
X141113205Y-116536800D01*
X141096438Y-116470369D01*
X141081367Y-116411314D01*
X141067470Y-116372126D01*
X141048500Y-116348930D01*
X141018213Y-116337847D01*
X140970362Y-116335000D01*
X140898703Y-116336511D01*
X140881593Y-116336978D01*
X140713521Y-116341415D01*
X140688747Y-116435200D01*
X140663972Y-116528985D01*
X140536543Y-116533520D01*
X140471627Y-116534729D01*
X140433256Y-116532287D01*
X140416866Y-116525602D01*
X140416091Y-116517890D01*
X140422188Y-116498525D01*
X140436250Y-116452942D01*
X140457146Y-116384833D01*
X140483746Y-116297888D01*
X140514921Y-116195799D01*
X140533118Y-116136121D01*
X140780547Y-116136121D01*
X140781072Y-116138139D01*
X140800409Y-116142660D01*
X140840251Y-116145210D01*
X140889909Y-116145825D01*
X140938691Y-116144546D01*
X140975907Y-116141408D01*
X140990381Y-116137393D01*
X140990277Y-116118179D01*
X140980977Y-116070991D01*
X140962915Y-115997596D01*
X140936524Y-115899761D01*
X140904640Y-115787545D01*
X140884584Y-115718273D01*
X140828882Y-115924260D01*
X140809118Y-115999914D01*
X140793621Y-116064259D01*
X140783671Y-116111570D01*
X140780547Y-116136121D01*
X140533118Y-116136121D01*
X140549542Y-116082257D01*
X140572306Y-116007515D01*
G37*
G36*
X144492154Y-115491955D02*
G01*
X144594110Y-115494105D01*
X144670163Y-115496583D01*
X144725670Y-115500063D01*
X144765986Y-115505214D01*
X144796470Y-115512709D01*
X144822476Y-115523218D01*
X144847754Y-115536514D01*
X144895741Y-115567794D01*
X144929986Y-115603535D01*
X144952642Y-115649415D01*
X144965863Y-115711114D01*
X144971800Y-115794309D01*
X144972776Y-115866273D01*
X144972191Y-115946469D01*
X144969706Y-116002452D01*
X144964259Y-116041259D01*
X144954789Y-116069928D01*
X144940234Y-116095496D01*
X144937631Y-116099375D01*
X144896948Y-116146968D01*
X144846041Y-116181056D01*
X144779440Y-116203678D01*
X144691673Y-116216874D01*
X144609385Y-116221789D01*
X144441354Y-116227643D01*
X144441354Y-116536800D01*
X144206892Y-116536800D01*
X144206892Y-116024295D01*
X144441354Y-116024295D01*
X144564006Y-116018725D01*
X144633389Y-116012867D01*
X144685765Y-116003044D01*
X144712499Y-115991710D01*
X144727990Y-115968787D01*
X144736127Y-115928092D01*
X144738338Y-115867901D01*
X144735526Y-115798334D01*
X144723597Y-115752395D01*
X144697317Y-115725293D01*
X144651450Y-115712238D01*
X144580761Y-115708440D01*
X144563977Y-115708369D01*
X144441354Y-115708369D01*
X144441354Y-116024295D01*
X144206892Y-116024295D01*
X144206892Y-115486557D01*
X144492154Y-115491955D01*
G37*
G36*
X145120756Y-115995886D02*
G01*
X145152925Y-115889407D01*
X145183599Y-115787617D01*
X145211499Y-115694747D01*
X145235347Y-115615027D01*
X145253862Y-115552685D01*
X145265765Y-115511953D01*
X145269785Y-115497104D01*
X145284313Y-115493931D01*
X145323492Y-115491414D01*
X145380714Y-115489869D01*
X145426479Y-115489538D01*
X145497659Y-115489830D01*
X145543861Y-115491713D01*
X145571368Y-115496701D01*
X145586463Y-115506308D01*
X145595430Y-115522047D01*
X145598971Y-115531088D01*
X145607416Y-115556172D01*
X145623683Y-115607078D01*
X145646496Y-115679721D01*
X145674582Y-115770014D01*
X145706665Y-115873871D01*
X145741470Y-115987204D01*
X145753758Y-116027365D01*
X145788913Y-116142144D01*
X145821498Y-116248083D01*
X145850296Y-116341256D01*
X145874086Y-116417736D01*
X145891650Y-116473596D01*
X145901771Y-116504907D01*
X145903369Y-116509446D01*
X145905724Y-116523002D01*
X145896089Y-116531178D01*
X145868857Y-116535303D01*
X145818421Y-116536704D01*
X145787831Y-116536800D01*
X145661672Y-116536800D01*
X145632902Y-116439108D01*
X145604133Y-116341415D01*
X145262892Y-116341415D01*
X145233720Y-116439108D01*
X145204548Y-116536800D01*
X145079186Y-116536800D01*
X145013995Y-116535494D01*
X144975976Y-116531135D01*
X144961130Y-116523060D01*
X144961207Y-116517261D01*
X144968012Y-116496385D01*
X144982279Y-116450590D01*
X145002727Y-116384107D01*
X145028079Y-116301166D01*
X145057054Y-116205995D01*
X145077850Y-116137491D01*
X145316677Y-116137491D01*
X145330987Y-116141700D01*
X145368647Y-116144750D01*
X145421748Y-116146024D01*
X145426092Y-116146031D01*
X145484131Y-116144987D01*
X145517381Y-116140780D01*
X145532280Y-116131800D01*
X145535321Y-116118677D01*
X145531229Y-116093591D01*
X145520214Y-116045323D01*
X145503941Y-115980748D01*
X145484077Y-115906742D01*
X145483462Y-115904517D01*
X145431789Y-115717711D01*
X145374233Y-115923331D01*
X145353225Y-115998973D01*
X145335652Y-116063377D01*
X145323060Y-116110788D01*
X145316995Y-116135456D01*
X145316677Y-116137491D01*
X145077850Y-116137491D01*
X145088373Y-116102825D01*
X145120756Y-115995886D01*
G37*
G36*
X146261569Y-115489538D02*
G01*
X146388864Y-115491028D01*
X146489367Y-115496040D01*
X146567428Y-115505383D01*
X146627397Y-115519871D01*
X146673627Y-115540313D01*
X146710468Y-115567521D01*
X146717869Y-115574620D01*
X146760088Y-115630553D01*
X146786599Y-115700687D01*
X146798615Y-115789955D01*
X146797622Y-115898620D01*
X146785966Y-116000479D01*
X146762914Y-116076431D01*
X146726846Y-116130264D01*
X146685275Y-116161177D01*
X146646034Y-116182178D01*
X146718569Y-116285243D01*
X146762105Y-116346869D01*
X146807095Y-116410181D01*
X146843946Y-116461679D01*
X146844576Y-116462554D01*
X146898047Y-116536800D01*
X146606215Y-116535144D01*
X146496800Y-116376736D01*
X146450801Y-116310643D01*
X146417869Y-116266097D01*
X146393396Y-116238860D01*
X146372774Y-116224693D01*
X146351395Y-116219360D01*
X146324862Y-116218622D01*
X146262338Y-116218915D01*
X146257884Y-116377857D01*
X146253429Y-116536800D01*
X146020062Y-116536800D01*
X146020062Y-116005354D01*
X146254523Y-116005354D01*
X146372781Y-116005354D01*
X146434449Y-116003277D01*
X146486804Y-115997802D01*
X146519424Y-115990067D01*
X146521274Y-115989173D01*
X146537162Y-115976171D01*
X146546368Y-115953417D01*
X146550583Y-115913510D01*
X146551508Y-115856861D01*
X146549756Y-115792974D01*
X146540966Y-115750624D01*
X146519831Y-115725404D01*
X146481045Y-115712907D01*
X146419305Y-115708723D01*
X146372781Y-115708369D01*
X146254523Y-115708369D01*
X146254523Y-116005354D01*
X146020062Y-116005354D01*
X146020062Y-115489538D01*
X146261569Y-115489538D01*
G37*
G36*
X147270944Y-116536800D02*
G01*
X147020009Y-116536800D01*
X147024128Y-116017077D01*
X147028246Y-115497354D01*
X147262708Y-115497354D01*
X147270944Y-116536800D01*
G37*
G36*
X147762432Y-115490630D02*
G01*
X147807606Y-115493539D01*
X147831334Y-115497716D01*
X147833231Y-115499392D01*
X147825828Y-115515468D01*
X147805255Y-115554167D01*
X147773961Y-115611034D01*
X147734398Y-115681613D01*
X147691011Y-115757960D01*
X147548790Y-116006675D01*
X147705410Y-116271737D01*
X147862029Y-116536800D01*
X147590415Y-116536800D01*
X147289947Y-116007272D01*
X147572893Y-115489538D01*
X147703062Y-115489538D01*
X147762432Y-115490630D01*
G37*
G36*
X139717700Y-116103046D02*
G01*
X139713046Y-116200738D01*
X139314462Y-116209488D01*
X139314462Y-116005354D01*
X139722353Y-116005354D01*
X139717700Y-116103046D01*
G37*
G36*
X158725831Y-114882228D02*
G01*
X158796612Y-114885563D01*
X158857289Y-114891134D01*
X158900221Y-114898747D01*
X158916307Y-114905808D01*
X158926463Y-114934372D01*
X158923340Y-114957843D01*
X158906896Y-114982958D01*
X158877470Y-114983211D01*
X158812726Y-114971614D01*
X158736061Y-114964658D01*
X158659123Y-114962765D01*
X158593561Y-114966353D01*
X158562393Y-114971868D01*
X158508946Y-114996386D01*
X158476840Y-115037724D01*
X158463143Y-115100499D01*
X158462154Y-115129749D01*
X158464841Y-115188078D01*
X158476396Y-115229263D01*
X158502061Y-115258959D01*
X158547075Y-115282822D01*
X158616679Y-115306508D01*
X158629528Y-115310384D01*
X158733959Y-115342795D01*
X158811877Y-115371197D01*
X158867118Y-115399065D01*
X158903521Y-115429879D01*
X158924924Y-115467115D01*
X158935164Y-115514252D01*
X158938078Y-115574766D01*
X158938118Y-115590019D01*
X158931357Y-115684149D01*
X158909419Y-115754730D01*
X158869218Y-115804633D01*
X158807668Y-115836731D01*
X158721684Y-115853896D01*
X158649723Y-115858449D01*
X158583324Y-115859331D01*
X158524788Y-115858388D01*
X158484381Y-115855834D01*
X158477785Y-115854872D01*
X158409649Y-115837485D01*
X158371049Y-115815745D01*
X158360440Y-115788660D01*
X158362097Y-115780554D01*
X158370690Y-115754825D01*
X158381861Y-115743837D01*
X158405029Y-115744724D01*
X158448368Y-115754337D01*
X158498843Y-115762260D01*
X158566272Y-115768053D01*
X158636363Y-115770500D01*
X158638710Y-115770510D01*
X158702351Y-115769654D01*
X158743596Y-115765203D01*
X158771275Y-115755063D01*
X158794217Y-115737140D01*
X158798926Y-115732526D01*
X158820450Y-115706390D01*
X158832113Y-115675903D01*
X158836731Y-115630762D01*
X158837292Y-115592209D01*
X158835673Y-115539023D01*
X158827562Y-115500877D01*
X158808080Y-115473232D01*
X158772347Y-115451549D01*
X158715484Y-115431288D01*
X158641908Y-115410435D01*
X158540547Y-115379966D01*
X158466526Y-115348976D01*
X158416156Y-115313162D01*
X158385744Y-115268215D01*
X158371600Y-115209833D01*
X158370033Y-115133707D01*
X158372208Y-115095823D01*
X158384007Y-115015391D01*
X158408578Y-114958383D01*
X158449935Y-114918211D01*
X158494490Y-114895124D01*
X158529275Y-114887578D01*
X158584521Y-114883042D01*
X158652587Y-114881324D01*
X158725831Y-114882228D01*
G37*
G36*
X159947247Y-115255319D02*
G01*
X159948081Y-115176517D01*
X159950062Y-115119277D01*
X159953675Y-115078753D01*
X159959404Y-115050094D01*
X159967732Y-115028453D01*
X159979145Y-115008979D01*
X159982708Y-115003626D01*
X160020015Y-114961387D01*
X160068165Y-114922505D01*
X160080401Y-114914859D01*
X160112609Y-114898215D01*
X160144738Y-114888014D01*
X160185150Y-114883056D01*
X160242212Y-114882140D01*
X160300040Y-114883359D01*
X160373368Y-114886049D01*
X160423551Y-114890466D01*
X160458704Y-114898464D01*
X160486944Y-114911897D01*
X160516385Y-114932619D01*
X160516664Y-114932832D01*
X160556847Y-114967378D01*
X160586889Y-115004585D01*
X160608200Y-115049526D01*
X160622187Y-115107274D01*
X160630261Y-115182902D01*
X160633831Y-115281481D01*
X160634400Y-115356677D01*
X160633345Y-115474743D01*
X160629254Y-115566425D01*
X160621151Y-115636530D01*
X160608057Y-115689866D01*
X160588994Y-115731244D01*
X160562986Y-115765470D01*
X160548264Y-115780283D01*
X160484040Y-115822377D01*
X160400331Y-115850795D01*
X160306392Y-115864159D01*
X160211479Y-115861090D01*
X160130880Y-115842435D01*
X160075336Y-115820676D01*
X160032213Y-115797129D01*
X159999955Y-115767709D01*
X159977003Y-115728332D01*
X159961800Y-115674913D01*
X159952788Y-115603370D01*
X159948409Y-115509616D01*
X159947106Y-115389568D01*
X159947106Y-115389088D01*
X160040042Y-115389088D01*
X160040616Y-115476777D01*
X160043098Y-115555885D01*
X160047564Y-115619776D01*
X160054090Y-115661816D01*
X160056103Y-115668267D01*
X160079548Y-115703391D01*
X160116930Y-115736714D01*
X160122533Y-115740399D01*
X160154114Y-115756774D01*
X160189536Y-115765830D01*
X160238069Y-115768965D01*
X160303959Y-115767760D01*
X160368614Y-115764757D01*
X160410632Y-115759599D01*
X160438634Y-115749552D01*
X160461241Y-115731885D01*
X160479805Y-115712030D01*
X160525415Y-115660984D01*
X160525415Y-115366528D01*
X160525287Y-115263677D01*
X160524550Y-115187344D01*
X160522675Y-115132784D01*
X160519132Y-115095253D01*
X160513392Y-115070006D01*
X160504927Y-115052301D01*
X160493207Y-115037392D01*
X160488077Y-115031784D01*
X160434382Y-114992847D01*
X160365204Y-114969395D01*
X160288240Y-114961023D01*
X160211189Y-114967325D01*
X160141751Y-114987898D01*
X160087622Y-115022335D01*
X160063135Y-115054144D01*
X160055308Y-115085216D01*
X160049009Y-115140882D01*
X160044315Y-115214506D01*
X160041300Y-115299453D01*
X160040042Y-115389088D01*
X159947106Y-115389088D01*
X159947077Y-115360534D01*
X159947247Y-115255319D01*
G37*
G36*
X157364092Y-114882808D02*
G01*
X157407077Y-114887754D01*
X157415385Y-115754382D01*
X157630062Y-115758730D01*
X157844738Y-115763077D01*
X157849684Y-115806061D01*
X157854630Y-115849046D01*
X157321108Y-115849046D01*
X157321108Y-114877862D01*
X157364092Y-114882808D01*
G37*
G36*
X158083108Y-114882808D02*
G01*
X158126092Y-114887754D01*
X158130226Y-115368400D01*
X158134359Y-115849046D01*
X158040123Y-115849046D01*
X158040123Y-114877862D01*
X158083108Y-114882808D01*
G37*
G36*
X159164911Y-115036055D02*
G01*
X159165008Y-114965963D01*
X159165119Y-114916602D01*
X159165240Y-114892698D01*
X159165258Y-114891661D01*
X159179890Y-114886354D01*
X159219003Y-114882724D01*
X159275863Y-114880710D01*
X159343739Y-114880252D01*
X159415897Y-114881288D01*
X159485606Y-114883758D01*
X159546132Y-114887601D01*
X159590742Y-114892756D01*
X159604361Y-114895633D01*
X159654107Y-114917943D01*
X159697087Y-114950393D01*
X159698145Y-114951503D01*
X159717673Y-114976448D01*
X159729886Y-115006111D01*
X159736986Y-115049092D01*
X159741172Y-115113993D01*
X159741466Y-115120854D01*
X159743397Y-115185868D01*
X159741413Y-115228479D01*
X159733800Y-115257467D01*
X159718842Y-115281614D01*
X159707351Y-115295450D01*
X159667832Y-115341046D01*
X159717303Y-115392431D01*
X159743685Y-115422868D01*
X159759318Y-115452721D01*
X159767679Y-115492371D01*
X159772244Y-115552197D01*
X159772503Y-115557262D01*
X159770327Y-115656898D01*
X159751558Y-115732842D01*
X159714905Y-115788660D01*
X159678387Y-115817384D01*
X159654630Y-115829882D01*
X159627346Y-115838611D01*
X159590668Y-115844228D01*
X159538727Y-115847389D01*
X159465657Y-115848751D01*
X159396092Y-115848988D01*
X159315169Y-115848259D01*
X159246586Y-115846214D01*
X159195808Y-115843129D01*
X159168302Y-115839280D01*
X159164969Y-115837323D01*
X159164857Y-115819885D01*
X159164772Y-115775911D01*
X159164754Y-115755261D01*
X159259323Y-115755261D01*
X159437960Y-115755261D01*
X159520443Y-115754350D01*
X159577216Y-115751170D01*
X159613791Y-115745056D01*
X159635679Y-115735341D01*
X159641160Y-115730699D01*
X159655054Y-115706336D01*
X159662892Y-115663780D01*
X159665679Y-115597067D01*
X159665723Y-115584629D01*
X159664029Y-115515936D01*
X159655867Y-115467243D01*
X159636617Y-115434904D01*
X159601659Y-115415271D01*
X159546371Y-115404697D01*
X159466134Y-115399533D01*
X159429666Y-115398278D01*
X159259323Y-115392988D01*
X159259323Y-115755261D01*
X159164754Y-115755261D01*
X159164714Y-115710129D01*
X159164680Y-115627266D01*
X159164669Y-115532047D01*
X159164680Y-115429200D01*
X159164691Y-115392988D01*
X159164711Y-115323450D01*
X159164761Y-115219525D01*
X159164819Y-115135241D01*
X159259323Y-115135241D01*
X159260396Y-115203639D01*
X159263291Y-115260164D01*
X159267524Y-115297648D01*
X159271046Y-115308742D01*
X159290890Y-115313358D01*
X159334323Y-115315748D01*
X159393732Y-115315632D01*
X159427655Y-115314520D01*
X159499191Y-115310436D01*
X159546899Y-115304431D01*
X159578213Y-115294829D01*
X159600566Y-115279958D01*
X159606647Y-115274207D01*
X159632271Y-115231216D01*
X159646806Y-115171753D01*
X159649700Y-115107133D01*
X159640405Y-115048668D01*
X159619557Y-115008892D01*
X159601929Y-114993001D01*
X159580605Y-114982759D01*
X159548762Y-114976945D01*
X159499574Y-114974340D01*
X159426218Y-114973724D01*
X159422837Y-114973723D01*
X159259323Y-114973723D01*
X159259323Y-115135241D01*
X159164819Y-115135241D01*
X159164828Y-115122152D01*
X159164911Y-115036055D01*
G37*
G36*
X160940627Y-115309999D02*
G01*
X160978325Y-115201952D01*
X160989731Y-115169108D01*
X161019397Y-115084999D01*
X161046592Y-115010570D01*
X161069290Y-114951157D01*
X161085468Y-114912098D01*
X161092018Y-114899477D01*
X161117458Y-114885825D01*
X161157301Y-114879943D01*
X161158462Y-114879938D01*
X161198160Y-114885512D01*
X161223675Y-114898972D01*
X161224072Y-114899477D01*
X161234124Y-114920359D01*
X161252261Y-114965257D01*
X161276360Y-115028638D01*
X161304298Y-115104973D01*
X161321591Y-115153477D01*
X161358352Y-115257274D01*
X161399528Y-115373039D01*
X161440416Y-115487573D01*
X161476311Y-115587679D01*
X161480713Y-115599911D01*
X161507997Y-115676912D01*
X161530970Y-115744097D01*
X161547714Y-115795675D01*
X161556313Y-115825858D01*
X161557046Y-115830464D01*
X161543549Y-115843825D01*
X161513044Y-115849046D01*
X161489126Y-115846462D01*
X161471740Y-115834440D01*
X161455995Y-115806572D01*
X161437001Y-115756451D01*
X161432501Y-115743538D01*
X161412234Y-115688272D01*
X161393795Y-115643570D01*
X161381077Y-115618852D01*
X161380804Y-115618492D01*
X161362540Y-115609710D01*
X161321758Y-115603687D01*
X161255643Y-115600185D01*
X161161378Y-115598960D01*
X161152372Y-115598954D01*
X160939094Y-115598954D01*
X160894664Y-115724000D01*
X160872280Y-115784926D01*
X160855476Y-115822023D01*
X160840050Y-115841155D01*
X160821802Y-115848186D01*
X160805056Y-115849046D01*
X160772875Y-115844665D01*
X160759877Y-115834436D01*
X160764887Y-115815056D01*
X160778618Y-115772149D01*
X160799119Y-115711572D01*
X160824440Y-115639184D01*
X160831442Y-115619513D01*
X160863101Y-115530402D01*
X160872371Y-115504121D01*
X160978708Y-115504121D01*
X160994082Y-115512217D01*
X161039382Y-115517705D01*
X161113369Y-115520472D01*
X161158462Y-115520800D01*
X161248221Y-115519348D01*
X161307114Y-115514977D01*
X161335398Y-115507660D01*
X161338215Y-115503589D01*
X161333425Y-115484401D01*
X161320394Y-115441973D01*
X161301129Y-115382243D01*
X161277639Y-115311146D01*
X161251931Y-115234620D01*
X161226014Y-115158602D01*
X161201896Y-115089028D01*
X161181584Y-115031835D01*
X161167087Y-114992960D01*
X161160606Y-114978472D01*
X161154131Y-114990463D01*
X161139843Y-115026498D01*
X161119695Y-115080928D01*
X161095645Y-115148100D01*
X161069646Y-115222364D01*
X161043656Y-115298069D01*
X161019628Y-115369564D01*
X160999519Y-115431197D01*
X160985284Y-115477319D01*
X160978878Y-115502278D01*
X160978708Y-115504121D01*
X160872371Y-115504121D01*
X160900858Y-115423356D01*
X160940627Y-115309999D01*
G37*
G36*
X139203744Y-114239077D02*
G01*
X139238092Y-114244062D01*
X139254788Y-114255441D01*
X139272158Y-114261533D01*
X139312563Y-114249893D01*
X139318112Y-114247625D01*
X139393862Y-114226575D01*
X139465419Y-114225752D01*
X139526015Y-114243893D01*
X139568887Y-114279734D01*
X139578461Y-114296244D01*
X139585381Y-114327080D01*
X139590909Y-114382332D01*
X139594552Y-114455163D01*
X139595815Y-114535925D01*
X139595475Y-114619368D01*
X139593818Y-114677761D01*
X139589888Y-114717312D01*
X139582731Y-114744229D01*
X139571392Y-114764723D01*
X139558057Y-114781374D01*
X139537804Y-114802687D01*
X139516725Y-114815677D01*
X139486779Y-114822395D01*
X139439926Y-114824893D01*
X139386114Y-114825231D01*
X139251929Y-114825231D01*
X139251934Y-114936881D01*
X139250354Y-114998785D01*
X139244754Y-115035817D01*
X139233855Y-115054249D01*
X139227214Y-115058020D01*
X139206842Y-115065479D01*
X139190931Y-115068217D01*
X139178928Y-115063006D01*
X139170283Y-115046618D01*
X139164446Y-115015824D01*
X139160865Y-114967396D01*
X139158990Y-114898106D01*
X139158270Y-114804726D01*
X139158153Y-114684027D01*
X139158154Y-114653292D01*
X139158154Y-114551664D01*
X139251938Y-114551664D01*
X139253237Y-114635277D01*
X139257356Y-114690748D01*
X139264629Y-114721102D01*
X139271477Y-114728909D01*
X139297091Y-114733455D01*
X139342469Y-114736848D01*
X139380342Y-114738027D01*
X139434183Y-114736764D01*
X139465532Y-114729528D01*
X139482950Y-114713966D01*
X139485850Y-114709027D01*
X139492904Y-114680694D01*
X139498401Y-114629776D01*
X139501565Y-114564941D01*
X139502031Y-114528246D01*
X139500402Y-114459573D01*
X139496033Y-114400267D01*
X139489700Y-114358994D01*
X139485850Y-114347465D01*
X139457288Y-114324347D01*
X139411050Y-114317421D01*
X139356132Y-114326574D01*
X139304583Y-114349767D01*
X139251938Y-114382303D01*
X139251938Y-114551664D01*
X139158154Y-114551664D01*
X139158154Y-114239077D01*
X139203744Y-114239077D01*
G37*
G36*
X140946181Y-114363567D02*
G01*
X140958665Y-114318718D01*
X140958995Y-114318086D01*
X140986366Y-114284182D01*
X141026107Y-114252564D01*
X141030389Y-114249974D01*
X141056465Y-114236803D01*
X141084612Y-114228969D01*
X141122121Y-114225860D01*
X141176279Y-114226865D01*
X141253092Y-114231289D01*
X141328601Y-114236723D01*
X141378191Y-114242079D01*
X141407176Y-114248618D01*
X141420871Y-114257603D01*
X141424587Y-114270298D01*
X141424615Y-114272047D01*
X141415137Y-114296454D01*
X141402969Y-114301600D01*
X141391272Y-114308388D01*
X141386470Y-114332625D01*
X141387753Y-114380121D01*
X141389245Y-114400290D01*
X141388839Y-114490562D01*
X141369407Y-114557285D01*
X141328439Y-114603450D01*
X141263427Y-114632048D01*
X141183945Y-114645095D01*
X141119275Y-114655100D01*
X141082468Y-114671583D01*
X141075083Y-114679896D01*
X141065959Y-114706180D01*
X141069005Y-114717107D01*
X141088324Y-114724006D01*
X141130918Y-114733407D01*
X141189073Y-114743699D01*
X141216638Y-114747953D01*
X141298607Y-114763087D01*
X141354072Y-114782469D01*
X141387787Y-114809962D01*
X141404506Y-114849430D01*
X141408985Y-114904245D01*
X141400451Y-114966289D01*
X141371640Y-115015416D01*
X141371279Y-115015836D01*
X141351777Y-115036456D01*
X141331311Y-115049480D01*
X141302327Y-115056803D01*
X141257276Y-115060322D01*
X141188604Y-115061932D01*
X141187618Y-115061947D01*
X141117893Y-115062191D01*
X141055559Y-115060928D01*
X141010420Y-115058414D01*
X140998677Y-115057001D01*
X140967317Y-115045941D01*
X140956379Y-115020219D01*
X140955692Y-115003762D01*
X140957260Y-114975352D01*
X140967653Y-114963911D01*
X140995405Y-114965054D01*
X141022123Y-114969631D01*
X141090734Y-114978048D01*
X141161225Y-114980341D01*
X141224664Y-114976859D01*
X141272116Y-114967950D01*
X141290474Y-114959154D01*
X141311100Y-114926425D01*
X141312734Y-114887642D01*
X141295713Y-114856640D01*
X141287846Y-114851338D01*
X141258958Y-114842755D01*
X141209622Y-114833822D01*
X141151077Y-114826536D01*
X141068901Y-114814373D01*
X141014007Y-114795511D01*
X140982757Y-114767837D01*
X140971510Y-114729240D01*
X140971323Y-114722243D01*
X140976905Y-114676550D01*
X140988200Y-114643149D01*
X140996073Y-114612823D01*
X140979557Y-114583463D01*
X140977161Y-114580769D01*
X140958871Y-114543809D01*
X140947080Y-114487619D01*
X140944509Y-114451065D01*
X141034588Y-114451065D01*
X141042077Y-114501133D01*
X141053385Y-114523460D01*
X141096908Y-114555490D01*
X141153402Y-114567393D01*
X141211671Y-114558873D01*
X141260520Y-114529634D01*
X141261203Y-114528957D01*
X141292129Y-114477748D01*
X141298757Y-114417412D01*
X141280164Y-114359577D01*
X141275237Y-114351970D01*
X141254492Y-114330819D01*
X141224114Y-114320328D01*
X141173970Y-114317255D01*
X141166708Y-114317231D01*
X141113731Y-114319677D01*
X141081649Y-114329180D01*
X141060332Y-114348981D01*
X141058179Y-114351970D01*
X141040092Y-114396481D01*
X141034588Y-114451065D01*
X140944509Y-114451065D01*
X140942585Y-114423703D01*
X140946181Y-114363567D01*
G37*
G36*
X136251171Y-114437124D02*
G01*
X136252828Y-114378731D01*
X136256758Y-114339180D01*
X136263915Y-114312263D01*
X136275254Y-114291769D01*
X136288589Y-114275118D01*
X136308842Y-114253805D01*
X136329921Y-114240815D01*
X136359867Y-114234097D01*
X136406720Y-114231599D01*
X136460532Y-114231261D01*
X136594717Y-114231261D01*
X136594713Y-114127426D01*
X136596540Y-114067689D01*
X136602955Y-114032694D01*
X136615343Y-114016087D01*
X136619432Y-114014103D01*
X136639969Y-114006600D01*
X136655968Y-114003909D01*
X136667997Y-114009282D01*
X136676622Y-114025974D01*
X136682408Y-114057239D01*
X136685922Y-114106330D01*
X136687730Y-114176502D01*
X136688398Y-114271007D01*
X136688493Y-114393101D01*
X136688492Y-114411015D01*
X136688492Y-114817415D01*
X136650718Y-114817415D01*
X136619324Y-114810572D01*
X136606687Y-114798646D01*
X136593813Y-114789804D01*
X136563046Y-114798124D01*
X136544407Y-114806461D01*
X136483224Y-114825065D01*
X136413019Y-114831296D01*
X136348210Y-114824624D01*
X136319045Y-114814764D01*
X136292878Y-114796609D01*
X136274089Y-114768300D01*
X136261596Y-114725181D01*
X136254321Y-114662599D01*
X136251184Y-114575898D01*
X136250880Y-114528246D01*
X136344615Y-114528246D01*
X136346244Y-114596919D01*
X136350613Y-114656226D01*
X136356946Y-114697498D01*
X136360796Y-114709027D01*
X136389126Y-114731762D01*
X136435327Y-114739162D01*
X136490056Y-114731272D01*
X136543908Y-114708171D01*
X136594708Y-114677198D01*
X136594708Y-114506702D01*
X136594347Y-114427190D01*
X136590829Y-114373756D01*
X136580503Y-114341222D01*
X136559717Y-114324408D01*
X136524819Y-114318135D01*
X136472159Y-114317225D01*
X136461118Y-114317231D01*
X136414224Y-114319407D01*
X136381893Y-114329169D01*
X136361445Y-114351367D01*
X136350203Y-114390852D01*
X136345490Y-114452473D01*
X136344615Y-114528246D01*
X136250880Y-114528246D01*
X136250831Y-114520567D01*
X136251171Y-114437124D01*
G37*
G36*
X136862320Y-114627962D02*
G01*
X136867109Y-114587630D01*
X136870140Y-114575839D01*
X136899642Y-114541476D01*
X136956005Y-114517891D01*
X137036410Y-114506045D01*
X137078485Y-114504800D01*
X137188677Y-114504800D01*
X137188677Y-114445755D01*
X137181941Y-114396082D01*
X137165517Y-114353843D01*
X137163444Y-114350685D01*
X137148466Y-114332860D01*
X137129390Y-114322563D01*
X137098539Y-114318227D01*
X137048237Y-114318282D01*
X137011044Y-114319557D01*
X136948372Y-114321614D01*
X136910380Y-114320656D01*
X136890511Y-114314915D01*
X136882208Y-114302620D01*
X136879141Y-114283945D01*
X136879750Y-114256814D01*
X136895399Y-114242503D01*
X136933849Y-114233613D01*
X137039407Y-114223586D01*
X137129822Y-114229892D01*
X137201323Y-114251650D01*
X137250137Y-114287978D01*
X137264665Y-114310904D01*
X137271962Y-114343402D01*
X137277563Y-114402489D01*
X137281163Y-114483520D01*
X137282461Y-114581854D01*
X137282462Y-114583689D01*
X137282462Y-114817415D01*
X137244307Y-114817415D01*
X137211466Y-114812014D01*
X137197073Y-114802725D01*
X137177448Y-114798153D01*
X137139615Y-114808323D01*
X137134130Y-114810540D01*
X137060434Y-114830794D01*
X136988659Y-114832118D01*
X136927917Y-114815125D01*
X136898797Y-114794680D01*
X136873593Y-114761465D01*
X136862343Y-114720294D01*
X136860827Y-114687331D01*
X136957988Y-114687331D01*
X136960917Y-114701313D01*
X136971484Y-114725669D01*
X136993341Y-114736603D01*
X137036354Y-114739032D01*
X137036575Y-114739031D01*
X137088795Y-114734140D01*
X137134336Y-114722333D01*
X137141785Y-114719031D01*
X137170326Y-114696116D01*
X137180439Y-114659506D01*
X137180862Y-114645015D01*
X137177979Y-114608134D01*
X137162962Y-114591841D01*
X137127204Y-114585658D01*
X137046193Y-114585402D01*
X136990820Y-114602379D01*
X136961335Y-114636413D01*
X136957988Y-114687331D01*
X136860827Y-114687331D01*
X136860431Y-114678727D01*
X136862320Y-114627962D01*
G37*
G36*
X137711239Y-114225779D02*
G01*
X137759350Y-114232964D01*
X137786372Y-114247085D01*
X137797307Y-114270009D01*
X137798313Y-114283884D01*
X137798350Y-114325046D01*
X137682271Y-114319945D01*
X137621926Y-114318133D01*
X137585057Y-114320360D01*
X137563969Y-114328278D01*
X137550967Y-114343536D01*
X137548044Y-114348755D01*
X137533056Y-114393621D01*
X137543099Y-114429669D01*
X137580176Y-114459506D01*
X137646289Y-114485742D01*
X137655246Y-114488468D01*
X137728425Y-114513763D01*
X137775662Y-114540794D01*
X137802086Y-114574777D01*
X137812821Y-114620927D01*
X137813908Y-114649880D01*
X137805372Y-114730411D01*
X137779349Y-114786039D01*
X137741110Y-114815692D01*
X137701942Y-114825055D01*
X137642166Y-114829821D01*
X137572130Y-114829745D01*
X137502183Y-114824581D01*
X137481754Y-114821850D01*
X137449758Y-114810783D01*
X137439185Y-114784142D01*
X137438769Y-114772070D01*
X137438769Y-114728800D01*
X137563250Y-114736007D01*
X137625284Y-114739161D01*
X137663500Y-114738578D01*
X137685279Y-114732457D01*
X137698006Y-114718997D01*
X137706989Y-114700946D01*
X137717457Y-114662700D01*
X137707336Y-114631974D01*
X137673424Y-114605119D01*
X137612517Y-114578487D01*
X137593584Y-114571742D01*
X137521027Y-114542151D01*
X137474543Y-114509855D01*
X137449109Y-114468930D01*
X137439703Y-114413453D01*
X137439266Y-114389745D01*
X137447265Y-114318764D01*
X137472435Y-114269563D01*
X137518079Y-114239372D01*
X137587497Y-114225418D01*
X137637034Y-114223659D01*
X137711239Y-114225779D01*
G37*
G36*
X138566073Y-114627962D02*
G01*
X138570863Y-114587630D01*
X138573894Y-114575839D01*
X138603396Y-114541476D01*
X138659758Y-114517891D01*
X138740164Y-114506045D01*
X138782239Y-114504800D01*
X138892431Y-114504800D01*
X138892431Y-114445755D01*
X138885695Y-114396082D01*
X138869271Y-114353843D01*
X138867198Y-114350685D01*
X138852220Y-114332860D01*
X138833144Y-114322563D01*
X138802293Y-114318227D01*
X138751991Y-114318282D01*
X138714798Y-114319557D01*
X138652126Y-114321614D01*
X138614134Y-114320656D01*
X138594265Y-114314915D01*
X138585962Y-114302620D01*
X138582895Y-114283945D01*
X138583503Y-114256814D01*
X138599153Y-114242503D01*
X138637603Y-114233613D01*
X138743161Y-114223586D01*
X138833576Y-114229892D01*
X138905076Y-114251650D01*
X138953891Y-114287978D01*
X138968419Y-114310904D01*
X138975716Y-114343402D01*
X138981317Y-114402489D01*
X138984917Y-114483520D01*
X138986215Y-114581854D01*
X138986215Y-114817415D01*
X138948061Y-114817415D01*
X138915220Y-114812014D01*
X138900827Y-114802725D01*
X138881202Y-114798153D01*
X138843369Y-114808323D01*
X138837884Y-114810540D01*
X138764188Y-114830794D01*
X138692413Y-114832118D01*
X138631671Y-114815125D01*
X138602551Y-114794680D01*
X138577347Y-114761465D01*
X138566097Y-114720294D01*
X138564581Y-114687331D01*
X138661742Y-114687331D01*
X138664671Y-114701313D01*
X138675238Y-114725669D01*
X138697095Y-114736603D01*
X138740108Y-114739032D01*
X138740329Y-114739031D01*
X138792549Y-114734140D01*
X138838090Y-114722333D01*
X138845538Y-114719031D01*
X138874080Y-114696116D01*
X138884193Y-114659506D01*
X138884615Y-114645015D01*
X138881733Y-114608134D01*
X138866716Y-114591841D01*
X138830958Y-114585658D01*
X138749947Y-114585402D01*
X138694574Y-114602379D01*
X138665089Y-114636413D01*
X138661742Y-114687331D01*
X138564581Y-114687331D01*
X138564185Y-114678727D01*
X138566073Y-114627962D01*
G37*
G36*
X139754012Y-114627962D02*
G01*
X139758802Y-114587630D01*
X139761833Y-114575839D01*
X139791334Y-114541476D01*
X139847697Y-114517891D01*
X139928102Y-114506045D01*
X139970178Y-114504800D01*
X140080369Y-114504800D01*
X140080369Y-114445755D01*
X140073634Y-114396082D01*
X140057209Y-114353843D01*
X140055136Y-114350685D01*
X140040159Y-114332860D01*
X140021082Y-114322563D01*
X139990231Y-114318227D01*
X139939929Y-114318282D01*
X139902736Y-114319557D01*
X139840064Y-114321614D01*
X139802073Y-114320656D01*
X139782203Y-114314915D01*
X139773900Y-114302620D01*
X139770834Y-114283945D01*
X139771442Y-114256814D01*
X139787092Y-114242503D01*
X139825541Y-114233613D01*
X139931099Y-114223586D01*
X140021514Y-114229892D01*
X140093015Y-114251650D01*
X140141829Y-114287978D01*
X140156357Y-114310904D01*
X140163655Y-114343402D01*
X140169255Y-114402489D01*
X140172856Y-114483520D01*
X140174153Y-114581854D01*
X140174154Y-114583689D01*
X140174154Y-114817415D01*
X140135999Y-114817415D01*
X140103158Y-114812014D01*
X140088766Y-114802725D01*
X140069140Y-114798153D01*
X140031308Y-114808323D01*
X140025822Y-114810540D01*
X139952127Y-114830794D01*
X139880352Y-114832118D01*
X139819609Y-114815125D01*
X139790489Y-114794680D01*
X139765286Y-114761465D01*
X139754036Y-114720294D01*
X139752519Y-114687331D01*
X139849681Y-114687331D01*
X139852609Y-114701313D01*
X139863176Y-114725669D01*
X139885034Y-114736603D01*
X139928046Y-114739032D01*
X139928267Y-114739031D01*
X139980488Y-114734140D01*
X140026029Y-114722333D01*
X140033477Y-114719031D01*
X140062018Y-114696116D01*
X140072132Y-114659506D01*
X140072554Y-114645015D01*
X140069671Y-114608134D01*
X140054654Y-114591841D01*
X140018896Y-114585658D01*
X139937886Y-114585402D01*
X139882513Y-114602379D01*
X139853027Y-114636413D01*
X139849681Y-114687331D01*
X139752519Y-114687331D01*
X139752123Y-114678727D01*
X139754012Y-114627962D01*
G37*
G36*
X141551550Y-114627962D02*
G01*
X141556340Y-114587630D01*
X141559371Y-114575839D01*
X141588873Y-114541476D01*
X141645235Y-114517891D01*
X141725641Y-114506045D01*
X141767716Y-114504800D01*
X141877908Y-114504800D01*
X141877908Y-114445755D01*
X141871172Y-114396082D01*
X141854748Y-114353843D01*
X141852675Y-114350685D01*
X141837697Y-114332860D01*
X141818621Y-114322563D01*
X141787770Y-114318227D01*
X141737468Y-114318282D01*
X141700275Y-114319557D01*
X141637603Y-114321614D01*
X141599611Y-114320656D01*
X141579742Y-114314915D01*
X141571439Y-114302620D01*
X141568372Y-114283945D01*
X141568980Y-114256814D01*
X141584630Y-114242503D01*
X141623080Y-114233613D01*
X141728638Y-114223586D01*
X141819053Y-114229892D01*
X141890553Y-114251650D01*
X141939367Y-114287978D01*
X141953896Y-114310904D01*
X141961193Y-114343402D01*
X141966794Y-114402489D01*
X141970394Y-114483520D01*
X141971692Y-114581854D01*
X141971692Y-114817415D01*
X141933538Y-114817415D01*
X141900696Y-114812014D01*
X141886304Y-114802725D01*
X141866679Y-114798153D01*
X141828846Y-114808323D01*
X141823361Y-114810540D01*
X141749665Y-114830794D01*
X141677890Y-114832118D01*
X141617148Y-114815125D01*
X141588028Y-114794680D01*
X141562824Y-114761465D01*
X141551574Y-114720294D01*
X141550058Y-114687331D01*
X141647219Y-114687331D01*
X141650148Y-114701313D01*
X141660714Y-114725669D01*
X141682572Y-114736603D01*
X141725584Y-114739032D01*
X141725805Y-114739031D01*
X141778026Y-114734140D01*
X141823567Y-114722333D01*
X141831015Y-114719031D01*
X141859557Y-114696116D01*
X141869670Y-114659506D01*
X141870092Y-114645015D01*
X141867209Y-114608134D01*
X141852193Y-114591841D01*
X141816435Y-114585658D01*
X141735424Y-114585402D01*
X141680051Y-114602379D01*
X141650566Y-114636413D01*
X141647219Y-114687331D01*
X141550058Y-114687331D01*
X141549662Y-114678727D01*
X141551550Y-114627962D01*
G37*
G36*
X142400470Y-114225779D02*
G01*
X142448581Y-114232964D01*
X142475602Y-114247085D01*
X142486538Y-114270009D01*
X142487544Y-114283884D01*
X142487580Y-114325046D01*
X142371502Y-114319945D01*
X142311157Y-114318133D01*
X142274288Y-114320360D01*
X142253199Y-114328278D01*
X142240197Y-114343536D01*
X142237275Y-114348755D01*
X142222286Y-114393621D01*
X142232330Y-114429669D01*
X142269407Y-114459506D01*
X142335520Y-114485742D01*
X142344477Y-114488468D01*
X142417655Y-114513763D01*
X142464893Y-114540794D01*
X142491316Y-114574777D01*
X142502052Y-114620927D01*
X142503138Y-114649880D01*
X142494603Y-114730411D01*
X142468579Y-114786039D01*
X142430341Y-114815692D01*
X142391173Y-114825055D01*
X142331397Y-114829821D01*
X142261361Y-114829745D01*
X142191414Y-114824581D01*
X142170985Y-114821850D01*
X142138989Y-114810783D01*
X142128416Y-114784142D01*
X142128000Y-114772070D01*
X142128000Y-114728800D01*
X142252481Y-114736007D01*
X142314515Y-114739161D01*
X142352730Y-114738578D01*
X142374510Y-114732457D01*
X142387236Y-114718997D01*
X142396220Y-114700946D01*
X142406688Y-114662700D01*
X142396567Y-114631974D01*
X142362655Y-114605119D01*
X142301748Y-114578487D01*
X142282814Y-114571742D01*
X142210257Y-114542151D01*
X142163773Y-114509855D01*
X142138340Y-114468930D01*
X142128934Y-114413453D01*
X142128497Y-114389745D01*
X142136495Y-114318764D01*
X142161666Y-114269563D01*
X142207310Y-114239372D01*
X142276728Y-114225418D01*
X142326265Y-114223659D01*
X142400470Y-114225779D01*
G37*
G36*
X143521027Y-114627962D02*
G01*
X143525817Y-114587630D01*
X143528848Y-114575839D01*
X143558349Y-114541476D01*
X143614712Y-114517891D01*
X143695118Y-114506045D01*
X143737193Y-114504800D01*
X143847385Y-114504800D01*
X143847385Y-114445755D01*
X143840649Y-114396082D01*
X143824225Y-114353843D01*
X143822152Y-114350685D01*
X143807174Y-114332860D01*
X143788098Y-114322563D01*
X143757247Y-114318227D01*
X143706945Y-114318282D01*
X143669752Y-114319557D01*
X143607080Y-114321614D01*
X143569088Y-114320656D01*
X143549219Y-114314915D01*
X143540916Y-114302620D01*
X143537849Y-114283945D01*
X143538457Y-114256814D01*
X143554107Y-114242503D01*
X143592557Y-114233613D01*
X143698115Y-114223586D01*
X143788530Y-114229892D01*
X143860030Y-114251650D01*
X143908844Y-114287978D01*
X143923373Y-114310904D01*
X143930670Y-114343402D01*
X143936271Y-114402489D01*
X143939871Y-114483520D01*
X143941169Y-114581854D01*
X143941169Y-114817415D01*
X143903015Y-114817415D01*
X143870173Y-114812014D01*
X143855781Y-114802725D01*
X143836156Y-114798153D01*
X143798323Y-114808323D01*
X143792838Y-114810540D01*
X143719142Y-114830794D01*
X143647367Y-114832118D01*
X143586625Y-114815125D01*
X143557505Y-114794680D01*
X143532301Y-114761465D01*
X143521051Y-114720294D01*
X143519534Y-114687331D01*
X143616696Y-114687331D01*
X143619625Y-114701313D01*
X143630191Y-114725669D01*
X143652049Y-114736603D01*
X143695061Y-114739032D01*
X143695282Y-114739031D01*
X143747503Y-114734140D01*
X143793044Y-114722333D01*
X143800492Y-114719031D01*
X143829034Y-114696116D01*
X143839147Y-114659506D01*
X143839569Y-114645015D01*
X143836686Y-114608134D01*
X143821670Y-114591841D01*
X143785912Y-114585658D01*
X143704901Y-114585402D01*
X143649528Y-114602379D01*
X143620043Y-114636413D01*
X143616696Y-114687331D01*
X143519534Y-114687331D01*
X143519138Y-114678727D01*
X143521027Y-114627962D01*
G37*
G36*
X144369947Y-114225779D02*
G01*
X144418058Y-114232964D01*
X144445079Y-114247085D01*
X144456015Y-114270009D01*
X144457021Y-114283884D01*
X144457057Y-114325046D01*
X144340979Y-114319945D01*
X144280634Y-114318133D01*
X144243765Y-114320360D01*
X144222676Y-114328278D01*
X144209674Y-114343536D01*
X144206752Y-114348755D01*
X144191763Y-114393621D01*
X144201807Y-114429669D01*
X144238884Y-114459506D01*
X144304997Y-114485742D01*
X144313954Y-114488468D01*
X144387132Y-114513763D01*
X144434370Y-114540794D01*
X144460793Y-114574777D01*
X144471529Y-114620927D01*
X144472615Y-114649880D01*
X144464079Y-114730411D01*
X144438056Y-114786039D01*
X144399818Y-114815692D01*
X144360650Y-114825055D01*
X144300873Y-114829821D01*
X144230838Y-114829745D01*
X144160891Y-114824581D01*
X144140462Y-114821850D01*
X144108466Y-114810783D01*
X144097893Y-114784142D01*
X144097477Y-114772070D01*
X144097477Y-114728800D01*
X144221958Y-114736007D01*
X144283992Y-114739161D01*
X144322207Y-114738578D01*
X144343987Y-114732457D01*
X144356713Y-114718997D01*
X144365697Y-114700946D01*
X144376164Y-114662700D01*
X144366044Y-114631974D01*
X144332132Y-114605119D01*
X144271225Y-114578487D01*
X144252291Y-114571742D01*
X144179734Y-114542151D01*
X144133250Y-114509855D01*
X144107817Y-114468930D01*
X144098411Y-114413453D01*
X144097974Y-114389745D01*
X144105972Y-114318764D01*
X144131143Y-114269563D01*
X144176787Y-114239372D01*
X144246205Y-114225418D01*
X144295742Y-114223659D01*
X144369947Y-114225779D01*
G37*
G36*
X146114582Y-114021737D02*
G01*
X146192970Y-114029802D01*
X146229737Y-114038619D01*
X146243405Y-114053802D01*
X146242446Y-114081273D01*
X146236244Y-114123532D01*
X146100756Y-114117054D01*
X146032583Y-114114731D01*
X145987412Y-114116419D01*
X145957115Y-114123290D01*
X145933559Y-114136514D01*
X145926234Y-114142184D01*
X145911715Y-114154820D01*
X145901333Y-114168862D01*
X145894394Y-114189365D01*
X145890206Y-114221384D01*
X145888073Y-114269976D01*
X145887302Y-114340197D01*
X145887200Y-114426646D01*
X145887336Y-114520808D01*
X145888206Y-114588764D01*
X145890503Y-114635571D01*
X145894923Y-114666283D01*
X145902157Y-114685957D01*
X145912901Y-114699649D01*
X145926234Y-114711108D01*
X145949349Y-114726576D01*
X145976645Y-114735322D01*
X146016252Y-114738517D01*
X146076299Y-114737332D01*
X146100756Y-114736238D01*
X146236244Y-114729760D01*
X146242475Y-114772216D01*
X146242341Y-114803454D01*
X146223811Y-114818538D01*
X146202768Y-114823859D01*
X146141713Y-114831042D01*
X146068857Y-114832391D01*
X145995533Y-114828427D01*
X145933073Y-114819672D01*
X145899231Y-114809872D01*
X145860893Y-114789719D01*
X145832130Y-114764170D01*
X145811621Y-114728769D01*
X145798049Y-114679064D01*
X145790094Y-114610601D01*
X145786436Y-114518926D01*
X145785717Y-114426646D01*
X145786898Y-114313316D01*
X145791344Y-114226746D01*
X145800409Y-114162493D01*
X145815446Y-114116114D01*
X145837808Y-114083165D01*
X145868850Y-114059204D01*
X145902671Y-114042752D01*
X145957744Y-114028646D01*
X146032139Y-114021473D01*
X146114582Y-114021737D01*
G37*
G36*
X138468045Y-114243731D02*
G01*
X138473122Y-114273906D01*
X138472022Y-114300890D01*
X138457412Y-114324423D01*
X138423555Y-114351874D01*
X138400062Y-114367765D01*
X138321908Y-114419213D01*
X138313158Y-114817415D01*
X138220308Y-114817415D01*
X138220308Y-114239077D01*
X138267200Y-114239077D01*
X138301524Y-114243990D01*
X138313609Y-114262269D01*
X138314092Y-114270338D01*
X138315784Y-114292349D01*
X138324842Y-114298948D01*
X138347240Y-114289368D01*
X138388952Y-114262845D01*
X138392899Y-114260236D01*
X138430473Y-114237344D01*
X138456031Y-114225453D01*
X138461716Y-114225183D01*
X138468045Y-114243731D01*
G37*
G36*
X140593830Y-114243731D02*
G01*
X140598906Y-114273906D01*
X140597807Y-114300890D01*
X140583196Y-114324423D01*
X140549339Y-114351874D01*
X140525846Y-114367765D01*
X140447692Y-114419213D01*
X140443318Y-114618314D01*
X140438943Y-114817415D01*
X140346092Y-114817415D01*
X140346092Y-114239077D01*
X140392985Y-114239077D01*
X140427308Y-114243990D01*
X140439393Y-114262269D01*
X140439877Y-114270338D01*
X140441569Y-114292349D01*
X140450626Y-114298948D01*
X140473024Y-114289368D01*
X140514737Y-114262845D01*
X140518684Y-114260236D01*
X140556258Y-114237344D01*
X140581816Y-114225453D01*
X140587501Y-114225183D01*
X140593830Y-114243731D01*
G37*
G36*
X140799385Y-114817415D02*
G01*
X140705600Y-114817415D01*
X140705600Y-114239077D01*
X140799385Y-114239077D01*
X140799385Y-114817415D01*
G37*
G36*
X143299630Y-114242163D02*
G01*
X143315938Y-114254708D01*
X143327418Y-114268390D01*
X143335697Y-114286206D01*
X143341291Y-114313070D01*
X143344718Y-114353892D01*
X143346496Y-114413587D01*
X143347141Y-114497066D01*
X143347200Y-114551692D01*
X143347200Y-114817415D01*
X143253415Y-114817415D01*
X143253415Y-114584868D01*
X143252750Y-114485233D01*
X143249787Y-114412983D01*
X143243082Y-114364252D01*
X143231187Y-114335175D01*
X143212656Y-114321886D01*
X143186040Y-114320521D01*
X143156426Y-114325750D01*
X143104421Y-114341116D01*
X143054186Y-114361289D01*
X143003323Y-114385544D01*
X143003323Y-114817415D01*
X142909538Y-114817415D01*
X142909538Y-114239077D01*
X142945489Y-114239077D01*
X142981283Y-114245957D01*
X142998326Y-114255963D01*
X143020931Y-114263541D01*
X143062619Y-114256125D01*
X143087967Y-114248147D01*
X143172765Y-114227322D01*
X143245069Y-114225377D01*
X143299630Y-114242163D01*
G37*
G36*
X145379200Y-114129661D02*
G01*
X145144738Y-114129661D01*
X145144738Y-114817415D01*
X145050954Y-114817415D01*
X145050954Y-114129661D01*
X144816492Y-114129661D01*
X144816492Y-114035877D01*
X145379200Y-114035877D01*
X145379200Y-114129661D01*
G37*
G36*
X145598031Y-114817415D02*
G01*
X145504246Y-114817415D01*
X145504246Y-114035877D01*
X145598031Y-114035877D01*
X145598031Y-114817415D01*
G37*
G36*
X159111362Y-113679828D02*
G01*
X159163365Y-113684271D01*
X159181169Y-113687539D01*
X159213771Y-113697857D01*
X159229891Y-113712966D01*
X159235325Y-113742553D01*
X159235877Y-113778963D01*
X159235877Y-113856123D01*
X159085435Y-113850618D01*
X158993089Y-113850098D01*
X158926586Y-113857040D01*
X158881179Y-113872465D01*
X158852119Y-113897396D01*
X158849255Y-113901448D01*
X158845346Y-113922262D01*
X158841978Y-113968634D01*
X158839399Y-114034863D01*
X158837857Y-114115247D01*
X158837532Y-114170223D01*
X158837720Y-114265037D01*
X158838865Y-114333609D01*
X158841518Y-114380957D01*
X158846233Y-114412099D01*
X158853565Y-114432052D01*
X158864066Y-114445833D01*
X158868395Y-114449949D01*
X158912065Y-114472337D01*
X158977561Y-114484496D01*
X159056904Y-114485630D01*
X159134277Y-114476438D01*
X159182343Y-114468845D01*
X159216261Y-114465776D01*
X159226609Y-114466955D01*
X159232562Y-114484851D01*
X159240259Y-114522830D01*
X159243689Y-114543854D01*
X159247625Y-114596076D01*
X159239010Y-114625931D01*
X159233462Y-114631850D01*
X159207734Y-114640514D01*
X159158605Y-114647399D01*
X159093897Y-114652276D01*
X159021432Y-114654916D01*
X158949032Y-114655090D01*
X158884520Y-114652571D01*
X158835717Y-114647130D01*
X158821662Y-114643881D01*
X158771991Y-114621218D01*
X158725088Y-114588388D01*
X158722044Y-114585631D01*
X158692614Y-114555516D01*
X158670521Y-114524071D01*
X158654735Y-114486375D01*
X158644228Y-114437504D01*
X158637971Y-114372539D01*
X158634937Y-114286555D01*
X158634096Y-114174632D01*
X158634092Y-114164737D01*
X158634360Y-114063540D01*
X158635531Y-113988144D01*
X158638157Y-113933088D01*
X158642790Y-113892915D01*
X158649981Y-113862164D01*
X158660284Y-113835376D01*
X158669262Y-113816808D01*
X158702445Y-113763470D01*
X158743020Y-113725705D01*
X158796830Y-113700836D01*
X158869715Y-113686186D01*
X158967517Y-113679078D01*
X158970038Y-113678985D01*
X159043569Y-113677931D01*
X159111362Y-113679828D01*
G37*
G36*
X161166407Y-113679443D02*
G01*
X161237599Y-113683643D01*
X161297477Y-113689540D01*
X161338978Y-113696292D01*
X161354364Y-113701896D01*
X161361775Y-113726113D01*
X161361902Y-113769558D01*
X161359689Y-113790311D01*
X161349673Y-113863385D01*
X161191544Y-113853986D01*
X161118680Y-113850188D01*
X161069619Y-113849767D01*
X161037001Y-113853635D01*
X161013465Y-113862701D01*
X160991651Y-113877874D01*
X160990431Y-113878843D01*
X160947446Y-113913100D01*
X160947446Y-114160326D01*
X160947710Y-114268291D01*
X160950403Y-114348919D01*
X160958379Y-114406131D01*
X160974489Y-114443846D01*
X161001587Y-114465987D01*
X161042524Y-114476474D01*
X161100154Y-114479228D01*
X161177329Y-114478170D01*
X161178665Y-114478145D01*
X161349788Y-114474936D01*
X161359684Y-114547130D01*
X161364128Y-114591326D01*
X161364082Y-114620809D01*
X161362332Y-114626570D01*
X161335462Y-114638125D01*
X161285160Y-114647407D01*
X161219200Y-114654034D01*
X161145356Y-114657624D01*
X161071401Y-114657794D01*
X161005108Y-114654161D01*
X160955262Y-114646591D01*
X160883529Y-114620945D01*
X160824845Y-114577975D01*
X160806769Y-114559684D01*
X160767692Y-114517912D01*
X160767692Y-113819099D01*
X160813335Y-113771458D01*
X160861878Y-113729468D01*
X160917207Y-113700954D01*
X160985455Y-113684318D01*
X161072753Y-113677962D01*
X161166407Y-113679443D01*
G37*
G36*
X161465036Y-114149418D02*
G01*
X161465725Y-114112325D01*
X161468182Y-114018729D01*
X161471272Y-113950561D01*
X161475801Y-113901987D01*
X161482573Y-113867173D01*
X161492393Y-113840286D01*
X161506064Y-113815492D01*
X161506840Y-113814241D01*
X161565387Y-113749296D01*
X161647423Y-113704802D01*
X161752708Y-113680862D01*
X161834664Y-113676369D01*
X161949249Y-113683896D01*
X162040157Y-113707553D01*
X162111398Y-113748957D01*
X162166982Y-113809721D01*
X162167461Y-113810414D01*
X162213538Y-113877386D01*
X162213538Y-114162366D01*
X162213363Y-114263774D01*
X162212450Y-114339188D01*
X162210215Y-114393875D01*
X162206077Y-114433101D01*
X162199453Y-114462133D01*
X162189760Y-114486238D01*
X162176416Y-114510683D01*
X162174682Y-114513648D01*
X162124163Y-114575976D01*
X162055079Y-114619604D01*
X161964279Y-114645970D01*
X161862492Y-114656087D01*
X161762163Y-114654478D01*
X161680925Y-114642238D01*
X161664443Y-114637561D01*
X161588208Y-114599127D01*
X161525720Y-114540620D01*
X161483661Y-114469470D01*
X161470773Y-114422250D01*
X161467435Y-114381950D01*
X161465284Y-114317989D01*
X161464629Y-114255651D01*
X161668902Y-114255651D01*
X161670490Y-114333464D01*
X161675630Y-114389107D01*
X161685216Y-114427099D01*
X161700143Y-114451962D01*
X161721306Y-114468215D01*
X161733914Y-114474274D01*
X161780347Y-114484489D01*
X161840485Y-114485462D01*
X161902401Y-114478363D01*
X161954164Y-114464359D01*
X161978857Y-114450292D01*
X161990772Y-114437744D01*
X161999200Y-114421799D01*
X162004626Y-114397485D01*
X162007535Y-114359825D01*
X162008411Y-114303848D01*
X162007740Y-114224578D01*
X162006796Y-114163742D01*
X162005101Y-114068684D01*
X162003142Y-113999908D01*
X162000139Y-113952441D01*
X161995310Y-113921306D01*
X161987874Y-113901531D01*
X161977052Y-113888139D01*
X161962061Y-113876157D01*
X161961595Y-113875810D01*
X161910048Y-113853243D01*
X161844022Y-113845029D01*
X161776789Y-113851134D01*
X161721625Y-113871523D01*
X161714342Y-113876452D01*
X161699216Y-113888647D01*
X161688379Y-113902471D01*
X161681002Y-113923050D01*
X161676259Y-113955508D01*
X161673319Y-114004971D01*
X161671357Y-114076564D01*
X161669971Y-114151146D01*
X161668902Y-114255651D01*
X161464629Y-114255651D01*
X161464443Y-114237951D01*
X161465036Y-114149418D01*
G37*
G36*
X157410985Y-113691043D02*
G01*
X157512632Y-113691149D01*
X157603975Y-113691270D01*
X157680308Y-113691397D01*
X157736925Y-113691521D01*
X157769119Y-113691635D01*
X157774400Y-113691681D01*
X157783350Y-113705927D01*
X157789005Y-113741971D01*
X157790031Y-113769545D01*
X157790031Y-113847090D01*
X157653262Y-113851607D01*
X157516492Y-113856123D01*
X157508140Y-114645477D01*
X157321644Y-114645477D01*
X157313292Y-113856123D01*
X157063200Y-113852113D01*
X157063200Y-113690724D01*
X157410985Y-113691043D01*
G37*
G36*
X158196431Y-113689707D02*
G01*
X158485600Y-113689712D01*
X158485600Y-113851074D01*
X158290215Y-113853599D01*
X158094831Y-113856123D01*
X158094831Y-114073256D01*
X158254493Y-114068968D01*
X158342015Y-114067225D01*
X158403063Y-114068807D01*
X158442397Y-114075685D01*
X158464775Y-114089833D01*
X158474956Y-114113221D01*
X158477700Y-114147823D01*
X158477785Y-114161495D01*
X158477785Y-114238115D01*
X158286308Y-114242503D01*
X158094831Y-114246892D01*
X158090238Y-114360215D01*
X158085646Y-114473538D01*
X158288228Y-114473538D01*
X158374864Y-114474735D01*
X158440861Y-114478138D01*
X158482526Y-114483465D01*
X158496111Y-114489442D01*
X158498180Y-114513744D01*
X158497134Y-114556142D01*
X158495840Y-114575411D01*
X158490268Y-114645477D01*
X157898994Y-114645477D01*
X157907262Y-113689703D01*
X158196431Y-113689707D01*
G37*
G36*
X160095569Y-113687376D02*
G01*
X160142986Y-113689083D01*
X160176753Y-113690505D01*
X160185446Y-113691002D01*
X160188360Y-113706256D01*
X160191010Y-113748971D01*
X160193303Y-113815348D01*
X160195145Y-113901587D01*
X160196443Y-114003888D01*
X160197104Y-114118452D01*
X160197169Y-114168738D01*
X160197169Y-114645477D01*
X160068215Y-114645301D01*
X159939262Y-114645126D01*
X159767323Y-114306302D01*
X159595385Y-113967479D01*
X159591172Y-114306478D01*
X159586960Y-114645477D01*
X159493480Y-114645477D01*
X159443755Y-114643098D01*
X159409849Y-114636897D01*
X159399752Y-114629846D01*
X159398930Y-114555561D01*
X159398505Y-114465660D01*
X159398440Y-114364655D01*
X159398698Y-114257055D01*
X159399245Y-114147373D01*
X159400045Y-114040120D01*
X159401061Y-113939808D01*
X159402258Y-113850948D01*
X159403600Y-113778051D01*
X159405050Y-113725629D01*
X159406574Y-113698193D01*
X159407182Y-113695238D01*
X159427918Y-113689864D01*
X159469727Y-113687277D01*
X159522572Y-113687229D01*
X159576411Y-113689469D01*
X159621206Y-113693748D01*
X159646918Y-113699816D01*
X159648917Y-113701255D01*
X159659957Y-113719120D01*
X159682688Y-113760185D01*
X159714613Y-113819793D01*
X159753239Y-113893287D01*
X159794705Y-113973354D01*
X159839757Y-114060838D01*
X159882570Y-114143775D01*
X159920017Y-114216122D01*
X159948972Y-114271837D01*
X159964569Y-114301600D01*
X160001785Y-114371938D01*
X160009600Y-114028343D01*
X160017415Y-113684747D01*
X160095569Y-113687376D01*
G37*
G36*
X160478523Y-113687219D02*
G01*
X160528273Y-113689052D01*
X160564696Y-113690534D01*
X160576445Y-113691127D01*
X160579296Y-113706346D01*
X160581635Y-113749010D01*
X160583399Y-113815304D01*
X160584525Y-113901417D01*
X160584951Y-114003533D01*
X160584612Y-114117839D01*
X160584260Y-114164831D01*
X160580123Y-114637661D01*
X160482204Y-114642321D01*
X160384284Y-114646980D01*
X160388419Y-114165582D01*
X160392554Y-113684185D01*
X160478523Y-113687219D01*
G37*
G36*
X140781327Y-114022285D02*
G01*
X140794984Y-114034058D01*
X140799120Y-114064049D01*
X140799385Y-114090585D01*
X140798025Y-114133837D01*
X140790177Y-114154322D01*
X140770183Y-114160525D01*
X140752492Y-114160923D01*
X140723657Y-114158884D01*
X140710000Y-114147111D01*
X140705865Y-114117120D01*
X140705600Y-114090585D01*
X140706959Y-114047332D01*
X140714808Y-114026847D01*
X140734802Y-114020644D01*
X140752492Y-114020246D01*
X140781327Y-114022285D01*
G37*
G36*
X158319138Y-113423480D02*
G01*
X158339877Y-113453627D01*
X158356359Y-113488559D01*
X158361804Y-113515744D01*
X158360333Y-113520419D01*
X158341401Y-113537023D01*
X158304346Y-113561640D01*
X158258916Y-113588618D01*
X158214856Y-113612310D01*
X158181912Y-113627065D01*
X158172447Y-113629330D01*
X158154250Y-113617240D01*
X158131582Y-113587587D01*
X158129462Y-113584080D01*
X158111274Y-113551399D01*
X158102737Y-113532334D01*
X158102646Y-113531594D01*
X158114940Y-113520048D01*
X158146311Y-113498388D01*
X158188493Y-113471655D01*
X158233223Y-113444893D01*
X158272235Y-113423141D01*
X158297264Y-113411443D01*
X158300924Y-113410646D01*
X158319138Y-113423480D01*
G37*
G36*
X137237458Y-113189931D02*
G01*
X137242248Y-113149600D01*
X137245279Y-113137808D01*
X137274780Y-113103445D01*
X137331143Y-113079860D01*
X137411549Y-113068015D01*
X137453624Y-113066769D01*
X137563815Y-113066769D01*
X137563815Y-113007724D01*
X137557080Y-112958051D01*
X137540655Y-112915812D01*
X137538582Y-112912654D01*
X137523605Y-112894829D01*
X137504529Y-112884533D01*
X137473678Y-112880196D01*
X137423376Y-112880251D01*
X137386182Y-112881526D01*
X137323511Y-112883583D01*
X137285519Y-112882626D01*
X137265650Y-112876885D01*
X137257346Y-112864589D01*
X137254280Y-112845915D01*
X137254888Y-112818783D01*
X137270538Y-112804472D01*
X137308987Y-112795582D01*
X137414545Y-112785556D01*
X137504960Y-112791862D01*
X137576461Y-112813619D01*
X137625275Y-112849947D01*
X137639803Y-112872873D01*
X137647101Y-112905372D01*
X137652701Y-112964458D01*
X137656302Y-113045489D01*
X137657600Y-113143823D01*
X137657600Y-113379385D01*
X137619446Y-113379385D01*
X137586604Y-113373983D01*
X137572212Y-113364694D01*
X137552586Y-113360122D01*
X137514754Y-113370292D01*
X137509268Y-113372509D01*
X137435573Y-113392763D01*
X137363798Y-113394087D01*
X137303055Y-113377094D01*
X137273936Y-113356649D01*
X137248732Y-113323435D01*
X137237482Y-113282263D01*
X137235965Y-113249301D01*
X137333127Y-113249301D01*
X137336056Y-113263282D01*
X137346622Y-113287638D01*
X137368480Y-113298572D01*
X137411492Y-113301001D01*
X137411713Y-113301000D01*
X137463934Y-113296110D01*
X137509475Y-113284302D01*
X137516923Y-113281000D01*
X137545464Y-113258085D01*
X137555578Y-113221475D01*
X137556000Y-113206984D01*
X137553117Y-113170104D01*
X137538100Y-113153810D01*
X137502342Y-113147627D01*
X137421332Y-113147372D01*
X137365959Y-113164348D01*
X137336473Y-113198383D01*
X137333127Y-113249301D01*
X137235965Y-113249301D01*
X137235569Y-113240696D01*
X137237458Y-113189931D01*
G37*
G36*
X139107102Y-112672535D02*
G01*
X139110989Y-112701870D01*
X139111262Y-112729669D01*
X139111262Y-112801046D01*
X139198903Y-112801046D01*
X139248744Y-112802387D01*
X139273427Y-112807681D01*
X139278986Y-112818840D01*
X139277057Y-112825771D01*
X139268640Y-112854991D01*
X139267569Y-112863991D01*
X139253542Y-112872762D01*
X139217861Y-112879915D01*
X139193323Y-112882251D01*
X139119077Y-112887015D01*
X139114701Y-113076907D01*
X139113892Y-113170607D01*
X139117568Y-113237072D01*
X139127373Y-113280200D01*
X139144951Y-113303890D01*
X139171946Y-113312039D01*
X139210002Y-113308545D01*
X139212227Y-113308134D01*
X139248343Y-113304647D01*
X139265768Y-113315799D01*
X139272593Y-113334385D01*
X139277682Y-113360861D01*
X139271412Y-113376296D01*
X139247637Y-113384712D01*
X139200205Y-113390130D01*
X139185490Y-113391360D01*
X139130373Y-113392864D01*
X139092511Y-113384294D01*
X139060462Y-113364156D01*
X139017477Y-113330223D01*
X139017477Y-112879200D01*
X138962769Y-112879200D01*
X138925773Y-112876280D01*
X138910627Y-112863142D01*
X138908062Y-112840123D01*
X138912242Y-112813538D01*
X138930944Y-112802775D01*
X138961870Y-112801046D01*
X138995752Y-112799072D01*
X139012114Y-112787331D01*
X139018656Y-112757097D01*
X139020486Y-112734615D01*
X139025830Y-112692212D01*
X139037847Y-112671754D01*
X139062772Y-112663929D01*
X139068277Y-112663239D01*
X139094548Y-112662259D01*
X139107102Y-112672535D01*
G37*
G36*
X139413998Y-112905285D02*
G01*
X139443917Y-112846740D01*
X139489488Y-112809242D01*
X139552838Y-112789856D01*
X139618492Y-112785415D01*
X139700879Y-112795559D01*
X139762042Y-112826899D01*
X139803142Y-112880799D01*
X139825338Y-112958624D01*
X139830277Y-113034477D01*
X139830277Y-113128235D01*
X139662246Y-113132671D01*
X139494215Y-113137108D01*
X139496241Y-113198464D01*
X139502207Y-113244915D01*
X139519673Y-113275443D01*
X139553469Y-113292538D01*
X139608423Y-113298686D01*
X139686569Y-113296541D01*
X139816399Y-113288950D01*
X139811615Y-113329641D01*
X139795136Y-113366674D01*
X139767754Y-113381116D01*
X139711880Y-113390081D01*
X139642418Y-113392484D01*
X139571981Y-113388733D01*
X139513182Y-113379240D01*
X139491319Y-113372137D01*
X139450639Y-113347619D01*
X139422235Y-113311962D01*
X139404302Y-113260142D01*
X139395037Y-113187131D01*
X139392615Y-113097261D01*
X139396167Y-113019375D01*
X139486400Y-113019375D01*
X139488896Y-113035191D01*
X139500584Y-113044669D01*
X139527766Y-113049409D01*
X139576743Y-113051013D01*
X139611446Y-113051138D01*
X139736492Y-113051138D01*
X139736492Y-113003218D01*
X139723958Y-112938001D01*
X139689159Y-112892409D01*
X139636302Y-112869872D01*
X139576020Y-112872299D01*
X139536396Y-112895461D01*
X139505086Y-112940147D01*
X139487964Y-112996714D01*
X139486400Y-113019375D01*
X139396167Y-113019375D01*
X139397607Y-112987814D01*
X139413998Y-112905285D01*
G37*
G36*
X140957581Y-113189931D02*
G01*
X140962371Y-113149600D01*
X140965402Y-113137808D01*
X140994903Y-113103445D01*
X141051266Y-113079860D01*
X141131672Y-113068015D01*
X141173747Y-113066769D01*
X141283938Y-113066769D01*
X141283938Y-113007724D01*
X141277203Y-112958051D01*
X141260778Y-112915812D01*
X141258705Y-112912654D01*
X141243728Y-112894829D01*
X141224652Y-112884533D01*
X141193801Y-112880196D01*
X141143499Y-112880251D01*
X141106305Y-112881526D01*
X141043634Y-112883583D01*
X141005642Y-112882626D01*
X140985773Y-112876885D01*
X140977470Y-112864589D01*
X140974403Y-112845915D01*
X140975011Y-112818783D01*
X140990661Y-112804472D01*
X141029111Y-112795582D01*
X141134668Y-112785556D01*
X141225083Y-112791862D01*
X141296584Y-112813619D01*
X141345398Y-112849947D01*
X141359927Y-112872873D01*
X141367224Y-112905372D01*
X141372824Y-112964458D01*
X141376425Y-113045489D01*
X141377723Y-113143823D01*
X141377723Y-113379385D01*
X141339569Y-113379385D01*
X141306727Y-113373983D01*
X141292335Y-113364694D01*
X141272710Y-113360122D01*
X141234877Y-113370292D01*
X141229391Y-113372509D01*
X141155696Y-113392763D01*
X141083921Y-113394087D01*
X141023178Y-113377094D01*
X140994059Y-113356649D01*
X140968855Y-113323435D01*
X140957605Y-113282263D01*
X140956088Y-113249301D01*
X141053250Y-113249301D01*
X141056179Y-113263282D01*
X141066745Y-113287638D01*
X141088603Y-113298572D01*
X141131615Y-113301001D01*
X141131836Y-113301000D01*
X141184057Y-113296110D01*
X141229598Y-113284302D01*
X141237046Y-113281000D01*
X141265588Y-113258085D01*
X141275701Y-113221475D01*
X141276123Y-113206984D01*
X141273240Y-113170104D01*
X141258223Y-113153810D01*
X141222465Y-113147627D01*
X141141455Y-113147372D01*
X141086082Y-113164348D01*
X141056597Y-113198383D01*
X141053250Y-113249301D01*
X140956088Y-113249301D01*
X140955692Y-113240696D01*
X140957581Y-113189931D01*
G37*
G36*
X141836066Y-112791674D02*
G01*
X141866409Y-112807346D01*
X141877629Y-112833933D01*
X141877908Y-112840421D01*
X141876244Y-112860746D01*
X141866696Y-112872345D01*
X141842426Y-112877661D01*
X141796595Y-112879137D01*
X141769379Y-112879200D01*
X141706081Y-112881576D01*
X141662414Y-112891920D01*
X141634786Y-112915053D01*
X141619606Y-112955796D01*
X141613281Y-113018970D01*
X141612185Y-113090215D01*
X141613955Y-113175186D01*
X141621661Y-113233804D01*
X141638893Y-113270891D01*
X141669244Y-113291269D01*
X141716305Y-113299758D01*
X141769379Y-113301231D01*
X141826288Y-113301865D01*
X141858768Y-113305338D01*
X141873647Y-113314001D01*
X141877752Y-113330210D01*
X141877908Y-113338635D01*
X141868686Y-113371258D01*
X141853183Y-113385528D01*
X141809606Y-113393537D01*
X141748765Y-113394608D01*
X141683684Y-113389534D01*
X141627389Y-113379108D01*
X141602539Y-113370267D01*
X141569850Y-113349795D01*
X141546670Y-113322339D01*
X141531476Y-113282675D01*
X141522743Y-113225576D01*
X141518945Y-113145815D01*
X141518400Y-113081911D01*
X141518683Y-113002629D01*
X141520370Y-112947939D01*
X141524717Y-112911173D01*
X141532982Y-112885661D01*
X141546422Y-112864736D01*
X141562969Y-112845443D01*
X141592768Y-112816501D01*
X141624148Y-112800148D01*
X141668750Y-112791666D01*
X141703076Y-112788651D01*
X141782866Y-112785811D01*
X141836066Y-112791674D01*
G37*
G36*
X142297765Y-112927657D02*
G01*
X142317864Y-112877394D01*
X142349787Y-112839699D01*
X142382759Y-112816044D01*
X142450239Y-112791338D01*
X142518769Y-112785532D01*
X142604074Y-112795101D01*
X142654780Y-112816044D01*
X142696991Y-112848308D01*
X142725742Y-112888585D01*
X142743217Y-112942955D01*
X142751598Y-113017501D01*
X142753231Y-113090215D01*
X142750230Y-113183860D01*
X142739773Y-113252773D01*
X142719675Y-113303036D01*
X142687752Y-113340731D01*
X142654780Y-113364387D01*
X142587299Y-113389093D01*
X142518769Y-113394898D01*
X142433464Y-113385330D01*
X142382759Y-113364387D01*
X142340547Y-113332122D01*
X142311796Y-113291846D01*
X142294322Y-113237475D01*
X142285940Y-113162929D01*
X142284308Y-113090215D01*
X142385908Y-113090215D01*
X142388439Y-113176053D01*
X142397948Y-113235463D01*
X142417308Y-113273010D01*
X142449393Y-113293256D01*
X142497075Y-113300766D01*
X142518769Y-113301231D01*
X142574300Y-113296252D01*
X142610642Y-113279015D01*
X142621854Y-113268328D01*
X142636440Y-113247048D01*
X142645450Y-113217657D01*
X142650100Y-113172895D01*
X142651601Y-113105501D01*
X142651631Y-113090215D01*
X142649100Y-113004378D01*
X142639591Y-112944967D01*
X142620231Y-112907421D01*
X142588146Y-112887174D01*
X142540463Y-112879664D01*
X142518769Y-112879200D01*
X142464723Y-112883220D01*
X142427317Y-112898322D01*
X142403676Y-112929071D01*
X142390929Y-112980029D01*
X142386200Y-113055760D01*
X142385908Y-113090215D01*
X142284308Y-113090215D01*
X142287308Y-112996570D01*
X142297765Y-112927657D01*
G37*
G36*
X143521027Y-113189931D02*
G01*
X143525817Y-113149600D01*
X143528848Y-113137808D01*
X143558349Y-113103445D01*
X143614712Y-113079860D01*
X143695118Y-113068015D01*
X143737193Y-113066769D01*
X143847385Y-113066769D01*
X143847385Y-113007724D01*
X143840649Y-112958051D01*
X143824225Y-112915812D01*
X143822152Y-112912654D01*
X143807174Y-112894829D01*
X143788098Y-112884533D01*
X143757247Y-112880196D01*
X143706945Y-112880251D01*
X143669752Y-112881526D01*
X143607080Y-112883583D01*
X143569088Y-112882626D01*
X143549219Y-112876885D01*
X143540916Y-112864589D01*
X143537849Y-112845915D01*
X143538457Y-112818783D01*
X143554107Y-112804472D01*
X143592557Y-112795582D01*
X143698115Y-112785556D01*
X143788530Y-112791862D01*
X143860030Y-112813619D01*
X143908844Y-112849947D01*
X143923373Y-112872873D01*
X143930670Y-112905372D01*
X143936271Y-112964458D01*
X143939871Y-113045489D01*
X143941169Y-113143823D01*
X143941169Y-113379385D01*
X143903015Y-113379385D01*
X143870173Y-113373983D01*
X143855781Y-113364694D01*
X143836156Y-113360122D01*
X143798323Y-113370292D01*
X143792838Y-113372509D01*
X143719142Y-113392763D01*
X143647367Y-113394087D01*
X143586625Y-113377094D01*
X143557505Y-113356649D01*
X143532301Y-113323435D01*
X143521051Y-113282263D01*
X143519534Y-113249301D01*
X143616696Y-113249301D01*
X143619625Y-113263282D01*
X143630191Y-113287638D01*
X143652049Y-113298572D01*
X143695061Y-113301001D01*
X143695282Y-113301000D01*
X143747503Y-113296110D01*
X143793044Y-113284302D01*
X143800492Y-113281000D01*
X143829034Y-113258085D01*
X143839147Y-113221475D01*
X143839569Y-113206984D01*
X143836686Y-113170104D01*
X143821670Y-113153810D01*
X143785912Y-113147627D01*
X143704901Y-113147372D01*
X143649528Y-113164348D01*
X143620043Y-113198383D01*
X143616696Y-113249301D01*
X143519534Y-113249301D01*
X143519138Y-113240696D01*
X143521027Y-113189931D01*
G37*
G36*
X136454533Y-112597846D02*
G01*
X136557089Y-112600407D01*
X136633951Y-112609173D01*
X136690352Y-112625766D01*
X136731522Y-112651812D01*
X136762691Y-112688933D01*
X136766245Y-112694598D01*
X136778450Y-112717682D01*
X136787066Y-112744121D01*
X136792700Y-112779577D01*
X136795961Y-112829715D01*
X136797454Y-112900197D01*
X136797791Y-112988615D01*
X136797392Y-113083008D01*
X136795789Y-113151808D01*
X136792376Y-113200679D01*
X136786544Y-113235283D01*
X136777686Y-113261284D01*
X136766245Y-113282633D01*
X136735983Y-113321297D01*
X136696393Y-113348677D01*
X136642246Y-113366396D01*
X136568309Y-113376078D01*
X136469353Y-113379346D01*
X136454533Y-113379385D01*
X136282092Y-113379385D01*
X136282092Y-113285600D01*
X136375877Y-113285600D01*
X136499191Y-113285600D01*
X136567924Y-113283889D01*
X136613846Y-113277722D01*
X136645273Y-113265548D01*
X136659407Y-113255719D01*
X136673531Y-113243031D01*
X136683498Y-113228106D01*
X136690032Y-113205705D01*
X136693855Y-113170587D01*
X136695692Y-113117515D01*
X136696267Y-113041248D01*
X136696308Y-112988615D01*
X136696113Y-112897656D01*
X136695047Y-112832718D01*
X136692385Y-112788562D01*
X136687404Y-112759950D01*
X136679380Y-112741641D01*
X136667589Y-112728397D01*
X136659407Y-112721511D01*
X136632410Y-112705368D01*
X136595497Y-112696086D01*
X136540352Y-112692114D01*
X136499191Y-112691631D01*
X136375877Y-112691631D01*
X136375877Y-113285600D01*
X136282092Y-113285600D01*
X136282092Y-112597846D01*
X136454533Y-112597846D01*
G37*
G36*
X137048000Y-113379385D02*
G01*
X136954215Y-113379385D01*
X136954215Y-112801046D01*
X137048000Y-112801046D01*
X137048000Y-113379385D01*
G37*
G36*
X138173415Y-113379385D02*
G01*
X138079631Y-113379385D01*
X138079631Y-112801046D01*
X138173415Y-112801046D01*
X138173415Y-113379385D01*
G37*
G36*
X138751076Y-112804132D02*
G01*
X138767385Y-112816677D01*
X138778864Y-112830359D01*
X138787143Y-112848176D01*
X138792737Y-112875039D01*
X138796164Y-112915862D01*
X138797942Y-112975556D01*
X138798587Y-113059035D01*
X138798646Y-113113661D01*
X138798646Y-113379385D01*
X138704862Y-113379385D01*
X138704862Y-113146837D01*
X138704196Y-113047202D01*
X138701234Y-112974952D01*
X138694528Y-112926221D01*
X138682633Y-112897144D01*
X138664102Y-112883855D01*
X138637486Y-112882490D01*
X138607872Y-112887719D01*
X138555867Y-112903085D01*
X138505632Y-112923258D01*
X138454769Y-112947513D01*
X138454769Y-113379385D01*
X138360985Y-113379385D01*
X138360985Y-112801046D01*
X138396935Y-112801046D01*
X138432729Y-112807927D01*
X138449772Y-112817932D01*
X138472377Y-112825510D01*
X138514065Y-112818094D01*
X138539414Y-112810117D01*
X138624211Y-112789291D01*
X138696515Y-112787346D01*
X138751076Y-112804132D01*
G37*
G36*
X140234322Y-112805700D02*
G01*
X140239399Y-112835875D01*
X140238299Y-112862859D01*
X140223689Y-112886392D01*
X140189832Y-112913843D01*
X140166338Y-112929734D01*
X140088185Y-112981182D01*
X140083810Y-113180283D01*
X140079435Y-113379385D01*
X139986585Y-113379385D01*
X139986585Y-112801046D01*
X140033477Y-112801046D01*
X140067801Y-112805959D01*
X140079885Y-112824238D01*
X140080369Y-112832308D01*
X140082061Y-112854318D01*
X140091119Y-112860917D01*
X140113517Y-112851338D01*
X140155229Y-112824814D01*
X140159176Y-112822205D01*
X140196750Y-112799313D01*
X140222308Y-112787422D01*
X140227993Y-112787152D01*
X140234322Y-112805700D01*
G37*
G36*
X140736184Y-112804132D02*
G01*
X140752492Y-112816677D01*
X140763972Y-112830359D01*
X140772250Y-112848176D01*
X140777845Y-112875039D01*
X140781272Y-112915862D01*
X140783050Y-112975556D01*
X140783695Y-113059035D01*
X140783754Y-113113661D01*
X140783754Y-113379385D01*
X140689969Y-113379385D01*
X140689969Y-113146837D01*
X140689303Y-113047202D01*
X140686341Y-112974952D01*
X140679636Y-112926221D01*
X140667741Y-112897144D01*
X140649209Y-112883855D01*
X140622594Y-112882490D01*
X140592980Y-112887719D01*
X140540975Y-112903085D01*
X140490740Y-112923258D01*
X140439877Y-112947513D01*
X140439877Y-113379385D01*
X140346092Y-113379385D01*
X140346092Y-112801046D01*
X140382043Y-112801046D01*
X140417837Y-112807927D01*
X140434880Y-112817932D01*
X140457484Y-112825510D01*
X140499173Y-112818094D01*
X140524521Y-112810117D01*
X140609319Y-112789291D01*
X140681623Y-112787346D01*
X140736184Y-112804132D01*
G37*
G36*
X142112369Y-113379385D02*
G01*
X142018585Y-113379385D01*
X142018585Y-112801046D01*
X142112369Y-112801046D01*
X142112369Y-113379385D01*
G37*
G36*
X143299630Y-112804132D02*
G01*
X143315938Y-112816677D01*
X143327418Y-112830359D01*
X143335697Y-112848176D01*
X143341291Y-112875039D01*
X143344718Y-112915862D01*
X143346496Y-112975556D01*
X143347141Y-113059035D01*
X143347200Y-113113661D01*
X143347200Y-113379385D01*
X143253415Y-113379385D01*
X143253415Y-113146837D01*
X143252750Y-113047202D01*
X143249787Y-112974952D01*
X143243082Y-112926221D01*
X143231187Y-112897144D01*
X143212656Y-112883855D01*
X143186040Y-112882490D01*
X143156426Y-112887719D01*
X143104421Y-112903085D01*
X143054186Y-112923258D01*
X143003323Y-112947513D01*
X143003323Y-113379385D01*
X142909538Y-113379385D01*
X142909538Y-112801046D01*
X142945489Y-112801046D01*
X142981283Y-112807927D01*
X142998326Y-112817932D01*
X143020931Y-112825510D01*
X143062619Y-112818094D01*
X143087967Y-112810117D01*
X143172765Y-112789291D01*
X143245069Y-112787346D01*
X143299630Y-112804132D01*
G37*
G36*
X144186397Y-112571251D02*
G01*
X144195022Y-112587943D01*
X144200808Y-112619208D01*
X144204322Y-112668299D01*
X144206130Y-112738471D01*
X144206798Y-112832977D01*
X144206893Y-112955071D01*
X144206892Y-112972985D01*
X144206892Y-113379385D01*
X144113108Y-113379385D01*
X144113108Y-112982472D01*
X144113306Y-112859414D01*
X144114044Y-112764065D01*
X144115538Y-112692873D01*
X144118004Y-112642287D01*
X144121658Y-112608757D01*
X144126717Y-112588730D01*
X144133395Y-112578655D01*
X144137832Y-112576072D01*
X144158369Y-112568570D01*
X144174368Y-112565878D01*
X144186397Y-112571251D01*
G37*
G36*
X137029942Y-112584254D02*
G01*
X137043600Y-112596027D01*
X137047735Y-112626018D01*
X137048000Y-112652554D01*
X137046641Y-112695806D01*
X137038792Y-112716292D01*
X137018798Y-112722495D01*
X137001108Y-112722892D01*
X136972273Y-112720853D01*
X136958616Y-112709080D01*
X136954480Y-112679090D01*
X136954215Y-112652554D01*
X136955575Y-112609302D01*
X136963423Y-112588816D01*
X136983417Y-112582613D01*
X137001108Y-112582215D01*
X137029942Y-112584254D01*
G37*
G36*
X138155358Y-112584254D02*
G01*
X138169015Y-112596027D01*
X138173150Y-112626018D01*
X138173415Y-112652554D01*
X138172056Y-112695806D01*
X138164207Y-112716292D01*
X138144214Y-112722495D01*
X138126523Y-112722892D01*
X138097688Y-112720853D01*
X138084031Y-112709080D01*
X138079896Y-112679090D01*
X138079631Y-112652554D01*
X138080990Y-112609302D01*
X138088839Y-112588816D01*
X138108832Y-112582613D01*
X138126523Y-112582215D01*
X138155358Y-112584254D01*
G37*
G36*
X142094312Y-112584254D02*
G01*
X142107969Y-112596027D01*
X142112104Y-112626018D01*
X142112369Y-112652554D01*
X142111010Y-112695806D01*
X142103161Y-112716292D01*
X142083167Y-112722495D01*
X142065477Y-112722892D01*
X142036642Y-112720853D01*
X142022985Y-112709080D01*
X142018850Y-112679090D01*
X142018585Y-112652554D01*
X142019944Y-112609302D01*
X142027793Y-112588816D01*
X142047786Y-112582613D01*
X142065477Y-112582215D01*
X142094312Y-112584254D01*
G37*
G36*
X161852866Y-107654245D02*
G01*
X161911794Y-107666481D01*
X161974302Y-107683967D01*
X162032108Y-107705148D01*
X162067085Y-107722306D01*
X162119489Y-107762679D01*
X162175262Y-107818230D01*
X162226426Y-107879715D01*
X162265004Y-107937890D01*
X162278935Y-107967771D01*
X162282295Y-107982634D01*
X162285289Y-108008246D01*
X162287937Y-108046187D01*
X162290257Y-108098039D01*
X162292268Y-108165383D01*
X162293988Y-108249800D01*
X162295436Y-108352870D01*
X162296630Y-108476176D01*
X162297590Y-108621299D01*
X162298332Y-108789819D01*
X162298877Y-108983317D01*
X162299242Y-109203375D01*
X162299446Y-109451573D01*
X162299508Y-109721785D01*
X162299508Y-111417723D01*
X162257874Y-111495877D01*
X162188061Y-111596752D01*
X162098374Y-111678556D01*
X162018154Y-111725426D01*
X161963346Y-111746096D01*
X161905175Y-111757188D01*
X161831012Y-111760912D01*
X161814954Y-111760970D01*
X161700672Y-111752022D01*
X161605136Y-111723246D01*
X161520496Y-111671249D01*
X161447420Y-111602086D01*
X161420494Y-111572415D01*
X161397547Y-111545139D01*
X161378256Y-111517598D01*
X161362300Y-111487131D01*
X161349357Y-111451081D01*
X161339106Y-111406787D01*
X161331226Y-111351589D01*
X161325394Y-111282828D01*
X161321289Y-111197845D01*
X161318591Y-111093980D01*
X161316976Y-110968573D01*
X161316124Y-110818965D01*
X161315713Y-110642496D01*
X161315529Y-110511138D01*
X161315124Y-110353493D01*
X161314376Y-110205670D01*
X161313325Y-110070542D01*
X161312012Y-109950985D01*
X161310476Y-109849873D01*
X161308758Y-109770080D01*
X161306897Y-109714481D01*
X161304934Y-109685951D01*
X161304009Y-109682708D01*
X161290884Y-109694400D01*
X161263460Y-109726035D01*
X161226063Y-109772444D01*
X161192760Y-109815569D01*
X161129634Y-109896631D01*
X161078349Y-109956578D01*
X161033580Y-110000421D01*
X160990002Y-110033172D01*
X160942290Y-110059842D01*
X160924000Y-110068497D01*
X160869018Y-110089254D01*
X160810549Y-110100414D01*
X160735961Y-110104200D01*
X160720800Y-110104271D01*
X160624710Y-110098089D01*
X160540657Y-110077556D01*
X160463885Y-110039687D01*
X160389637Y-109981498D01*
X160313155Y-109900007D01*
X160235086Y-109799645D01*
X160142462Y-109672979D01*
X160134024Y-110521905D01*
X160132104Y-110715994D01*
X160130270Y-110881493D01*
X160128173Y-111021071D01*
X160125465Y-111137396D01*
X160121797Y-111233137D01*
X160116820Y-111310962D01*
X160110186Y-111373540D01*
X160101545Y-111423539D01*
X160090549Y-111463628D01*
X160076849Y-111496475D01*
X160060097Y-111524750D01*
X160039943Y-111551120D01*
X160016039Y-111578254D01*
X159992625Y-111603787D01*
X159902071Y-111681441D01*
X159797232Y-111735163D01*
X159684038Y-111763397D01*
X159568422Y-111764588D01*
X159467720Y-111741438D01*
X159354877Y-111685319D01*
X159261414Y-111604799D01*
X159226839Y-111562047D01*
X159212421Y-111542396D01*
X159199582Y-111524292D01*
X159188230Y-111505901D01*
X159178274Y-111485391D01*
X159169623Y-111460929D01*
X159162184Y-111430680D01*
X159155868Y-111392813D01*
X159150581Y-111345494D01*
X159146234Y-111286890D01*
X159142733Y-111215168D01*
X159139989Y-111128495D01*
X159137909Y-111025038D01*
X159136402Y-110902963D01*
X159135377Y-110760438D01*
X159134742Y-110595629D01*
X159134406Y-110406704D01*
X159134277Y-110191829D01*
X159134265Y-109949171D01*
X159134277Y-109706154D01*
X159134214Y-109434789D01*
X159134119Y-109192867D01*
X159134130Y-108978570D01*
X159134389Y-108790081D01*
X159135034Y-108625582D01*
X159136206Y-108483255D01*
X159138045Y-108361281D01*
X159140689Y-108257844D01*
X159144279Y-108171125D01*
X159148955Y-108099306D01*
X159154856Y-108040570D01*
X159162122Y-107993099D01*
X159170894Y-107955074D01*
X159181310Y-107924679D01*
X159193510Y-107900095D01*
X159207635Y-107879504D01*
X159223824Y-107861089D01*
X159242216Y-107843031D01*
X159262953Y-107823513D01*
X159280334Y-107806616D01*
X159370050Y-107730398D01*
X159461743Y-107681911D01*
X159562719Y-107658082D01*
X159642277Y-107654419D01*
X159719538Y-107659487D01*
X159788181Y-107674127D01*
X159851917Y-107701055D01*
X159914454Y-107742985D01*
X159979502Y-107802634D01*
X160050771Y-107882717D01*
X160131971Y-107985950D01*
X160176035Y-108045164D01*
X160244461Y-108138020D01*
X160324181Y-108245741D01*
X160407692Y-108358212D01*
X160487488Y-108465320D01*
X160533181Y-108526438D01*
X160720800Y-108776938D01*
X160892738Y-108544590D01*
X160953327Y-108462959D01*
X161013041Y-108382941D01*
X161067196Y-108310784D01*
X161111108Y-108252733D01*
X161135015Y-108221548D01*
X161173033Y-108171729D01*
X161222573Y-108105687D01*
X161276836Y-108032530D01*
X161322585Y-107970203D01*
X161398376Y-107871319D01*
X161465216Y-107796501D01*
X161528011Y-107741790D01*
X161591664Y-107703228D01*
X161661079Y-107676857D01*
X161697805Y-107667386D01*
X161760169Y-107654577D01*
X161807006Y-107650217D01*
X161852866Y-107654245D01*
G37*
G36*
X137861242Y-107623804D02*
G01*
X138077835Y-107671497D01*
X138192822Y-107709483D01*
X138349611Y-107781985D01*
X138501196Y-107879927D01*
X138641288Y-107997936D01*
X138763602Y-108130636D01*
X138861850Y-108272655D01*
X138871425Y-108289529D01*
X138892724Y-108331045D01*
X138905913Y-108368342D01*
X138912891Y-108411188D01*
X138915557Y-108469354D01*
X138915877Y-108518215D01*
X138910549Y-108624352D01*
X138892334Y-108709521D01*
X138857881Y-108782527D01*
X138803840Y-108852171D01*
X138778933Y-108878128D01*
X138686963Y-108950862D01*
X138581660Y-109001668D01*
X138470533Y-109027846D01*
X138364339Y-109027160D01*
X138243526Y-108994814D01*
X138132474Y-108932991D01*
X138031958Y-108842157D01*
X138005969Y-108811788D01*
X137936323Y-108733566D01*
X137871577Y-108680070D01*
X137804216Y-108647334D01*
X137726721Y-108631397D01*
X137657600Y-108628083D01*
X137535155Y-108640819D01*
X137428298Y-108678950D01*
X137339328Y-108740942D01*
X137270543Y-108825263D01*
X137229633Y-108913438D01*
X137223317Y-108935665D01*
X137218120Y-108963548D01*
X137213939Y-109000116D01*
X137210668Y-109048401D01*
X137208204Y-109111431D01*
X137206443Y-109192236D01*
X137205281Y-109293846D01*
X137204612Y-109419292D01*
X137204334Y-109571603D01*
X137204308Y-109649859D01*
X137204690Y-109806117D01*
X137205792Y-109951069D01*
X137207544Y-110081467D01*
X137209876Y-110194059D01*
X137212719Y-110285596D01*
X137216005Y-110352829D01*
X137219663Y-110392506D01*
X137220202Y-110395682D01*
X137251659Y-110499845D01*
X137304082Y-110582487D01*
X137380394Y-110647612D01*
X137421144Y-110671158D01*
X137528921Y-110712088D01*
X137637554Y-110722655D01*
X137750522Y-110703036D01*
X137789349Y-110689966D01*
X137874835Y-110644031D01*
X137950199Y-110577283D01*
X138010221Y-110496627D01*
X138049682Y-110408969D01*
X138063350Y-110327477D01*
X138060668Y-110299234D01*
X138045435Y-110287109D01*
X138008621Y-110284385D01*
X138005385Y-110284374D01*
X137929415Y-110279689D01*
X137846236Y-110267431D01*
X137767501Y-110249877D01*
X137704861Y-110229308D01*
X137690882Y-110222855D01*
X137610921Y-110167741D01*
X137537386Y-110091014D01*
X137479167Y-110002228D01*
X137471852Y-109987508D01*
X137450681Y-109937974D01*
X137438772Y-109893070D01*
X137434039Y-109840775D01*
X137434335Y-109771358D01*
X137451015Y-109639342D01*
X137493691Y-109524211D01*
X137561862Y-109426777D01*
X137655032Y-109347847D01*
X137717109Y-109312438D01*
X137739280Y-109301996D01*
X137761103Y-109293787D01*
X137786491Y-109287543D01*
X137819361Y-109282995D01*
X137863627Y-109279876D01*
X137923203Y-109277916D01*
X138002004Y-109276847D01*
X138103946Y-109276401D01*
X138232942Y-109276308D01*
X138697046Y-109276308D01*
X138783015Y-109317539D01*
X138893856Y-109386022D01*
X138979579Y-109472899D01*
X139039784Y-109577667D01*
X139069712Y-109676014D01*
X139076673Y-109729438D01*
X139081708Y-109807587D01*
X139084861Y-109903984D01*
X139086178Y-110012156D01*
X139085704Y-110125627D01*
X139083485Y-110237923D01*
X139079566Y-110342568D01*
X139073992Y-110433087D01*
X139066809Y-110503005D01*
X139063784Y-110522181D01*
X139010383Y-110738473D01*
X138932009Y-110935976D01*
X138828616Y-111114767D01*
X138700158Y-111274923D01*
X138546590Y-111416519D01*
X138514384Y-111441470D01*
X138386714Y-111529481D01*
X138259927Y-111598526D01*
X138125142Y-111652422D01*
X137973481Y-111694982D01*
X137876431Y-111715564D01*
X137802180Y-111725873D01*
X137710919Y-111732727D01*
X137614096Y-111735803D01*
X137523156Y-111734781D01*
X137449548Y-111729341D01*
X137438769Y-111727829D01*
X137223901Y-111681550D01*
X137029228Y-111612151D01*
X136852933Y-111518711D01*
X136693201Y-111400309D01*
X136581760Y-111293057D01*
X136496861Y-111196655D01*
X136430512Y-111106639D01*
X136375351Y-111011905D01*
X136327591Y-110909723D01*
X136298245Y-110838668D01*
X136273276Y-110770852D01*
X136252339Y-110703070D01*
X136235088Y-110632119D01*
X136221179Y-110554793D01*
X136210265Y-110467889D01*
X136202000Y-110368203D01*
X136196039Y-110252529D01*
X136192037Y-110117665D01*
X136189648Y-109960405D01*
X136188526Y-109777546D01*
X136188308Y-109618407D01*
X136188552Y-109432543D01*
X136189512Y-109274486D01*
X136191531Y-109140784D01*
X136194950Y-109027983D01*
X136200111Y-108932632D01*
X136207357Y-108851278D01*
X136217030Y-108780468D01*
X136229471Y-108716751D01*
X136245024Y-108656674D01*
X136264029Y-108596785D01*
X136286829Y-108533630D01*
X136298937Y-108501879D01*
X136373914Y-108344236D01*
X136473290Y-108191881D01*
X136592145Y-108050077D01*
X136725560Y-107924087D01*
X136868614Y-107819171D01*
X137006865Y-107744739D01*
X137217460Y-107667785D01*
X137430454Y-107621966D01*
X137645248Y-107607300D01*
X137861242Y-107623804D01*
G37*
G36*
X140963572Y-107536811D02*
G01*
X141064417Y-107568801D01*
X141156148Y-107627001D01*
X141208410Y-107674278D01*
X141256152Y-107725964D01*
X141292209Y-107776500D01*
X141318081Y-107831353D01*
X141335266Y-107895988D01*
X141345263Y-107975874D01*
X141349572Y-108076478D01*
X141349820Y-108189969D01*
X141349489Y-108242230D01*
X141349149Y-108322999D01*
X141348803Y-108429526D01*
X141348459Y-108559056D01*
X141348122Y-108708838D01*
X141347796Y-108876120D01*
X141347488Y-109058148D01*
X141347203Y-109252171D01*
X141346946Y-109455435D01*
X141346723Y-109665189D01*
X141346576Y-109831200D01*
X141346372Y-110089925D01*
X141346090Y-110319332D01*
X141345564Y-110521366D01*
X141344630Y-110697971D01*
X141343120Y-110851090D01*
X141340868Y-110982667D01*
X141337710Y-111094647D01*
X141333479Y-111188974D01*
X141328009Y-111267591D01*
X141321134Y-111332442D01*
X141312688Y-111385471D01*
X141302506Y-111428623D01*
X141290421Y-111463841D01*
X141276268Y-111493070D01*
X141259881Y-111518252D01*
X141241094Y-111541333D01*
X141219741Y-111564256D01*
X141196661Y-111587931D01*
X141105520Y-111660028D01*
X140998836Y-111708102D01*
X140882632Y-111730760D01*
X140762931Y-111726612D01*
X140680636Y-111707129D01*
X140572682Y-111655842D01*
X140480691Y-111579578D01*
X140409528Y-111482584D01*
X140397770Y-111460152D01*
X140353908Y-111370831D01*
X140357207Y-109684209D01*
X140357926Y-109382064D01*
X140358847Y-109110420D01*
X140359979Y-108868516D01*
X140361330Y-108655593D01*
X140362911Y-108470890D01*
X140364729Y-108313647D01*
X140366794Y-108183104D01*
X140369114Y-108078501D01*
X140371700Y-107999078D01*
X140374559Y-107944074D01*
X140377700Y-107912730D01*
X140378177Y-107910117D01*
X140416352Y-107793001D01*
X140479850Y-107694214D01*
X140539015Y-107636257D01*
X140634694Y-107574163D01*
X140739959Y-107538831D01*
X140846277Y-107528070D01*
X140963572Y-107536811D01*
G37*
G36*
X143345329Y-107706521D02*
G01*
X143457461Y-107707716D01*
X143596662Y-107709933D01*
X143605108Y-107710081D01*
X143765349Y-107713426D01*
X143898800Y-107717690D01*
X144009930Y-107723461D01*
X144103210Y-107731326D01*
X144183109Y-107741869D01*
X144254097Y-107755678D01*
X144320643Y-107773339D01*
X144387218Y-107795438D01*
X144456143Y-107821706D01*
X144620915Y-107902653D01*
X144775646Y-108008610D01*
X144915499Y-108135036D01*
X145035640Y-108277389D01*
X145131233Y-108431127D01*
X145153377Y-108476544D01*
X145212768Y-108641289D01*
X145248199Y-108819247D01*
X145259774Y-109003929D01*
X145247600Y-109188846D01*
X145211784Y-109367507D01*
X145152430Y-109533424D01*
X145135500Y-109569021D01*
X145066886Y-109686970D01*
X144981866Y-109803175D01*
X144887573Y-109909101D01*
X144791140Y-109996208D01*
X144758139Y-110020713D01*
X144691970Y-110066802D01*
X144742508Y-110134997D01*
X144771941Y-110174286D01*
X144814682Y-110230798D01*
X144864991Y-110296964D01*
X144916947Y-110364981D01*
X145030267Y-110513116D01*
X145125985Y-110638910D01*
X145205585Y-110744781D01*
X145270552Y-110833148D01*
X145322369Y-110906427D01*
X145362523Y-110967037D01*
X145392496Y-111017395D01*
X145413774Y-111059919D01*
X145427841Y-111097026D01*
X145436182Y-111131135D01*
X145440281Y-111164664D01*
X145441622Y-111200030D01*
X145441723Y-111219669D01*
X145431260Y-111337184D01*
X145398086Y-111437891D01*
X145339523Y-111528979D01*
X145316648Y-111555455D01*
X145236369Y-111629773D01*
X145151482Y-111678681D01*
X145054280Y-111705495D01*
X144949354Y-111713483D01*
X144878364Y-111712333D01*
X144825649Y-111705567D01*
X144778378Y-111690688D01*
X144738143Y-111672390D01*
X144681381Y-111639743D01*
X144628451Y-111601509D01*
X144603244Y-111578605D01*
X144585377Y-111557472D01*
X144550842Y-111514574D01*
X144501996Y-111452952D01*
X144441198Y-111375646D01*
X144370806Y-111285697D01*
X144293177Y-111186144D01*
X144210669Y-111080029D01*
X144125640Y-110970392D01*
X144040449Y-110860272D01*
X143957452Y-110752712D01*
X143879007Y-110650750D01*
X143807473Y-110557428D01*
X143745208Y-110475786D01*
X143694569Y-110408864D01*
X143657914Y-110359702D01*
X143656832Y-110358231D01*
X143599142Y-110279672D01*
X143594309Y-110833066D01*
X143589477Y-111386461D01*
X143543082Y-111470224D01*
X143472481Y-111568331D01*
X143383398Y-111645761D01*
X143280822Y-111700520D01*
X143169741Y-111730616D01*
X143055142Y-111734055D01*
X142944004Y-111709562D01*
X142836191Y-111655261D01*
X142745781Y-111577687D01*
X142676906Y-111481291D01*
X142635560Y-111377731D01*
X142631418Y-111346359D01*
X142627641Y-111286499D01*
X142624230Y-111200780D01*
X142621184Y-111091832D01*
X142618503Y-110962283D01*
X142616187Y-110814763D01*
X142614237Y-110651902D01*
X142612651Y-110476328D01*
X142611431Y-110290671D01*
X142610575Y-110097561D01*
X142610084Y-109899626D01*
X142609958Y-109699495D01*
X142610196Y-109499799D01*
X142610537Y-109388758D01*
X143597292Y-109388758D01*
X143672784Y-109351398D01*
X143751273Y-109323172D01*
X143856457Y-109303446D01*
X143895522Y-109298893D01*
X144018456Y-109278568D01*
X144118576Y-109245739D01*
X144193328Y-109201439D01*
X144229286Y-109164028D01*
X144256674Y-109103379D01*
X144267067Y-109028708D01*
X144259882Y-108952598D01*
X144241526Y-108899989D01*
X144210374Y-108847646D01*
X144173682Y-108808296D01*
X144122046Y-108773190D01*
X144081846Y-108751483D01*
X144047882Y-108736079D01*
X144011636Y-108725231D01*
X143966119Y-108717863D01*
X143904347Y-108712899D01*
X143819330Y-108709263D01*
X143804400Y-108708774D01*
X143597292Y-108702164D01*
X143597292Y-109388758D01*
X142610537Y-109388758D01*
X142610799Y-109303166D01*
X142611767Y-109112226D01*
X142613099Y-108929608D01*
X142614795Y-108757941D01*
X142615522Y-108702164D01*
X142616855Y-108599855D01*
X142619280Y-108457979D01*
X142622069Y-108334941D01*
X142625222Y-108233373D01*
X142628739Y-108155901D01*
X142632619Y-108105157D01*
X142635655Y-108086591D01*
X142685373Y-107971932D01*
X142759904Y-107874321D01*
X142856212Y-107796604D01*
X142971260Y-107741626D01*
X143018954Y-107727367D01*
X143051931Y-107719973D01*
X143088190Y-107714303D01*
X143131695Y-107710239D01*
X143186410Y-107707666D01*
X143256300Y-107706465D01*
X143345329Y-107706521D01*
G37*
G36*
X146794096Y-107614177D02*
G01*
X146867267Y-107617075D01*
X146918009Y-107621558D01*
X146955148Y-107629929D01*
X146987509Y-107644490D01*
X147023918Y-107667545D01*
X147039497Y-107678217D01*
X147094428Y-107721847D01*
X147146566Y-107772666D01*
X147174625Y-107806410D01*
X147191027Y-107828897D01*
X147205447Y-107849173D01*
X147218012Y-107869295D01*
X147228851Y-107891321D01*
X147238090Y-107917307D01*
X147245856Y-107949310D01*
X147252278Y-107989387D01*
X147257482Y-108039596D01*
X147261595Y-108101993D01*
X147264745Y-108178636D01*
X147267060Y-108271581D01*
X147268666Y-108382885D01*
X147269691Y-108514605D01*
X147270262Y-108668798D01*
X147270507Y-108847522D01*
X147270552Y-109052833D01*
X147270526Y-109286788D01*
X147270523Y-109355739D01*
X147270523Y-110705147D01*
X147876215Y-110709743D01*
X148481908Y-110714338D01*
X148570306Y-110755781D01*
X148670880Y-110818606D01*
X148757438Y-110903353D01*
X148820915Y-111000494D01*
X148839616Y-111044706D01*
X148850699Y-111090490D01*
X148855916Y-111148222D01*
X148857046Y-111214523D01*
X148855721Y-111287940D01*
X148850338Y-111341322D01*
X148838783Y-111385836D01*
X148818944Y-111432648D01*
X148813742Y-111443381D01*
X148753061Y-111536980D01*
X148671161Y-111620759D01*
X148577829Y-111685142D01*
X148554992Y-111696562D01*
X148538877Y-111703712D01*
X148522228Y-111709785D01*
X148502466Y-111714880D01*
X148477014Y-111719093D01*
X148443295Y-111722523D01*
X148398729Y-111725267D01*
X148340739Y-111727425D01*
X148266748Y-111729092D01*
X148174178Y-111730367D01*
X148060451Y-111731349D01*
X147922989Y-111732134D01*
X147759214Y-111732821D01*
X147583138Y-111733450D01*
X147380485Y-111733994D01*
X147206988Y-111734090D01*
X147060544Y-111733704D01*
X146939049Y-111732796D01*
X146840401Y-111731331D01*
X146762497Y-111729271D01*
X146703234Y-111726580D01*
X146660509Y-111723220D01*
X146632219Y-111719154D01*
X146621846Y-111716539D01*
X146503069Y-111663321D01*
X146402640Y-111586827D01*
X146324024Y-111489974D01*
X146298485Y-111444215D01*
X146262338Y-111370831D01*
X146258153Y-109699385D01*
X146257416Y-109425545D01*
X146256732Y-109181166D01*
X146256223Y-108964445D01*
X146256009Y-108773581D01*
X146256210Y-108606773D01*
X146256949Y-108462220D01*
X146258345Y-108338120D01*
X146260519Y-108232671D01*
X146263593Y-108144073D01*
X146267686Y-108070523D01*
X146272921Y-108010221D01*
X146279416Y-107961365D01*
X146287294Y-107922153D01*
X146296675Y-107890784D01*
X146307679Y-107865458D01*
X146320429Y-107844371D01*
X146335043Y-107825724D01*
X146351644Y-107807714D01*
X146370352Y-107788540D01*
X146387480Y-107770545D01*
X146456514Y-107703161D01*
X146522748Y-107656912D01*
X146594258Y-107628692D01*
X146679122Y-107615393D01*
X146785415Y-107613911D01*
X146794096Y-107614177D01*
G37*
G36*
X155424278Y-107660529D02*
G01*
X155568892Y-107661282D01*
X155692300Y-107662633D01*
X155796513Y-107664666D01*
X155883542Y-107667467D01*
X155955397Y-107671118D01*
X156014090Y-107675706D01*
X156061632Y-107681315D01*
X156100033Y-107688028D01*
X156131305Y-107695932D01*
X156157458Y-107705109D01*
X156180504Y-107715646D01*
X156202453Y-107727626D01*
X156205869Y-107729608D01*
X156280874Y-107785550D01*
X156348247Y-107858050D01*
X156399869Y-107937274D01*
X156422411Y-107991889D01*
X156440067Y-108081917D01*
X156444871Y-108180399D01*
X156436466Y-108272011D01*
X156429627Y-108302223D01*
X156391004Y-108390326D01*
X156328628Y-108474791D01*
X156249809Y-108548444D01*
X156161855Y-108604110D01*
X156096634Y-108629117D01*
X156059564Y-108634788D01*
X155995138Y-108639744D01*
X155907259Y-108643816D01*
X155799827Y-108646836D01*
X155676744Y-108648633D01*
X155640800Y-108648890D01*
X155250031Y-108651077D01*
X155246995Y-109982600D01*
X155246206Y-110243798D01*
X155245094Y-110479853D01*
X155243668Y-110690036D01*
X155241940Y-110873617D01*
X155239917Y-111029866D01*
X155237612Y-111158054D01*
X155235033Y-111257450D01*
X155232191Y-111327326D01*
X155229096Y-111366951D01*
X155227841Y-111373978D01*
X155183934Y-111479868D01*
X155115885Y-111570909D01*
X155028453Y-111644161D01*
X154926401Y-111696686D01*
X154814491Y-111725543D01*
X154697483Y-111727792D01*
X154662633Y-111722934D01*
X154554473Y-111688641D01*
X154454253Y-111628034D01*
X154368335Y-111546021D01*
X154303078Y-111447510D01*
X154301439Y-111444215D01*
X154265292Y-111370831D01*
X154260969Y-110014861D01*
X154256647Y-108658892D01*
X153799862Y-108658707D01*
X153641834Y-108658123D01*
X153511394Y-108656012D01*
X153404877Y-108651620D01*
X153318620Y-108644194D01*
X153248958Y-108632981D01*
X153192227Y-108617227D01*
X153144763Y-108596181D01*
X153102903Y-108569088D01*
X153062980Y-108535195D01*
X153027302Y-108499930D01*
X152961260Y-108418205D01*
X152918842Y-108330294D01*
X152896941Y-108228215D01*
X152892279Y-108153072D01*
X152892586Y-108083037D01*
X152898149Y-108031647D01*
X152911344Y-107986418D01*
X152933317Y-107937367D01*
X152999368Y-107836670D01*
X153088121Y-107752945D01*
X153177041Y-107699746D01*
X153190144Y-107693885D01*
X153203830Y-107688744D01*
X153220148Y-107684271D01*
X153241151Y-107680408D01*
X153268890Y-107677103D01*
X153305418Y-107674299D01*
X153352787Y-107671942D01*
X153413047Y-107669977D01*
X153488252Y-107668348D01*
X153580452Y-107667002D01*
X153691700Y-107665882D01*
X153824048Y-107664934D01*
X153979546Y-107664103D01*
X154160248Y-107663334D01*
X154368205Y-107662572D01*
X154593538Y-107661802D01*
X154843087Y-107661010D01*
X155063386Y-107660477D01*
X155256446Y-107660289D01*
X155424278Y-107660529D01*
G37*
G36*
X151125327Y-107638242D02*
G01*
X151273917Y-107649893D01*
X151426922Y-107666374D01*
X151578354Y-107686959D01*
X151722229Y-107710921D01*
X151852558Y-107737537D01*
X151963358Y-107766081D01*
X152045723Y-107794594D01*
X152173759Y-107861539D01*
X152275774Y-107943714D01*
X152350972Y-108040056D01*
X152398556Y-108149502D01*
X152417731Y-108270989D01*
X152418110Y-108291569D01*
X152405206Y-108409358D01*
X152364884Y-108517808D01*
X152330772Y-108575382D01*
X152253269Y-108664647D01*
X152158073Y-108730837D01*
X152049919Y-108772654D01*
X151933540Y-108788803D01*
X151813672Y-108777986D01*
X151709818Y-108745455D01*
X151615673Y-108713008D01*
X151496637Y-108684274D01*
X151358974Y-108660393D01*
X151208948Y-108642507D01*
X151098815Y-108634100D01*
X150986890Y-108630760D01*
X150899989Y-108636364D01*
X150832830Y-108652200D01*
X150780127Y-108679560D01*
X150736595Y-108719733D01*
X150733599Y-108723243D01*
X150686572Y-108797583D01*
X150669408Y-108870565D01*
X150681489Y-108938770D01*
X150722194Y-108998777D01*
X150790905Y-109047169D01*
X150792455Y-109047943D01*
X150821283Y-109061061D01*
X150851199Y-109071107D01*
X150887391Y-109078760D01*
X150935046Y-109084697D01*
X150999350Y-109089599D01*
X151085490Y-109094144D01*
X151175409Y-109098053D01*
X151312033Y-109104441D01*
X151422934Y-109111493D01*
X151513650Y-109119859D01*
X151589722Y-109130190D01*
X151656686Y-109143136D01*
X151720083Y-109159349D01*
X151735612Y-109163867D01*
X151929890Y-109236418D01*
X152107109Y-109332711D01*
X152265254Y-109450790D01*
X152402307Y-109588700D01*
X152516255Y-109744486D01*
X152605080Y-109916191D01*
X152654234Y-110055051D01*
X152694040Y-110216928D01*
X152714445Y-110363684D01*
X152716184Y-110504113D01*
X152702452Y-110632010D01*
X152656929Y-110837710D01*
X152588623Y-111022320D01*
X152496882Y-111186832D01*
X152381050Y-111332240D01*
X152240474Y-111459535D01*
X152090854Y-111560259D01*
X152034902Y-111590368D01*
X151975670Y-111615992D01*
X151908230Y-111638447D01*
X151827654Y-111659052D01*
X151729012Y-111679125D01*
X151607378Y-111699983D01*
X151513773Y-111714567D01*
X151472593Y-111718905D01*
X151446536Y-111718101D01*
X151443317Y-111716692D01*
X151425395Y-111713128D01*
X151383689Y-111709853D01*
X151325680Y-111707374D01*
X151295329Y-111706637D01*
X151052820Y-111694950D01*
X150825330Y-111669683D01*
X150614562Y-111631552D01*
X150422218Y-111581271D01*
X150249998Y-111519553D01*
X150099606Y-111447114D01*
X149972742Y-111364667D01*
X149871108Y-111272927D01*
X149796407Y-111172609D01*
X149750339Y-111064425D01*
X149748424Y-111057323D01*
X149730670Y-110975213D01*
X149726190Y-110906943D01*
X149734838Y-110838113D01*
X149745751Y-110792492D01*
X149773577Y-110706959D01*
X149809251Y-110640079D01*
X149860255Y-110579244D01*
X149888421Y-110552120D01*
X149954250Y-110497692D01*
X150016839Y-110462468D01*
X150086250Y-110442746D01*
X150172547Y-110434825D01*
X150209108Y-110434152D01*
X150332381Y-110443817D01*
X150435823Y-110473806D01*
X150517147Y-110523359D01*
X150538782Y-110543920D01*
X150583338Y-110575195D01*
X150654588Y-110605213D01*
X150747964Y-110633068D01*
X150858901Y-110657853D01*
X150982832Y-110678662D01*
X151115191Y-110694588D01*
X151251411Y-110704725D01*
X151365785Y-110708104D01*
X151464024Y-110705641D01*
X151537716Y-110695696D01*
X151592971Y-110676886D01*
X151635901Y-110647833D01*
X151636987Y-110646857D01*
X151683813Y-110584704D01*
X151708793Y-110507860D01*
X151712322Y-110423604D01*
X151694793Y-110339216D01*
X151656598Y-110261975D01*
X151613490Y-110212074D01*
X151566705Y-110175797D01*
X151512958Y-110147731D01*
X151447796Y-110126924D01*
X151366768Y-110112429D01*
X151265423Y-110103296D01*
X151139307Y-110098574D01*
X151077190Y-110097671D01*
X150864590Y-110087628D01*
X150674955Y-110060957D01*
X150504044Y-110016436D01*
X150347618Y-109952842D01*
X150201439Y-109868952D01*
X150143347Y-109828307D01*
X150000751Y-109707078D01*
X149884442Y-109571651D01*
X149791613Y-109418179D01*
X149722321Y-109251292D01*
X149701635Y-109188351D01*
X149687548Y-109136703D01*
X149678787Y-109087318D01*
X149674074Y-109031166D01*
X149672134Y-108959220D01*
X149671739Y-108893354D01*
X149674562Y-108760651D01*
X149685081Y-108649105D01*
X149705358Y-108549120D01*
X149737454Y-108451102D01*
X149783431Y-108345458D01*
X149794347Y-108322831D01*
X149893309Y-108154692D01*
X150014928Y-108007130D01*
X150157118Y-107881609D01*
X150317795Y-107779597D01*
X150494875Y-107702560D01*
X150686272Y-107651962D01*
X150765901Y-107639515D01*
X150865332Y-107632327D01*
X150987136Y-107632145D01*
X151125327Y-107638242D01*
G37*
G36*
X157732720Y-107764147D02*
G01*
X157877785Y-107764727D01*
X158020428Y-107765849D01*
X158156905Y-107767504D01*
X158283477Y-107769679D01*
X158396399Y-107772364D01*
X158491931Y-107775548D01*
X158566330Y-107779222D01*
X158615855Y-107783373D01*
X158628049Y-107785200D01*
X158722609Y-107818703D01*
X158804770Y-107878834D01*
X158871691Y-107962458D01*
X158920532Y-108066438D01*
X158937761Y-108127160D01*
X158951053Y-108251105D01*
X158934957Y-108369227D01*
X158891266Y-108477966D01*
X158821772Y-108573758D01*
X158728267Y-108653042D01*
X158651636Y-108695823D01*
X158630127Y-108705081D01*
X158607507Y-108712513D01*
X158580112Y-108718363D01*
X158544282Y-108722876D01*
X158496353Y-108726295D01*
X158432663Y-108728866D01*
X158349551Y-108730833D01*
X158243353Y-108732440D01*
X158110407Y-108733932D01*
X158075292Y-108734288D01*
X157571200Y-108739345D01*
X157571200Y-109125805D01*
X158059662Y-109130718D01*
X158207342Y-109132375D01*
X158327569Y-109134576D01*
X158424150Y-109138071D01*
X158500893Y-109143612D01*
X158561605Y-109151950D01*
X158610093Y-109163836D01*
X158650165Y-109180021D01*
X158685629Y-109201257D01*
X158720292Y-109228296D01*
X158757962Y-109261887D01*
X158767109Y-109270304D01*
X158839523Y-109350114D01*
X158885242Y-109434666D01*
X158908568Y-109532767D01*
X158911877Y-109566649D01*
X158911150Y-109679820D01*
X158889092Y-109775942D01*
X158842679Y-109863103D01*
X158768886Y-109949393D01*
X158768665Y-109949614D01*
X158729739Y-109987654D01*
X158694241Y-110018512D01*
X158658441Y-110042938D01*
X158618610Y-110061682D01*
X158571021Y-110075497D01*
X158511944Y-110085134D01*
X158437651Y-110091342D01*
X158344412Y-110094874D01*
X158228500Y-110096479D01*
X158086186Y-110096910D01*
X158037286Y-110096923D01*
X157571200Y-110096923D01*
X157571200Y-110675261D01*
X157629815Y-110677308D01*
X157660709Y-110678011D01*
X157718140Y-110678955D01*
X157797385Y-110680078D01*
X157893723Y-110681315D01*
X158002431Y-110682604D01*
X158118787Y-110683882D01*
X158121839Y-110683914D01*
X158270001Y-110685966D01*
X158390731Y-110689081D01*
X158487857Y-110693847D01*
X158565206Y-110700851D01*
X158626603Y-110710680D01*
X158675877Y-110723921D01*
X158716852Y-110741161D01*
X158753357Y-110762989D01*
X158783575Y-110785464D01*
X158873531Y-110875313D01*
X158935714Y-110979249D01*
X158969571Y-111095983D01*
X158974549Y-111224230D01*
X158974165Y-111229263D01*
X158957054Y-111330261D01*
X158920563Y-111415706D01*
X158859966Y-111495483D01*
X158834282Y-111521850D01*
X158807705Y-111547641D01*
X158783071Y-111569497D01*
X158757645Y-111587768D01*
X158728695Y-111602805D01*
X158693487Y-111614957D01*
X158649287Y-111624575D01*
X158593362Y-111632009D01*
X158522978Y-111637610D01*
X158435401Y-111641726D01*
X158327899Y-111644709D01*
X158197737Y-111646909D01*
X158042183Y-111648676D01*
X157858502Y-111650359D01*
X157829108Y-111650620D01*
X157636836Y-111652113D01*
X157473614Y-111652889D01*
X157337238Y-111652917D01*
X157225505Y-111652164D01*
X157136209Y-111650600D01*
X157067149Y-111648191D01*
X157016118Y-111644905D01*
X156980914Y-111640711D01*
X156967960Y-111638119D01*
X156868512Y-111602653D01*
X156781669Y-111545738D01*
X156711657Y-111476706D01*
X156694174Y-111457239D01*
X156678638Y-111439613D01*
X156664939Y-111421967D01*
X156652966Y-111402438D01*
X156642610Y-111379163D01*
X156633760Y-111350281D01*
X156626308Y-111313930D01*
X156620143Y-111268248D01*
X156615156Y-111211371D01*
X156611235Y-111141439D01*
X156608273Y-111056589D01*
X156606159Y-110954960D01*
X156604782Y-110834688D01*
X156604034Y-110693911D01*
X156603804Y-110530769D01*
X156603983Y-110343398D01*
X156604460Y-110129936D01*
X156605127Y-109888522D01*
X156605704Y-109680484D01*
X156609908Y-108117402D01*
X156656842Y-108025639D01*
X156710557Y-107944570D01*
X156781662Y-107871162D01*
X156861403Y-107813161D01*
X156934017Y-107780326D01*
X156963753Y-107776179D01*
X157021002Y-107772660D01*
X157102022Y-107769760D01*
X157203072Y-107767466D01*
X157320408Y-107765769D01*
X157450289Y-107764657D01*
X157588974Y-107764120D01*
X157732720Y-107764147D01*
G37*
%TO.C,D3*%
X158395000Y-92656137D02*
X155305000Y-92656137D01*
X156849538Y-98206137D02*
G75*
G03*
X158394830Y-92656137I462J2990000D01*
G01*
X155305170Y-92656137D02*
G75*
G03*
X156850462Y-98206137I1544830J-2560000D01*
G01*
X159350000Y-95216137D02*
G75*
G03*
X159350000Y-95216137I-2500000J0D01*
G01*
%TO.C,R4*%
X157695002Y-80580072D02*
X157695002Y-89820072D01*
X159415002Y-79890072D02*
X159415002Y-80580072D01*
X161135002Y-89820072D02*
X161135002Y-80580072D01*
X159415002Y-90510072D02*
X159415002Y-89820072D01*
X161135002Y-80580072D02*
X157695002Y-80580072D01*
X157695002Y-89820072D02*
X161135002Y-89820072D01*
%TO.C,R3*%
X150093379Y-88752752D02*
X150093379Y-97992752D01*
X151813379Y-88062752D02*
X151813379Y-88752752D01*
X153533379Y-97992752D02*
X153533379Y-88752752D01*
X151813379Y-98682752D02*
X151813379Y-97992752D01*
X153533379Y-88752752D02*
X150093379Y-88752752D01*
X150093379Y-97992752D02*
X153533379Y-97992752D01*
%TO.C,R2*%
X144970000Y-88756775D02*
X144970000Y-97996775D01*
X146690000Y-88066775D02*
X146690000Y-88756775D01*
X148410000Y-97996775D02*
X148410000Y-88756775D01*
X146690000Y-98686775D02*
X146690000Y-97996775D01*
X148410000Y-88756775D02*
X144970000Y-88756775D01*
X144970000Y-97996775D02*
X148410000Y-97996775D01*
%TO.C,R1*%
X137350000Y-89896137D02*
X140790000Y-89896137D01*
X140790000Y-80656137D02*
X137350000Y-80656137D01*
X139070000Y-90586137D02*
X139070000Y-89896137D01*
X140790000Y-89896137D02*
X140790000Y-80656137D01*
X139070000Y-79966137D02*
X139070000Y-80656137D01*
X137350000Y-80656137D02*
X137350000Y-89896137D01*
D12*
%TO.C,Q2*%
X153523107Y-101447612D02*
G75*
G03*
X151950507Y-101447612I-786300J-2548507D01*
G01*
X151950507Y-101447611D02*
G75*
G03*
X150081907Y-104250112I786300J-2548481D01*
G01*
X154831307Y-105647112D02*
G75*
G03*
X153523106Y-101447712I-2094489J1650989D01*
G01*
X150081907Y-104250112D02*
G75*
G03*
X150642207Y-105647112I2654905J253952D01*
G01*
X150642307Y-105647112D02*
X154831307Y-105647112D01*
X150081907Y-103996112D02*
X155391707Y-103996112D01*
%TO.C,Q1*%
X146514244Y-101447612D02*
G75*
G03*
X144941644Y-101447612I-786300J-2548507D01*
G01*
X144941644Y-101447611D02*
G75*
G03*
X143073044Y-104250112I786300J-2548481D01*
G01*
X147822444Y-105647112D02*
G75*
G03*
X146514243Y-101447712I-2094489J1650989D01*
G01*
X143073044Y-104250112D02*
G75*
G03*
X143633344Y-105647112I2654905J253952D01*
G01*
X143633444Y-105647112D02*
X147822444Y-105647112D01*
X143073044Y-103996112D02*
X148382844Y-103996112D01*
D11*
%TO.C,D2*%
X143179797Y-92909069D02*
X140089797Y-92909069D01*
X141634335Y-98459069D02*
G75*
G03*
X143179627Y-92909069I462J2990000D01*
G01*
X140089967Y-92909069D02*
G75*
G03*
X141635259Y-98459069I1544830J-2560000D01*
G01*
X144134797Y-95469069D02*
G75*
G03*
X144134797Y-95469069I-2500000J0D01*
G01*
%TO.C,D1*%
X152465000Y-85416137D02*
X152465000Y-81476137D01*
X152225000Y-85416137D02*
X152225000Y-81476137D01*
X152345000Y-85416137D02*
X152345000Y-81476137D01*
X144520000Y-83446137D02*
X144660000Y-83446137D01*
X153940000Y-83446137D02*
X153800000Y-83446137D01*
X144660000Y-85416137D02*
X153800000Y-85416137D01*
X144660000Y-81476137D02*
X144660000Y-85416137D01*
X153800000Y-81476137D02*
X144660000Y-81476137D01*
X153800000Y-85416137D02*
X153800000Y-81476137D01*
%TD*%
M02*
