M48
; DRILL file {KiCad (6.0.0)} date Sun Apr  3 23:21:40 2022
; FORMAT={-:-/ absolute / inch / decimal}
; #@! TF.CreationDate,2022-04-03T23:21:40+01:00
; #@! TF.GenerationSoftware,Kicad,Pcbnew,(6.0.0)
; #@! TF.FileFunction,Plated,1,2,PTH
FMAT,2
INCH
; #@! TA.AperFunction,Plated,PTH,ComponentDrill
T1C0.0315
; #@! TA.AperFunction,Plated,PTH,ComponentDrill
T2C0.0354
; #@! TA.AperFunction,Plated,PTH,ComponentDrill
T3C0.0394
; #@! TA.AperFunction,Plated,PTH,ComponentDrill
T4C0.0551
%
G90
G05
T1
X5.4752Y-3.1073
X5.4752Y-3.6073
X5.4772Y-3.9978
X5.5766Y-3.9978
X5.7752Y-3.4263
X5.7752Y-3.9263
X5.9769Y-3.4261
X5.9769Y-3.9261
X6.171Y-3.9866
X6.2704Y-3.9866
X6.2762Y-3.1043
X6.2762Y-3.6043
T2
X5.5768Y-3.8086
X5.5781Y-3.7086
X5.668Y-4.0945
X5.7361Y-4.0246
X5.8067Y-4.0939
X5.9439Y-4.0945
X6.0121Y-4.0246
X6.0826Y-4.0939
X6.1758Y-3.7987
X6.1771Y-3.6987
T3
X5.7752Y-3.1333
X5.9752Y-3.1333
T4
X5.6252Y-3.2853
X6.1252Y-3.2853
T0
M30
