%TF.GenerationSoftware,KiCad,Pcbnew,(6.0.0)*%
%TF.CreationDate,2022-04-03T23:20:59+01:00*%
%TF.ProjectId,kit-soldadura-pcb,6b69742d-736f-46c6-9461-647572612d70,rev?*%
%TF.SameCoordinates,Original*%
%TF.FileFunction,Copper,L1,Top*%
%TF.FilePolarity,Positive*%
%FSLAX46Y46*%
G04 Gerber Fmt 4.6, Leading zero omitted, Abs format (unit mm)*
G04 Created by KiCad (PCBNEW (6.0.0)) date 2022-04-03 23:20:59*
%MOMM*%
%LPD*%
G01*
G04 APERTURE LIST*
%TA.AperFunction,ComponentPad*%
%ADD10C,2.000000*%
%TD*%
%TA.AperFunction,ComponentPad*%
%ADD11O,2.800000X2.800000*%
%TD*%
%TA.AperFunction,ComponentPad*%
%ADD12C,2.800000*%
%TD*%
%TA.AperFunction,Conductor*%
%ADD13C,1.000000*%
%TD*%
%TA.AperFunction,Conductor*%
%ADD14C,0.254000*%
%TD*%
G04 APERTURE END LIST*
D10*
%TO.P,C2,1*%
%TO.N,Net-(C2-Pad1)*%
X159268394Y-101260000D03*
%TO.P,C2,2*%
%TO.N,Net-(C2-Pad2)*%
X156744119Y-101260000D03*
%TD*%
%TO.P,C1,1*%
%TO.N,Net-(C1-Pad1)*%
X139120803Y-101542872D03*
%TO.P,C1,2*%
%TO.N,Net-(C1-Pad2)*%
X141645078Y-101542872D03*
%TD*%
%TO.P,D3,1,K*%
%TO.N,Net-(D3-Pad1)*%
X156899471Y-93946137D03*
%TO.P,D3,2,A*%
%TO.N,PWR*%
X156866134Y-96486137D03*
%TD*%
%TO.P,R4,1*%
%TO.N,Net-(D3-Pad1)*%
X159415002Y-78850072D03*
%TO.P,R4,2*%
%TO.N,Net-(C2-Pad1)*%
X159415002Y-91550072D03*
%TD*%
%TO.P,R3,1*%
%TO.N,PWR*%
X151813379Y-87022752D03*
%TO.P,R3,2*%
%TO.N,Net-(C2-Pad2)*%
X151813379Y-99722752D03*
%TD*%
%TO.P,R2,1*%
%TO.N,PWR*%
X146690000Y-87026775D03*
%TO.P,R2,2*%
%TO.N,Net-(C1-Pad2)*%
X146690000Y-99726775D03*
%TD*%
%TO.P,R1,2*%
%TO.N,Net-(C1-Pad1)*%
X139070000Y-91626137D03*
%TO.P,R1,1*%
%TO.N,Net-(D2-Pad1)*%
X139070000Y-78926137D03*
%TD*%
%TO.P,Q2,3,E*%
%TO.N,GND*%
X154498622Y-103986316D03*
%TO.P,Q2,2,C*%
%TO.N,Net-(C2-Pad1)*%
X150974992Y-104001373D03*
%TO.P,Q2,1,B*%
%TO.N,Net-(C1-Pad2)*%
X152706691Y-102224500D03*
%TD*%
%TO.P,Q1,3,E*%
%TO.N,GND*%
X147489759Y-103986316D03*
%TO.P,Q1,2,C*%
%TO.N,Net-(C1-Pad1)*%
X143966129Y-104001373D03*
%TO.P,Q1,1,B*%
%TO.N,Net-(C2-Pad2)*%
X145697828Y-102224500D03*
%TD*%
%TO.P,J2,1,Pin_1*%
%TO.N,GND*%
X151770000Y-79586137D03*
%TD*%
%TO.P,J1,1,Pin_1*%
%TO.N,Net-(D1-Pad2)*%
X146690000Y-79586137D03*
%TD*%
%TO.P,D2,1,K*%
%TO.N,Net-(D2-Pad1)*%
X141684268Y-94199069D03*
%TO.P,D2,2,A*%
%TO.N,PWR*%
X141650931Y-96739069D03*
%TD*%
D11*
%TO.P,D1,2,A*%
%TO.N,Net-(D1-Pad2)*%
X142880000Y-83446137D03*
D12*
%TO.P,D1,1,K*%
%TO.N,PWR*%
X155580000Y-83446137D03*
%TD*%
D13*
%TO.N,GND*%
X152304938Y-106180000D02*
X154498622Y-103986316D01*
X149683443Y-106180000D02*
X152304938Y-106180000D01*
X147489759Y-103986316D02*
X149683443Y-106180000D01*
X149230000Y-82126137D02*
X151770000Y-79586137D01*
X154498622Y-99214759D02*
X149230000Y-93946137D01*
X149230000Y-93946137D02*
X149230000Y-82126137D01*
X154498622Y-103986316D02*
X154498622Y-99214759D01*
%TO.N,Net-(C1-Pad2)*%
X146690000Y-99726775D02*
X149187725Y-102224500D01*
X149187725Y-102224500D02*
X152706691Y-102224500D01*
%TD*%
%TO.N,GND*%
D14*
X162486000Y-116802137D02*
X135934000Y-116802137D01*
X135934000Y-104011259D01*
X142327352Y-104011259D01*
X142345982Y-104247970D01*
X142349075Y-104267498D01*
X142404505Y-104498381D01*
X142410615Y-104517185D01*
X142501480Y-104736554D01*
X142510456Y-104754171D01*
X142634520Y-104956624D01*
X142646142Y-104972620D01*
X142800349Y-105153173D01*
X142814329Y-105167153D01*
X142994882Y-105321360D01*
X143010878Y-105332982D01*
X143213331Y-105457046D01*
X143230948Y-105466022D01*
X143450317Y-105556887D01*
X143469121Y-105562997D01*
X143700004Y-105618427D01*
X143719532Y-105621520D01*
X143956243Y-105640150D01*
X143976015Y-105640150D01*
X144212726Y-105621520D01*
X144232254Y-105618427D01*
X144463137Y-105562997D01*
X144481941Y-105556887D01*
X144701310Y-105466022D01*
X144718927Y-105457046D01*
X144921380Y-105332982D01*
X144937376Y-105321360D01*
X145088093Y-105192635D01*
X146492746Y-105192635D01*
X146497811Y-105263450D01*
X146540358Y-105320286D01*
X146550032Y-105326850D01*
X146737189Y-105441541D01*
X146754806Y-105450518D01*
X146974102Y-105541353D01*
X146992906Y-105547463D01*
X147223712Y-105602875D01*
X147243240Y-105605968D01*
X147479873Y-105624591D01*
X147499645Y-105624591D01*
X147736278Y-105605968D01*
X147755806Y-105602875D01*
X147986612Y-105547463D01*
X148005416Y-105541353D01*
X148224712Y-105450518D01*
X148242329Y-105441541D01*
X148429486Y-105326850D01*
X148477117Y-105274203D01*
X148488724Y-105204161D01*
X148460621Y-105138964D01*
X148452746Y-105130323D01*
X147578854Y-104256431D01*
X147516542Y-104222405D01*
X147445727Y-104227470D01*
X147400664Y-104256431D01*
X146526772Y-105130323D01*
X146492746Y-105192635D01*
X145088093Y-105192635D01*
X145117929Y-105167153D01*
X145131909Y-105153173D01*
X145286116Y-104972620D01*
X145297738Y-104956624D01*
X145421802Y-104754171D01*
X145430778Y-104736554D01*
X145521643Y-104517185D01*
X145527753Y-104498381D01*
X145583183Y-104267498D01*
X145586276Y-104247970D01*
X145604906Y-104011259D01*
X145604906Y-103991487D01*
X145594235Y-103855902D01*
X145687942Y-103863277D01*
X145707714Y-103863277D01*
X145861341Y-103851186D01*
X145851484Y-103976430D01*
X145851484Y-103996202D01*
X145870107Y-104232835D01*
X145873200Y-104252363D01*
X145928612Y-104483169D01*
X145934722Y-104501973D01*
X146025557Y-104721269D01*
X146034534Y-104738886D01*
X146149225Y-104926043D01*
X146201872Y-104973674D01*
X146271914Y-104985281D01*
X146337111Y-104957178D01*
X146345752Y-104949303D01*
X147489759Y-103805296D01*
X148633766Y-104949303D01*
X148696078Y-104983329D01*
X148766893Y-104978264D01*
X148823729Y-104935717D01*
X148830293Y-104926043D01*
X148944984Y-104738886D01*
X148953961Y-104721269D01*
X149044796Y-104501973D01*
X149050906Y-104483169D01*
X149106318Y-104252363D01*
X149109411Y-104232835D01*
X149128034Y-103996202D01*
X149128034Y-103976430D01*
X149109411Y-103739797D01*
X149106318Y-103720269D01*
X149050906Y-103489463D01*
X149044796Y-103470659D01*
X148992780Y-103345081D01*
X149067215Y-103352641D01*
X149116908Y-103358215D01*
X149128435Y-103358859D01*
X149171455Y-103363229D01*
X149196045Y-103363315D01*
X149241694Y-103359000D01*
X149471901Y-103359000D01*
X149419478Y-103485561D01*
X149413368Y-103504365D01*
X149357938Y-103735248D01*
X149354845Y-103754776D01*
X149336215Y-103991487D01*
X149336215Y-104011259D01*
X149354845Y-104247970D01*
X149357938Y-104267498D01*
X149413368Y-104498381D01*
X149419478Y-104517185D01*
X149510343Y-104736554D01*
X149519319Y-104754171D01*
X149643383Y-104956624D01*
X149655005Y-104972620D01*
X149809212Y-105153173D01*
X149823192Y-105167153D01*
X150003745Y-105321360D01*
X150019741Y-105332982D01*
X150222194Y-105457046D01*
X150239811Y-105466022D01*
X150459180Y-105556887D01*
X150477984Y-105562997D01*
X150708867Y-105618427D01*
X150728395Y-105621520D01*
X150965106Y-105640150D01*
X150984878Y-105640150D01*
X151221589Y-105621520D01*
X151241117Y-105618427D01*
X151472000Y-105562997D01*
X151490804Y-105556887D01*
X151710173Y-105466022D01*
X151727790Y-105457046D01*
X151930243Y-105332982D01*
X151946239Y-105321360D01*
X152096956Y-105192635D01*
X153501609Y-105192635D01*
X153506674Y-105263450D01*
X153549221Y-105320286D01*
X153558895Y-105326850D01*
X153746052Y-105441541D01*
X153763669Y-105450518D01*
X153982965Y-105541353D01*
X154001769Y-105547463D01*
X154232575Y-105602875D01*
X154252103Y-105605968D01*
X154488736Y-105624591D01*
X154508508Y-105624591D01*
X154745141Y-105605968D01*
X154764669Y-105602875D01*
X154995475Y-105547463D01*
X155014279Y-105541353D01*
X155233575Y-105450518D01*
X155251192Y-105441541D01*
X155438349Y-105326850D01*
X155485980Y-105274203D01*
X155497587Y-105204161D01*
X155469484Y-105138964D01*
X155461609Y-105130323D01*
X154587717Y-104256431D01*
X154525405Y-104222405D01*
X154454590Y-104227470D01*
X154409527Y-104256431D01*
X153535635Y-105130323D01*
X153501609Y-105192635D01*
X152096956Y-105192635D01*
X152126792Y-105167153D01*
X152140772Y-105153173D01*
X152294979Y-104972620D01*
X152306601Y-104956624D01*
X152430665Y-104754171D01*
X152439641Y-104736554D01*
X152530506Y-104517185D01*
X152536616Y-104498381D01*
X152592046Y-104267498D01*
X152595139Y-104247970D01*
X152613769Y-104011259D01*
X152613769Y-103991487D01*
X152603098Y-103855902D01*
X152696805Y-103863277D01*
X152716577Y-103863277D01*
X152870204Y-103851186D01*
X152860347Y-103976430D01*
X152860347Y-103996202D01*
X152878970Y-104232835D01*
X152882063Y-104252363D01*
X152937475Y-104483169D01*
X152943585Y-104501973D01*
X153034420Y-104721269D01*
X153043397Y-104738886D01*
X153158088Y-104926043D01*
X153210735Y-104973674D01*
X153280777Y-104985281D01*
X153345974Y-104957178D01*
X153354615Y-104949303D01*
X154344385Y-103959533D01*
X154734711Y-103959533D01*
X154739776Y-104030348D01*
X154768737Y-104075411D01*
X155642629Y-104949303D01*
X155704941Y-104983329D01*
X155775756Y-104978264D01*
X155832592Y-104935717D01*
X155839156Y-104926043D01*
X155953847Y-104738886D01*
X155962824Y-104721269D01*
X156053659Y-104501973D01*
X156059769Y-104483169D01*
X156115181Y-104252363D01*
X156118274Y-104232835D01*
X156136897Y-103996202D01*
X156136897Y-103976430D01*
X156118274Y-103739797D01*
X156115181Y-103720269D01*
X156059769Y-103489463D01*
X156053659Y-103470659D01*
X155962824Y-103251363D01*
X155953847Y-103233746D01*
X155839156Y-103046589D01*
X155786509Y-102998958D01*
X155716467Y-102987351D01*
X155651270Y-103015454D01*
X155642629Y-103023329D01*
X154768737Y-103897221D01*
X154734711Y-103959533D01*
X154344385Y-103959533D01*
X155461609Y-102842309D01*
X155495635Y-102779997D01*
X155490570Y-102709182D01*
X155448023Y-102652346D01*
X155438349Y-102645782D01*
X155251192Y-102531091D01*
X155233575Y-102522114D01*
X155014279Y-102431279D01*
X154995475Y-102425169D01*
X154764669Y-102369757D01*
X154745141Y-102366664D01*
X154508508Y-102348041D01*
X154488736Y-102348041D01*
X154335574Y-102360095D01*
X154345468Y-102234386D01*
X154345468Y-102214614D01*
X154326838Y-101977903D01*
X154323745Y-101958375D01*
X154268315Y-101727492D01*
X154262205Y-101708688D01*
X154171340Y-101489319D01*
X154162364Y-101471702D01*
X154038690Y-101269886D01*
X155105342Y-101269886D01*
X155123972Y-101506597D01*
X155127065Y-101526125D01*
X155182495Y-101757008D01*
X155188605Y-101775812D01*
X155279470Y-101995181D01*
X155288446Y-102012798D01*
X155412510Y-102215251D01*
X155424132Y-102231247D01*
X155578339Y-102411800D01*
X155592319Y-102425780D01*
X155772872Y-102579987D01*
X155788868Y-102591609D01*
X155991321Y-102715673D01*
X156008938Y-102724649D01*
X156228307Y-102815514D01*
X156247111Y-102821624D01*
X156477994Y-102877054D01*
X156497522Y-102880147D01*
X156734233Y-102898777D01*
X156754005Y-102898777D01*
X156990716Y-102880147D01*
X157010244Y-102877054D01*
X157241127Y-102821624D01*
X157259931Y-102815514D01*
X157479300Y-102724649D01*
X157496917Y-102715673D01*
X157699370Y-102591609D01*
X157715366Y-102579987D01*
X157895919Y-102425780D01*
X157909899Y-102411800D01*
X158006257Y-102298980D01*
X158102614Y-102411800D01*
X158116594Y-102425780D01*
X158297147Y-102579987D01*
X158313143Y-102591609D01*
X158515596Y-102715673D01*
X158533213Y-102724649D01*
X158752582Y-102815514D01*
X158771386Y-102821624D01*
X159002269Y-102877054D01*
X159021797Y-102880147D01*
X159258508Y-102898777D01*
X159278280Y-102898777D01*
X159514991Y-102880147D01*
X159534519Y-102877054D01*
X159765402Y-102821624D01*
X159784206Y-102815514D01*
X160003575Y-102724649D01*
X160021192Y-102715673D01*
X160223645Y-102591609D01*
X160239641Y-102579987D01*
X160420194Y-102425780D01*
X160434174Y-102411800D01*
X160588381Y-102231247D01*
X160600003Y-102215251D01*
X160724067Y-102012798D01*
X160733043Y-101995181D01*
X160823908Y-101775812D01*
X160830018Y-101757008D01*
X160885448Y-101526125D01*
X160888541Y-101506597D01*
X160907171Y-101269886D01*
X160907171Y-101250114D01*
X160888541Y-101013403D01*
X160885448Y-100993875D01*
X160830018Y-100762992D01*
X160823908Y-100744188D01*
X160733043Y-100524819D01*
X160724067Y-100507202D01*
X160600003Y-100304749D01*
X160588381Y-100288753D01*
X160434174Y-100108200D01*
X160420194Y-100094220D01*
X160239641Y-99940013D01*
X160223645Y-99928391D01*
X160021192Y-99804327D01*
X160003575Y-99795351D01*
X159784206Y-99704486D01*
X159765402Y-99698376D01*
X159534519Y-99642946D01*
X159514991Y-99639853D01*
X159278280Y-99621223D01*
X159258508Y-99621223D01*
X159021797Y-99639853D01*
X159002269Y-99642946D01*
X158771386Y-99698376D01*
X158752582Y-99704486D01*
X158533213Y-99795351D01*
X158515596Y-99804327D01*
X158313143Y-99928391D01*
X158297147Y-99940013D01*
X158116594Y-100094220D01*
X158102614Y-100108200D01*
X158006257Y-100221020D01*
X157909899Y-100108200D01*
X157895919Y-100094220D01*
X157715366Y-99940013D01*
X157699370Y-99928391D01*
X157496917Y-99804327D01*
X157479300Y-99795351D01*
X157259931Y-99704486D01*
X157241127Y-99698376D01*
X157010244Y-99642946D01*
X156990716Y-99639853D01*
X156754005Y-99621223D01*
X156734233Y-99621223D01*
X156497522Y-99639853D01*
X156477994Y-99642946D01*
X156247111Y-99698376D01*
X156228307Y-99704486D01*
X156008938Y-99795351D01*
X155991321Y-99804327D01*
X155788868Y-99928391D01*
X155772872Y-99940013D01*
X155592319Y-100094220D01*
X155578339Y-100108200D01*
X155424132Y-100288753D01*
X155412510Y-100304749D01*
X155288446Y-100507202D01*
X155279470Y-100524819D01*
X155188605Y-100744188D01*
X155182495Y-100762992D01*
X155127065Y-100993875D01*
X155123972Y-101013403D01*
X155105342Y-101250114D01*
X155105342Y-101269886D01*
X154038690Y-101269886D01*
X154038300Y-101269249D01*
X154026678Y-101253253D01*
X153872471Y-101072700D01*
X153858491Y-101058720D01*
X153677938Y-100904513D01*
X153661942Y-100892891D01*
X153459489Y-100768827D01*
X153441872Y-100759851D01*
X153222503Y-100668986D01*
X153203699Y-100662876D01*
X153160599Y-100652529D01*
X153269052Y-100475550D01*
X153278028Y-100457933D01*
X153368893Y-100238564D01*
X153375003Y-100219760D01*
X153430433Y-99988877D01*
X153433526Y-99969349D01*
X153452156Y-99732638D01*
X153452156Y-99712866D01*
X153433526Y-99476155D01*
X153430433Y-99456627D01*
X153375003Y-99225744D01*
X153368893Y-99206940D01*
X153278028Y-98987571D01*
X153269052Y-98969954D01*
X153144988Y-98767501D01*
X153133366Y-98751505D01*
X152979159Y-98570952D01*
X152965179Y-98556972D01*
X152784626Y-98402765D01*
X152768630Y-98391143D01*
X152566177Y-98267079D01*
X152548560Y-98258103D01*
X152329191Y-98167238D01*
X152310387Y-98161128D01*
X152079504Y-98105698D01*
X152059976Y-98102605D01*
X151823265Y-98083975D01*
X151803493Y-98083975D01*
X151566782Y-98102605D01*
X151547254Y-98105698D01*
X151316371Y-98161128D01*
X151297567Y-98167238D01*
X151078198Y-98258103D01*
X151060581Y-98267079D01*
X150858128Y-98391143D01*
X150842132Y-98402765D01*
X150661579Y-98556972D01*
X150647599Y-98570952D01*
X150493392Y-98751505D01*
X150481770Y-98767501D01*
X150357706Y-98969954D01*
X150348730Y-98987571D01*
X150257865Y-99206940D01*
X150251755Y-99225744D01*
X150196325Y-99456627D01*
X150193232Y-99476155D01*
X150174602Y-99712866D01*
X150174602Y-99732638D01*
X150193232Y-99969349D01*
X150196325Y-99988877D01*
X150251755Y-100219760D01*
X150257865Y-100238564D01*
X150348730Y-100457933D01*
X150357706Y-100475550D01*
X150481770Y-100678003D01*
X150493392Y-100693999D01*
X150647599Y-100874552D01*
X150661579Y-100888532D01*
X150842132Y-101042739D01*
X150858128Y-101054361D01*
X150916285Y-101090000D01*
X149657649Y-101090000D01*
X148326992Y-99759343D01*
X148328777Y-99736662D01*
X148328777Y-99716889D01*
X148310147Y-99480178D01*
X148307054Y-99460650D01*
X148251624Y-99229767D01*
X148245514Y-99210963D01*
X148154649Y-98991594D01*
X148145673Y-98973977D01*
X148021609Y-98771524D01*
X148009987Y-98755528D01*
X147855780Y-98574975D01*
X147841800Y-98560995D01*
X147661247Y-98406788D01*
X147645251Y-98395166D01*
X147442798Y-98271102D01*
X147425181Y-98262126D01*
X147205812Y-98171261D01*
X147187008Y-98165151D01*
X146956125Y-98109721D01*
X146936597Y-98106628D01*
X146699886Y-98087998D01*
X146680114Y-98087998D01*
X146443403Y-98106628D01*
X146423875Y-98109721D01*
X146192992Y-98165151D01*
X146174188Y-98171261D01*
X145954819Y-98262126D01*
X145937202Y-98271102D01*
X145734749Y-98395166D01*
X145718753Y-98406788D01*
X145538200Y-98560995D01*
X145524220Y-98574975D01*
X145370013Y-98755528D01*
X145358391Y-98771524D01*
X145234327Y-98973977D01*
X145225351Y-98991594D01*
X145134486Y-99210963D01*
X145128376Y-99229767D01*
X145072946Y-99460650D01*
X145069853Y-99480178D01*
X145051223Y-99716889D01*
X145051223Y-99736661D01*
X145069853Y-99973372D01*
X145072946Y-99992900D01*
X145128376Y-100223783D01*
X145134486Y-100242587D01*
X145225351Y-100461956D01*
X145234327Y-100479573D01*
X145327952Y-100632354D01*
X145200820Y-100662876D01*
X145182016Y-100668986D01*
X144962647Y-100759851D01*
X144945030Y-100768827D01*
X144742577Y-100892891D01*
X144726581Y-100904513D01*
X144546028Y-101058720D01*
X144532048Y-101072700D01*
X144377841Y-101253253D01*
X144366219Y-101269249D01*
X144242155Y-101471702D01*
X144233179Y-101489319D01*
X144142314Y-101708688D01*
X144136204Y-101727492D01*
X144080774Y-101958375D01*
X144077681Y-101977903D01*
X144059051Y-102214614D01*
X144059051Y-102234386D01*
X144069722Y-102369971D01*
X143976015Y-102362596D01*
X143956243Y-102362596D01*
X143719532Y-102381226D01*
X143700004Y-102384319D01*
X143469121Y-102439749D01*
X143450317Y-102445859D01*
X143230948Y-102536724D01*
X143213331Y-102545700D01*
X143010878Y-102669764D01*
X142994882Y-102681386D01*
X142814329Y-102835593D01*
X142800349Y-102849573D01*
X142646142Y-103030126D01*
X142634520Y-103046122D01*
X142510456Y-103248575D01*
X142501480Y-103266192D01*
X142410615Y-103485561D01*
X142404505Y-103504365D01*
X142349075Y-103735248D01*
X142345982Y-103754776D01*
X142327352Y-103991487D01*
X142327352Y-104011259D01*
X135934000Y-104011259D01*
X135934000Y-101552758D01*
X137482026Y-101552758D01*
X137500656Y-101789469D01*
X137503749Y-101808997D01*
X137559179Y-102039880D01*
X137565289Y-102058684D01*
X137656154Y-102278053D01*
X137665130Y-102295670D01*
X137789194Y-102498123D01*
X137800816Y-102514119D01*
X137955023Y-102694672D01*
X137969003Y-102708652D01*
X138149556Y-102862859D01*
X138165552Y-102874481D01*
X138368005Y-102998545D01*
X138385622Y-103007521D01*
X138604991Y-103098386D01*
X138623795Y-103104496D01*
X138854678Y-103159926D01*
X138874206Y-103163019D01*
X139110917Y-103181649D01*
X139130689Y-103181649D01*
X139367400Y-103163019D01*
X139386928Y-103159926D01*
X139617811Y-103104496D01*
X139636615Y-103098386D01*
X139855984Y-103007521D01*
X139873601Y-102998545D01*
X140076054Y-102874481D01*
X140092050Y-102862859D01*
X140272603Y-102708652D01*
X140286583Y-102694672D01*
X140382941Y-102581852D01*
X140479298Y-102694672D01*
X140493278Y-102708652D01*
X140673831Y-102862859D01*
X140689827Y-102874481D01*
X140892280Y-102998545D01*
X140909897Y-103007521D01*
X141129266Y-103098386D01*
X141148070Y-103104496D01*
X141378953Y-103159926D01*
X141398481Y-103163019D01*
X141635192Y-103181649D01*
X141654964Y-103181649D01*
X141891675Y-103163019D01*
X141911203Y-103159926D01*
X142142086Y-103104496D01*
X142160890Y-103098386D01*
X142380259Y-103007521D01*
X142397876Y-102998545D01*
X142600329Y-102874481D01*
X142616325Y-102862859D01*
X142796878Y-102708652D01*
X142810858Y-102694672D01*
X142965065Y-102514119D01*
X142976687Y-102498123D01*
X143100751Y-102295670D01*
X143109727Y-102278053D01*
X143200592Y-102058684D01*
X143206702Y-102039880D01*
X143262132Y-101808997D01*
X143265225Y-101789469D01*
X143283855Y-101552758D01*
X143283855Y-101532986D01*
X143265225Y-101296275D01*
X143262132Y-101276747D01*
X143206702Y-101045864D01*
X143200592Y-101027060D01*
X143109727Y-100807691D01*
X143100751Y-100790074D01*
X142976687Y-100587621D01*
X142965065Y-100571625D01*
X142810858Y-100391072D01*
X142796878Y-100377092D01*
X142616325Y-100222885D01*
X142600329Y-100211263D01*
X142397876Y-100087199D01*
X142380259Y-100078223D01*
X142160890Y-99987358D01*
X142142086Y-99981248D01*
X141911203Y-99925818D01*
X141891675Y-99922725D01*
X141654964Y-99904095D01*
X141635192Y-99904095D01*
X141398481Y-99922725D01*
X141378953Y-99925818D01*
X141148070Y-99981248D01*
X141129266Y-99987358D01*
X140909897Y-100078223D01*
X140892280Y-100087199D01*
X140689827Y-100211263D01*
X140673831Y-100222885D01*
X140493278Y-100377092D01*
X140479298Y-100391072D01*
X140382941Y-100503892D01*
X140286583Y-100391072D01*
X140272603Y-100377092D01*
X140092050Y-100222885D01*
X140076054Y-100211263D01*
X139873601Y-100087199D01*
X139855984Y-100078223D01*
X139636615Y-99987358D01*
X139617811Y-99981248D01*
X139386928Y-99925818D01*
X139367400Y-99922725D01*
X139130689Y-99904095D01*
X139110917Y-99904095D01*
X138874206Y-99922725D01*
X138854678Y-99925818D01*
X138623795Y-99981248D01*
X138604991Y-99987358D01*
X138385622Y-100078223D01*
X138368005Y-100087199D01*
X138165552Y-100211263D01*
X138149556Y-100222885D01*
X137969003Y-100377092D01*
X137955023Y-100391072D01*
X137800816Y-100571625D01*
X137789194Y-100587621D01*
X137665130Y-100790074D01*
X137656154Y-100807691D01*
X137565289Y-101027060D01*
X137559179Y-101045864D01*
X137503749Y-101276747D01*
X137500656Y-101296275D01*
X137482026Y-101532986D01*
X137482026Y-101552758D01*
X135934000Y-101552758D01*
X135934000Y-96748955D01*
X140012154Y-96748955D01*
X140030784Y-96985666D01*
X140033877Y-97005194D01*
X140089307Y-97236077D01*
X140095417Y-97254881D01*
X140186282Y-97474250D01*
X140195258Y-97491867D01*
X140319322Y-97694320D01*
X140330944Y-97710316D01*
X140485151Y-97890869D01*
X140499131Y-97904849D01*
X140679684Y-98059056D01*
X140695680Y-98070678D01*
X140898133Y-98194742D01*
X140915750Y-98203718D01*
X141135119Y-98294583D01*
X141153923Y-98300693D01*
X141384806Y-98356123D01*
X141404334Y-98359216D01*
X141641045Y-98377846D01*
X141660817Y-98377846D01*
X141897528Y-98359216D01*
X141917056Y-98356123D01*
X142147939Y-98300693D01*
X142166743Y-98294583D01*
X142386112Y-98203718D01*
X142403729Y-98194742D01*
X142606182Y-98070678D01*
X142622178Y-98059056D01*
X142802731Y-97904849D01*
X142816711Y-97890869D01*
X142970918Y-97710316D01*
X142982540Y-97694320D01*
X143106604Y-97491867D01*
X143115580Y-97474250D01*
X143206445Y-97254881D01*
X143212555Y-97236077D01*
X143267985Y-97005194D01*
X143271078Y-96985666D01*
X143289708Y-96748955D01*
X143289708Y-96729183D01*
X143271357Y-96496023D01*
X155227357Y-96496023D01*
X155245987Y-96732734D01*
X155249080Y-96752262D01*
X155304510Y-96983145D01*
X155310620Y-97001949D01*
X155401485Y-97221318D01*
X155410461Y-97238935D01*
X155534525Y-97441388D01*
X155546147Y-97457384D01*
X155700354Y-97637937D01*
X155714334Y-97651917D01*
X155894887Y-97806124D01*
X155910883Y-97817746D01*
X156113336Y-97941810D01*
X156130953Y-97950786D01*
X156350322Y-98041651D01*
X156369126Y-98047761D01*
X156600009Y-98103191D01*
X156619537Y-98106284D01*
X156856248Y-98124914D01*
X156876020Y-98124914D01*
X157112731Y-98106284D01*
X157132259Y-98103191D01*
X157363142Y-98047761D01*
X157381946Y-98041651D01*
X157601315Y-97950786D01*
X157618932Y-97941810D01*
X157821385Y-97817746D01*
X157837381Y-97806124D01*
X158017934Y-97651917D01*
X158031914Y-97637937D01*
X158186121Y-97457384D01*
X158197743Y-97441388D01*
X158321807Y-97238935D01*
X158330783Y-97221318D01*
X158421648Y-97001949D01*
X158427758Y-96983145D01*
X158483188Y-96752262D01*
X158486281Y-96732734D01*
X158504911Y-96496023D01*
X158504911Y-96476251D01*
X158486281Y-96239540D01*
X158483188Y-96220012D01*
X158427758Y-95989129D01*
X158421648Y-95970325D01*
X158330783Y-95750956D01*
X158321807Y-95733339D01*
X158197743Y-95530886D01*
X158186121Y-95514890D01*
X158031914Y-95334337D01*
X158017934Y-95320357D01*
X157912577Y-95230373D01*
X158051271Y-95111917D01*
X158065251Y-95097937D01*
X158219458Y-94917384D01*
X158231080Y-94901388D01*
X158355144Y-94698935D01*
X158364120Y-94681318D01*
X158454985Y-94461949D01*
X158461095Y-94443145D01*
X158516525Y-94212262D01*
X158519618Y-94192734D01*
X158538248Y-93956023D01*
X158538248Y-93936251D01*
X158519618Y-93699540D01*
X158516525Y-93680012D01*
X158461095Y-93449129D01*
X158454985Y-93430325D01*
X158364120Y-93210956D01*
X158355144Y-93193339D01*
X158231080Y-92990886D01*
X158219458Y-92974890D01*
X158065251Y-92794337D01*
X158051271Y-92780357D01*
X157870718Y-92626150D01*
X157854722Y-92614528D01*
X157652269Y-92490464D01*
X157634652Y-92481488D01*
X157415283Y-92390623D01*
X157396479Y-92384513D01*
X157165596Y-92329083D01*
X157146068Y-92325990D01*
X156909357Y-92307360D01*
X156889585Y-92307360D01*
X156652874Y-92325990D01*
X156633346Y-92329083D01*
X156402463Y-92384513D01*
X156383659Y-92390623D01*
X156164290Y-92481488D01*
X156146673Y-92490464D01*
X155944220Y-92614528D01*
X155928224Y-92626150D01*
X155747671Y-92780357D01*
X155733691Y-92794337D01*
X155579484Y-92974890D01*
X155567862Y-92990886D01*
X155443798Y-93193339D01*
X155434822Y-93210956D01*
X155343957Y-93430325D01*
X155337847Y-93449129D01*
X155282417Y-93680012D01*
X155279324Y-93699540D01*
X155260694Y-93936251D01*
X155260694Y-93956023D01*
X155279324Y-94192734D01*
X155282417Y-94212262D01*
X155337847Y-94443145D01*
X155343957Y-94461949D01*
X155434822Y-94681318D01*
X155443798Y-94698935D01*
X155567862Y-94901388D01*
X155579484Y-94917384D01*
X155733691Y-95097937D01*
X155747671Y-95111917D01*
X155853028Y-95201901D01*
X155714334Y-95320357D01*
X155700354Y-95334337D01*
X155546147Y-95514890D01*
X155534525Y-95530886D01*
X155410461Y-95733339D01*
X155401485Y-95750956D01*
X155310620Y-95970325D01*
X155304510Y-95989129D01*
X155249080Y-96220012D01*
X155245987Y-96239540D01*
X155227357Y-96476251D01*
X155227357Y-96496023D01*
X143271357Y-96496023D01*
X143271078Y-96492472D01*
X143267985Y-96472944D01*
X143212555Y-96242061D01*
X143206445Y-96223257D01*
X143115580Y-96003888D01*
X143106604Y-95986271D01*
X142982540Y-95783818D01*
X142970918Y-95767822D01*
X142816711Y-95587269D01*
X142802731Y-95573289D01*
X142697374Y-95483305D01*
X142836068Y-95364849D01*
X142850048Y-95350869D01*
X143004255Y-95170316D01*
X143015877Y-95154320D01*
X143139941Y-94951867D01*
X143148917Y-94934250D01*
X143239782Y-94714881D01*
X143245892Y-94696077D01*
X143301322Y-94465194D01*
X143304415Y-94445666D01*
X143323045Y-94208955D01*
X143323045Y-94189183D01*
X143304415Y-93952472D01*
X143301322Y-93932944D01*
X143245892Y-93702061D01*
X143239782Y-93683257D01*
X143148917Y-93463888D01*
X143139941Y-93446271D01*
X143015877Y-93243818D01*
X143004255Y-93227822D01*
X142850048Y-93047269D01*
X142836068Y-93033289D01*
X142655515Y-92879082D01*
X142639519Y-92867460D01*
X142437066Y-92743396D01*
X142419449Y-92734420D01*
X142200080Y-92643555D01*
X142181276Y-92637445D01*
X141950393Y-92582015D01*
X141930865Y-92578922D01*
X141694154Y-92560292D01*
X141674382Y-92560292D01*
X141437671Y-92578922D01*
X141418143Y-92582015D01*
X141187260Y-92637445D01*
X141168456Y-92643555D01*
X140949087Y-92734420D01*
X140931470Y-92743396D01*
X140729017Y-92867460D01*
X140713021Y-92879082D01*
X140532468Y-93033289D01*
X140518488Y-93047269D01*
X140364281Y-93227822D01*
X140352659Y-93243818D01*
X140228595Y-93446271D01*
X140219619Y-93463888D01*
X140128754Y-93683257D01*
X140122644Y-93702061D01*
X140067214Y-93932944D01*
X140064121Y-93952472D01*
X140045491Y-94189183D01*
X140045491Y-94208955D01*
X140064121Y-94445666D01*
X140067214Y-94465194D01*
X140122644Y-94696077D01*
X140128754Y-94714881D01*
X140219619Y-94934250D01*
X140228595Y-94951867D01*
X140352659Y-95154320D01*
X140364281Y-95170316D01*
X140518488Y-95350869D01*
X140532468Y-95364849D01*
X140637825Y-95454833D01*
X140499131Y-95573289D01*
X140485151Y-95587269D01*
X140330944Y-95767822D01*
X140319322Y-95783818D01*
X140195258Y-95986271D01*
X140186282Y-96003888D01*
X140095417Y-96223257D01*
X140089307Y-96242061D01*
X140033877Y-96472944D01*
X140030784Y-96492472D01*
X140012154Y-96729183D01*
X140012154Y-96748955D01*
X135934000Y-96748955D01*
X135934000Y-91636023D01*
X137431223Y-91636023D01*
X137449853Y-91872734D01*
X137452946Y-91892262D01*
X137508376Y-92123145D01*
X137514486Y-92141949D01*
X137605351Y-92361318D01*
X137614327Y-92378935D01*
X137738391Y-92581388D01*
X137750013Y-92597384D01*
X137904220Y-92777937D01*
X137918200Y-92791917D01*
X138098753Y-92946124D01*
X138114749Y-92957746D01*
X138317202Y-93081810D01*
X138334819Y-93090786D01*
X138554188Y-93181651D01*
X138572992Y-93187761D01*
X138803875Y-93243191D01*
X138823403Y-93246284D01*
X139060114Y-93264914D01*
X139079886Y-93264914D01*
X139316597Y-93246284D01*
X139336125Y-93243191D01*
X139567008Y-93187761D01*
X139585812Y-93181651D01*
X139805181Y-93090786D01*
X139822798Y-93081810D01*
X140025251Y-92957746D01*
X140041247Y-92946124D01*
X140221800Y-92791917D01*
X140235780Y-92777937D01*
X140389987Y-92597384D01*
X140401609Y-92581388D01*
X140525673Y-92378935D01*
X140534649Y-92361318D01*
X140625514Y-92141949D01*
X140631624Y-92123145D01*
X140687054Y-91892262D01*
X140690147Y-91872734D01*
X140708777Y-91636023D01*
X140708777Y-91616251D01*
X140704347Y-91559958D01*
X157776225Y-91559958D01*
X157794855Y-91796669D01*
X157797948Y-91816197D01*
X157853378Y-92047080D01*
X157859488Y-92065884D01*
X157950353Y-92285253D01*
X157959329Y-92302870D01*
X158083393Y-92505323D01*
X158095015Y-92521319D01*
X158249222Y-92701872D01*
X158263202Y-92715852D01*
X158443755Y-92870059D01*
X158459751Y-92881681D01*
X158662204Y-93005745D01*
X158679821Y-93014721D01*
X158899190Y-93105586D01*
X158917994Y-93111696D01*
X159148877Y-93167126D01*
X159168405Y-93170219D01*
X159405116Y-93188849D01*
X159424888Y-93188849D01*
X159661599Y-93170219D01*
X159681127Y-93167126D01*
X159912010Y-93111696D01*
X159930814Y-93105586D01*
X160150183Y-93014721D01*
X160167800Y-93005745D01*
X160370253Y-92881681D01*
X160386249Y-92870059D01*
X160566802Y-92715852D01*
X160580782Y-92701872D01*
X160734989Y-92521319D01*
X160746611Y-92505323D01*
X160870675Y-92302870D01*
X160879651Y-92285253D01*
X160970516Y-92065884D01*
X160976626Y-92047080D01*
X161032056Y-91816197D01*
X161035149Y-91796669D01*
X161053779Y-91559958D01*
X161053779Y-91540186D01*
X161035149Y-91303475D01*
X161032056Y-91283947D01*
X160976626Y-91053064D01*
X160970516Y-91034260D01*
X160879651Y-90814891D01*
X160870675Y-90797274D01*
X160746611Y-90594821D01*
X160734989Y-90578825D01*
X160580782Y-90398272D01*
X160566802Y-90384292D01*
X160386249Y-90230085D01*
X160370253Y-90218463D01*
X160167800Y-90094399D01*
X160150183Y-90085423D01*
X159930814Y-89994558D01*
X159912010Y-89988448D01*
X159681127Y-89933018D01*
X159661599Y-89929925D01*
X159424888Y-89911295D01*
X159405116Y-89911295D01*
X159168405Y-89929925D01*
X159148877Y-89933018D01*
X158917994Y-89988448D01*
X158899190Y-89994558D01*
X158679821Y-90085423D01*
X158662204Y-90094399D01*
X158459751Y-90218463D01*
X158443755Y-90230085D01*
X158263202Y-90384292D01*
X158249222Y-90398272D01*
X158095015Y-90578825D01*
X158083393Y-90594821D01*
X157959329Y-90797274D01*
X157950353Y-90814891D01*
X157859488Y-91034260D01*
X157853378Y-91053064D01*
X157797948Y-91283947D01*
X157794855Y-91303475D01*
X157776225Y-91540186D01*
X157776225Y-91559958D01*
X140704347Y-91559958D01*
X140690147Y-91379540D01*
X140687054Y-91360012D01*
X140631624Y-91129129D01*
X140625514Y-91110325D01*
X140534649Y-90890956D01*
X140525673Y-90873339D01*
X140401609Y-90670886D01*
X140389987Y-90654890D01*
X140235780Y-90474337D01*
X140221800Y-90460357D01*
X140041247Y-90306150D01*
X140025251Y-90294528D01*
X139822798Y-90170464D01*
X139805181Y-90161488D01*
X139585812Y-90070623D01*
X139567008Y-90064513D01*
X139336125Y-90009083D01*
X139316597Y-90005990D01*
X139079886Y-89987360D01*
X139060114Y-89987360D01*
X138823403Y-90005990D01*
X138803875Y-90009083D01*
X138572992Y-90064513D01*
X138554188Y-90070623D01*
X138334819Y-90161488D01*
X138317202Y-90170464D01*
X138114749Y-90294528D01*
X138098753Y-90306150D01*
X137918200Y-90460357D01*
X137904220Y-90474337D01*
X137750013Y-90654890D01*
X137738391Y-90670886D01*
X137614327Y-90873339D01*
X137605351Y-90890956D01*
X137514486Y-91110325D01*
X137508376Y-91129129D01*
X137452946Y-91360012D01*
X137449853Y-91379540D01*
X137431223Y-91616251D01*
X137431223Y-91636023D01*
X135934000Y-91636023D01*
X135934000Y-87036661D01*
X145051223Y-87036661D01*
X145069853Y-87273372D01*
X145072946Y-87292900D01*
X145128376Y-87523783D01*
X145134486Y-87542587D01*
X145225351Y-87761956D01*
X145234327Y-87779573D01*
X145358391Y-87982026D01*
X145370013Y-87998022D01*
X145524220Y-88178575D01*
X145538200Y-88192555D01*
X145718753Y-88346762D01*
X145734749Y-88358384D01*
X145937202Y-88482448D01*
X145954819Y-88491424D01*
X146174188Y-88582289D01*
X146192992Y-88588399D01*
X146423875Y-88643829D01*
X146443403Y-88646922D01*
X146680114Y-88665552D01*
X146699886Y-88665552D01*
X146936597Y-88646922D01*
X146956125Y-88643829D01*
X147187008Y-88588399D01*
X147205812Y-88582289D01*
X147425181Y-88491424D01*
X147442798Y-88482448D01*
X147645251Y-88358384D01*
X147661247Y-88346762D01*
X147841800Y-88192555D01*
X147855780Y-88178575D01*
X148009987Y-87998022D01*
X148021609Y-87982026D01*
X148145673Y-87779573D01*
X148154649Y-87761956D01*
X148245514Y-87542587D01*
X148251624Y-87523783D01*
X148307054Y-87292900D01*
X148310147Y-87273372D01*
X148328777Y-87036661D01*
X148328777Y-87032638D01*
X150174602Y-87032638D01*
X150193232Y-87269349D01*
X150196325Y-87288877D01*
X150251755Y-87519760D01*
X150257865Y-87538564D01*
X150348730Y-87757933D01*
X150357706Y-87775550D01*
X150481770Y-87978003D01*
X150493392Y-87993999D01*
X150647599Y-88174552D01*
X150661579Y-88188532D01*
X150842132Y-88342739D01*
X150858128Y-88354361D01*
X151060581Y-88478425D01*
X151078198Y-88487401D01*
X151297567Y-88578266D01*
X151316371Y-88584376D01*
X151547254Y-88639806D01*
X151566782Y-88642899D01*
X151803493Y-88661529D01*
X151823265Y-88661529D01*
X152059976Y-88642899D01*
X152079504Y-88639806D01*
X152310387Y-88584376D01*
X152329191Y-88578266D01*
X152548560Y-88487401D01*
X152566177Y-88478425D01*
X152768630Y-88354361D01*
X152784626Y-88342739D01*
X152965179Y-88188532D01*
X152979159Y-88174552D01*
X153133366Y-87993999D01*
X153144988Y-87978003D01*
X153269052Y-87775550D01*
X153278028Y-87757933D01*
X153368893Y-87538564D01*
X153375003Y-87519760D01*
X153430433Y-87288877D01*
X153433526Y-87269349D01*
X153452156Y-87032638D01*
X153452156Y-87012866D01*
X153433526Y-86776155D01*
X153430433Y-86756627D01*
X153375003Y-86525744D01*
X153368893Y-86506940D01*
X153278028Y-86287571D01*
X153269052Y-86269954D01*
X153144988Y-86067501D01*
X153133366Y-86051505D01*
X152979159Y-85870952D01*
X152965179Y-85856972D01*
X152784626Y-85702765D01*
X152768630Y-85691143D01*
X152566177Y-85567079D01*
X152548560Y-85558103D01*
X152329191Y-85467238D01*
X152310387Y-85461128D01*
X152079504Y-85405698D01*
X152059976Y-85402605D01*
X151823265Y-85383975D01*
X151803493Y-85383975D01*
X151566782Y-85402605D01*
X151547254Y-85405698D01*
X151316371Y-85461128D01*
X151297567Y-85467238D01*
X151078198Y-85558103D01*
X151060581Y-85567079D01*
X150858128Y-85691143D01*
X150842132Y-85702765D01*
X150661579Y-85856972D01*
X150647599Y-85870952D01*
X150493392Y-86051505D01*
X150481770Y-86067501D01*
X150357706Y-86269954D01*
X150348730Y-86287571D01*
X150257865Y-86506940D01*
X150251755Y-86525744D01*
X150196325Y-86756627D01*
X150193232Y-86776155D01*
X150174602Y-87012866D01*
X150174602Y-87032638D01*
X148328777Y-87032638D01*
X148328777Y-87016889D01*
X148310147Y-86780178D01*
X148307054Y-86760650D01*
X148251624Y-86529767D01*
X148245514Y-86510963D01*
X148154649Y-86291594D01*
X148145673Y-86273977D01*
X148021609Y-86071524D01*
X148009987Y-86055528D01*
X147855780Y-85874975D01*
X147841800Y-85860995D01*
X147661247Y-85706788D01*
X147645251Y-85695166D01*
X147442798Y-85571102D01*
X147425181Y-85562126D01*
X147205812Y-85471261D01*
X147187008Y-85465151D01*
X146956125Y-85409721D01*
X146936597Y-85406628D01*
X146699886Y-85387998D01*
X146680114Y-85387998D01*
X146443403Y-85406628D01*
X146423875Y-85409721D01*
X146192992Y-85465151D01*
X146174188Y-85471261D01*
X145954819Y-85562126D01*
X145937202Y-85571102D01*
X145734749Y-85695166D01*
X145718753Y-85706788D01*
X145538200Y-85860995D01*
X145524220Y-85874975D01*
X145370013Y-86055528D01*
X145358391Y-86071524D01*
X145234327Y-86273977D01*
X145225351Y-86291594D01*
X145134486Y-86510963D01*
X145128376Y-86529767D01*
X145072946Y-86760650D01*
X145069853Y-86780178D01*
X145051223Y-87016889D01*
X145051223Y-87036661D01*
X135934000Y-87036661D01*
X135934000Y-83390983D01*
X140841666Y-83390983D01*
X140852277Y-83661047D01*
X140854230Y-83678737D01*
X140902787Y-83944611D01*
X140907213Y-83961850D01*
X140992748Y-84218230D01*
X140999559Y-84234673D01*
X141120365Y-84476443D01*
X141129425Y-84491763D01*
X141283091Y-84714100D01*
X141294220Y-84727990D01*
X141477681Y-84926456D01*
X141490654Y-84938639D01*
X141700248Y-85109276D01*
X141714810Y-85119510D01*
X141946357Y-85258913D01*
X141962215Y-85266994D01*
X142211094Y-85372380D01*
X142227932Y-85378145D01*
X142489176Y-85447413D01*
X142506659Y-85450748D01*
X142775058Y-85482515D01*
X142792837Y-85483353D01*
X143063033Y-85476985D01*
X143080751Y-85475310D01*
X143347356Y-85430935D01*
X143364663Y-85426780D01*
X143622354Y-85345283D01*
X143638902Y-85338731D01*
X143882540Y-85221738D01*
X143898000Y-85212920D01*
X144122723Y-85062765D01*
X144136786Y-85051857D01*
X144338110Y-84871536D01*
X144350496Y-84858755D01*
X144524404Y-84651867D01*
X144534865Y-84637467D01*
X144677887Y-84408138D01*
X144686215Y-84392410D01*
X144795498Y-84145218D01*
X144801527Y-84128471D01*
X144874889Y-83868346D01*
X144878499Y-83850918D01*
X144914478Y-83583052D01*
X144915537Y-83570237D01*
X144919313Y-83450095D01*
X144919060Y-83437238D01*
X144915785Y-83390983D01*
X153541666Y-83390983D01*
X153552277Y-83661047D01*
X153554230Y-83678737D01*
X153602787Y-83944611D01*
X153607213Y-83961850D01*
X153692748Y-84218230D01*
X153699559Y-84234673D01*
X153820365Y-84476443D01*
X153829425Y-84491763D01*
X153983091Y-84714100D01*
X153994220Y-84727990D01*
X154177681Y-84926456D01*
X154190654Y-84938639D01*
X154400248Y-85109276D01*
X154414810Y-85119510D01*
X154646357Y-85258913D01*
X154662215Y-85266994D01*
X154911094Y-85372380D01*
X154927932Y-85378145D01*
X155189176Y-85447413D01*
X155206659Y-85450748D01*
X155475058Y-85482515D01*
X155492837Y-85483353D01*
X155763033Y-85476985D01*
X155780751Y-85475310D01*
X156047356Y-85430935D01*
X156064663Y-85426780D01*
X156322354Y-85345283D01*
X156338902Y-85338731D01*
X156582540Y-85221738D01*
X156598000Y-85212920D01*
X156822723Y-85062765D01*
X156836786Y-85051857D01*
X157038110Y-84871536D01*
X157050496Y-84858755D01*
X157224404Y-84651867D01*
X157234865Y-84637467D01*
X157377887Y-84408138D01*
X157386215Y-84392410D01*
X157495498Y-84145218D01*
X157501527Y-84128471D01*
X157574889Y-83868346D01*
X157578499Y-83850918D01*
X157614478Y-83583052D01*
X157615537Y-83570237D01*
X157619313Y-83450095D01*
X157619060Y-83437238D01*
X157599972Y-83167641D01*
X157597465Y-83150020D01*
X157540580Y-82885802D01*
X157535614Y-82868711D01*
X157442068Y-82615145D01*
X157434744Y-82598924D01*
X157306404Y-82361067D01*
X157296867Y-82346040D01*
X157136293Y-82128640D01*
X157124734Y-82115106D01*
X156935130Y-81922500D01*
X156921780Y-81910730D01*
X156706929Y-81746761D01*
X156692053Y-81736989D01*
X156456241Y-81604929D01*
X156440137Y-81597351D01*
X156188071Y-81499834D01*
X156171060Y-81494601D01*
X155907769Y-81433573D01*
X155890190Y-81430789D01*
X155620926Y-81407468D01*
X155603130Y-81407188D01*
X155333267Y-81422040D01*
X155315610Y-81424271D01*
X155050531Y-81476998D01*
X155033364Y-81481694D01*
X154778359Y-81571245D01*
X154762024Y-81578314D01*
X154522181Y-81702903D01*
X154507006Y-81712202D01*
X154287111Y-81869341D01*
X154273397Y-81880686D01*
X154077836Y-82067242D01*
X154065858Y-82080406D01*
X153898535Y-82292655D01*
X153888531Y-82307375D01*
X153752782Y-82541082D01*
X153744952Y-82557066D01*
X153643488Y-82807570D01*
X153637988Y-82824496D01*
X153572832Y-83086796D01*
X153569772Y-83104330D01*
X153542225Y-83373194D01*
X153541666Y-83390983D01*
X144915785Y-83390983D01*
X144899972Y-83167641D01*
X144897465Y-83150020D01*
X144840580Y-82885802D01*
X144835614Y-82868711D01*
X144742068Y-82615145D01*
X144734744Y-82598924D01*
X144606404Y-82361067D01*
X144596867Y-82346040D01*
X144436293Y-82128640D01*
X144424734Y-82115106D01*
X144235130Y-81922500D01*
X144221780Y-81910730D01*
X144006929Y-81746761D01*
X143992053Y-81736989D01*
X143756241Y-81604929D01*
X143740137Y-81597351D01*
X143488071Y-81499834D01*
X143471060Y-81494601D01*
X143207769Y-81433573D01*
X143190190Y-81430789D01*
X142920926Y-81407468D01*
X142903130Y-81407188D01*
X142633267Y-81422040D01*
X142615610Y-81424271D01*
X142350531Y-81476998D01*
X142333364Y-81481694D01*
X142078359Y-81571245D01*
X142062024Y-81578314D01*
X141822181Y-81702903D01*
X141807006Y-81712202D01*
X141587111Y-81869341D01*
X141573397Y-81880686D01*
X141377836Y-82067242D01*
X141365858Y-82080406D01*
X141198535Y-82292655D01*
X141188531Y-82307375D01*
X141052782Y-82541082D01*
X141044952Y-82557066D01*
X140943488Y-82807570D01*
X140937988Y-82824496D01*
X140872832Y-83086796D01*
X140869772Y-83104330D01*
X140842225Y-83373194D01*
X140841666Y-83390983D01*
X135934000Y-83390983D01*
X135934000Y-78936023D01*
X137431223Y-78936023D01*
X137449853Y-79172734D01*
X137452946Y-79192262D01*
X137508376Y-79423145D01*
X137514486Y-79441949D01*
X137605351Y-79661318D01*
X137614327Y-79678935D01*
X137738391Y-79881388D01*
X137750013Y-79897384D01*
X137904220Y-80077937D01*
X137918200Y-80091917D01*
X138098753Y-80246124D01*
X138114749Y-80257746D01*
X138317202Y-80381810D01*
X138334819Y-80390786D01*
X138554188Y-80481651D01*
X138572992Y-80487761D01*
X138803875Y-80543191D01*
X138823403Y-80546284D01*
X139060114Y-80564914D01*
X139079886Y-80564914D01*
X139316597Y-80546284D01*
X139336125Y-80543191D01*
X139567008Y-80487761D01*
X139585812Y-80481651D01*
X139805181Y-80390786D01*
X139822798Y-80381810D01*
X140025251Y-80257746D01*
X140041247Y-80246124D01*
X140221800Y-80091917D01*
X140235780Y-80077937D01*
X140389987Y-79897384D01*
X140401609Y-79881388D01*
X140525673Y-79678935D01*
X140534649Y-79661318D01*
X140561695Y-79596023D01*
X145051223Y-79596023D01*
X145069853Y-79832734D01*
X145072946Y-79852262D01*
X145128376Y-80083145D01*
X145134486Y-80101949D01*
X145225351Y-80321318D01*
X145234327Y-80338935D01*
X145358391Y-80541388D01*
X145370013Y-80557384D01*
X145524220Y-80737937D01*
X145538200Y-80751917D01*
X145718753Y-80906124D01*
X145734749Y-80917746D01*
X145937202Y-81041810D01*
X145954819Y-81050786D01*
X146174188Y-81141651D01*
X146192992Y-81147761D01*
X146423875Y-81203191D01*
X146443403Y-81206284D01*
X146680114Y-81224914D01*
X146699886Y-81224914D01*
X146936597Y-81206284D01*
X146956125Y-81203191D01*
X147187008Y-81147761D01*
X147205812Y-81141651D01*
X147425181Y-81050786D01*
X147442798Y-81041810D01*
X147645251Y-80917746D01*
X147661247Y-80906124D01*
X147794335Y-80792456D01*
X150772987Y-80792456D01*
X150778052Y-80863271D01*
X150820599Y-80920107D01*
X150830273Y-80926671D01*
X151017430Y-81041362D01*
X151035047Y-81050339D01*
X151254343Y-81141174D01*
X151273147Y-81147284D01*
X151503953Y-81202696D01*
X151523481Y-81205789D01*
X151760114Y-81224412D01*
X151779886Y-81224412D01*
X152016519Y-81205789D01*
X152036047Y-81202696D01*
X152266853Y-81147284D01*
X152285657Y-81141174D01*
X152504953Y-81050339D01*
X152522570Y-81041362D01*
X152709727Y-80926671D01*
X152757358Y-80874024D01*
X152768965Y-80803982D01*
X152740862Y-80738785D01*
X152732987Y-80730144D01*
X151859095Y-79856252D01*
X151796783Y-79822226D01*
X151725968Y-79827291D01*
X151680905Y-79856252D01*
X150807013Y-80730144D01*
X150772987Y-80792456D01*
X147794335Y-80792456D01*
X147841800Y-80751917D01*
X147855780Y-80737937D01*
X148009987Y-80557384D01*
X148021609Y-80541388D01*
X148145673Y-80338935D01*
X148154649Y-80321318D01*
X148245514Y-80101949D01*
X148251624Y-80083145D01*
X148307054Y-79852262D01*
X148310147Y-79832734D01*
X148328777Y-79596023D01*
X150131725Y-79596023D01*
X150150348Y-79832656D01*
X150153441Y-79852184D01*
X150208853Y-80082990D01*
X150214963Y-80101794D01*
X150305798Y-80321090D01*
X150314775Y-80338707D01*
X150429466Y-80525864D01*
X150482113Y-80573495D01*
X150552155Y-80585102D01*
X150617352Y-80556999D01*
X150625993Y-80549124D01*
X151499885Y-79675232D01*
X151533911Y-79612920D01*
X151530080Y-79559354D01*
X152006089Y-79559354D01*
X152011154Y-79630169D01*
X152040115Y-79675232D01*
X152914007Y-80549124D01*
X152976319Y-80583150D01*
X153047134Y-80578085D01*
X153103970Y-80535538D01*
X153110534Y-80525864D01*
X153225225Y-80338707D01*
X153234202Y-80321090D01*
X153325037Y-80101794D01*
X153331147Y-80082990D01*
X153386559Y-79852184D01*
X153389652Y-79832656D01*
X153408275Y-79596023D01*
X153408275Y-79576251D01*
X153389652Y-79339618D01*
X153386559Y-79320090D01*
X153331147Y-79089284D01*
X153325037Y-79070480D01*
X153237836Y-78859958D01*
X157776225Y-78859958D01*
X157794855Y-79096669D01*
X157797948Y-79116197D01*
X157853378Y-79347080D01*
X157859488Y-79365884D01*
X157950353Y-79585253D01*
X157959329Y-79602870D01*
X158083393Y-79805323D01*
X158095015Y-79821319D01*
X158249222Y-80001872D01*
X158263202Y-80015852D01*
X158443755Y-80170059D01*
X158459751Y-80181681D01*
X158662204Y-80305745D01*
X158679821Y-80314721D01*
X158899190Y-80405586D01*
X158917994Y-80411696D01*
X159148877Y-80467126D01*
X159168405Y-80470219D01*
X159405116Y-80488849D01*
X159424888Y-80488849D01*
X159661599Y-80470219D01*
X159681127Y-80467126D01*
X159912010Y-80411696D01*
X159930814Y-80405586D01*
X160150183Y-80314721D01*
X160167800Y-80305745D01*
X160370253Y-80181681D01*
X160386249Y-80170059D01*
X160566802Y-80015852D01*
X160580782Y-80001872D01*
X160734989Y-79821319D01*
X160746611Y-79805323D01*
X160870675Y-79602870D01*
X160879651Y-79585253D01*
X160970516Y-79365884D01*
X160976626Y-79347080D01*
X161032056Y-79116197D01*
X161035149Y-79096669D01*
X161053779Y-78859958D01*
X161053779Y-78840186D01*
X161035149Y-78603475D01*
X161032056Y-78583947D01*
X160976626Y-78353064D01*
X160970516Y-78334260D01*
X160879651Y-78114891D01*
X160870675Y-78097274D01*
X160746611Y-77894821D01*
X160734989Y-77878825D01*
X160580782Y-77698272D01*
X160566802Y-77684292D01*
X160386249Y-77530085D01*
X160370253Y-77518463D01*
X160167800Y-77394399D01*
X160150183Y-77385423D01*
X159930814Y-77294558D01*
X159912010Y-77288448D01*
X159681127Y-77233018D01*
X159661599Y-77229925D01*
X159424888Y-77211295D01*
X159405116Y-77211295D01*
X159168405Y-77229925D01*
X159148877Y-77233018D01*
X158917994Y-77288448D01*
X158899190Y-77294558D01*
X158679821Y-77385423D01*
X158662204Y-77394399D01*
X158459751Y-77518463D01*
X158443755Y-77530085D01*
X158263202Y-77684292D01*
X158249222Y-77698272D01*
X158095015Y-77878825D01*
X158083393Y-77894821D01*
X157959329Y-78097274D01*
X157950353Y-78114891D01*
X157859488Y-78334260D01*
X157853378Y-78353064D01*
X157797948Y-78583947D01*
X157794855Y-78603475D01*
X157776225Y-78840186D01*
X157776225Y-78859958D01*
X153237836Y-78859958D01*
X153234202Y-78851184D01*
X153225225Y-78833567D01*
X153110534Y-78646410D01*
X153057887Y-78598779D01*
X152987845Y-78587172D01*
X152922648Y-78615275D01*
X152914007Y-78623150D01*
X152040115Y-79497042D01*
X152006089Y-79559354D01*
X151530080Y-79559354D01*
X151528846Y-79542105D01*
X151499885Y-79497042D01*
X150625993Y-78623150D01*
X150563681Y-78589124D01*
X150492866Y-78594189D01*
X150436030Y-78636736D01*
X150429466Y-78646410D01*
X150314775Y-78833567D01*
X150305798Y-78851184D01*
X150214963Y-79070480D01*
X150208853Y-79089284D01*
X150153441Y-79320090D01*
X150150348Y-79339618D01*
X150131725Y-79576251D01*
X150131725Y-79596023D01*
X148328777Y-79596023D01*
X148328777Y-79576251D01*
X148310147Y-79339540D01*
X148307054Y-79320012D01*
X148251624Y-79089129D01*
X148245514Y-79070325D01*
X148154649Y-78850956D01*
X148145673Y-78833339D01*
X148021609Y-78630886D01*
X148009987Y-78614890D01*
X147855780Y-78434337D01*
X147841800Y-78420357D01*
X147780840Y-78368292D01*
X150771035Y-78368292D01*
X150799138Y-78433489D01*
X150807013Y-78442130D01*
X151680905Y-79316022D01*
X151743217Y-79350048D01*
X151814032Y-79344983D01*
X151859095Y-79316022D01*
X152732987Y-78442130D01*
X152767013Y-78379818D01*
X152761948Y-78309003D01*
X152719401Y-78252167D01*
X152709727Y-78245603D01*
X152522570Y-78130912D01*
X152504953Y-78121935D01*
X152285657Y-78031100D01*
X152266853Y-78024990D01*
X152036047Y-77969578D01*
X152016519Y-77966485D01*
X151779886Y-77947862D01*
X151760114Y-77947862D01*
X151523481Y-77966485D01*
X151503953Y-77969578D01*
X151273147Y-78024990D01*
X151254343Y-78031100D01*
X151035047Y-78121935D01*
X151017430Y-78130912D01*
X150830273Y-78245603D01*
X150782642Y-78298250D01*
X150771035Y-78368292D01*
X147780840Y-78368292D01*
X147661247Y-78266150D01*
X147645251Y-78254528D01*
X147442798Y-78130464D01*
X147425181Y-78121488D01*
X147205812Y-78030623D01*
X147187008Y-78024513D01*
X146956125Y-77969083D01*
X146936597Y-77965990D01*
X146699886Y-77947360D01*
X146680114Y-77947360D01*
X146443403Y-77965990D01*
X146423875Y-77969083D01*
X146192992Y-78024513D01*
X146174188Y-78030623D01*
X145954819Y-78121488D01*
X145937202Y-78130464D01*
X145734749Y-78254528D01*
X145718753Y-78266150D01*
X145538200Y-78420357D01*
X145524220Y-78434337D01*
X145370013Y-78614890D01*
X145358391Y-78630886D01*
X145234327Y-78833339D01*
X145225351Y-78850956D01*
X145134486Y-79070325D01*
X145128376Y-79089129D01*
X145072946Y-79320012D01*
X145069853Y-79339540D01*
X145051223Y-79576251D01*
X145051223Y-79596023D01*
X140561695Y-79596023D01*
X140625514Y-79441949D01*
X140631624Y-79423145D01*
X140687054Y-79192262D01*
X140690147Y-79172734D01*
X140708777Y-78936023D01*
X140708777Y-78916251D01*
X140690147Y-78679540D01*
X140687054Y-78660012D01*
X140631624Y-78429129D01*
X140625514Y-78410325D01*
X140534649Y-78190956D01*
X140525673Y-78173339D01*
X140401609Y-77970886D01*
X140389987Y-77954890D01*
X140235780Y-77774337D01*
X140221800Y-77760357D01*
X140041247Y-77606150D01*
X140025251Y-77594528D01*
X139822798Y-77470464D01*
X139805181Y-77461488D01*
X139585812Y-77370623D01*
X139567008Y-77364513D01*
X139336125Y-77309083D01*
X139316597Y-77305990D01*
X139079886Y-77287360D01*
X139060114Y-77287360D01*
X138823403Y-77305990D01*
X138803875Y-77309083D01*
X138572992Y-77364513D01*
X138554188Y-77370623D01*
X138334819Y-77461488D01*
X138317202Y-77470464D01*
X138114749Y-77594528D01*
X138098753Y-77606150D01*
X137918200Y-77760357D01*
X137904220Y-77774337D01*
X137750013Y-77954890D01*
X137738391Y-77970886D01*
X137614327Y-78173339D01*
X137605351Y-78190956D01*
X137514486Y-78410325D01*
X137508376Y-78429129D01*
X137452946Y-78660012D01*
X137449853Y-78679540D01*
X137431223Y-78916251D01*
X137431223Y-78936023D01*
X135934000Y-78936023D01*
X135934000Y-77150137D01*
X162486000Y-77150137D01*
X162486000Y-116802137D02*
X162486000Y-77150137D01*
%TA.AperFunction,Conductor*%
G36*
X162486000Y-116802137D02*
G01*
X135934000Y-116802137D01*
X135934000Y-104011259D01*
X142327352Y-104011259D01*
X142345982Y-104247970D01*
X142349075Y-104267498D01*
X142404505Y-104498381D01*
X142410615Y-104517185D01*
X142501480Y-104736554D01*
X142510456Y-104754171D01*
X142634520Y-104956624D01*
X142646142Y-104972620D01*
X142800349Y-105153173D01*
X142814329Y-105167153D01*
X142994882Y-105321360D01*
X143010878Y-105332982D01*
X143213331Y-105457046D01*
X143230948Y-105466022D01*
X143450317Y-105556887D01*
X143469121Y-105562997D01*
X143700004Y-105618427D01*
X143719532Y-105621520D01*
X143956243Y-105640150D01*
X143976015Y-105640150D01*
X144212726Y-105621520D01*
X144232254Y-105618427D01*
X144463137Y-105562997D01*
X144481941Y-105556887D01*
X144701310Y-105466022D01*
X144718927Y-105457046D01*
X144921380Y-105332982D01*
X144937376Y-105321360D01*
X145088093Y-105192635D01*
X146492746Y-105192635D01*
X146497811Y-105263450D01*
X146540358Y-105320286D01*
X146550032Y-105326850D01*
X146737189Y-105441541D01*
X146754806Y-105450518D01*
X146974102Y-105541353D01*
X146992906Y-105547463D01*
X147223712Y-105602875D01*
X147243240Y-105605968D01*
X147479873Y-105624591D01*
X147499645Y-105624591D01*
X147736278Y-105605968D01*
X147755806Y-105602875D01*
X147986612Y-105547463D01*
X148005416Y-105541353D01*
X148224712Y-105450518D01*
X148242329Y-105441541D01*
X148429486Y-105326850D01*
X148477117Y-105274203D01*
X148488724Y-105204161D01*
X148460621Y-105138964D01*
X148452746Y-105130323D01*
X147578854Y-104256431D01*
X147516542Y-104222405D01*
X147445727Y-104227470D01*
X147400664Y-104256431D01*
X146526772Y-105130323D01*
X146492746Y-105192635D01*
X145088093Y-105192635D01*
X145117929Y-105167153D01*
X145131909Y-105153173D01*
X145286116Y-104972620D01*
X145297738Y-104956624D01*
X145421802Y-104754171D01*
X145430778Y-104736554D01*
X145521643Y-104517185D01*
X145527753Y-104498381D01*
X145583183Y-104267498D01*
X145586276Y-104247970D01*
X145604906Y-104011259D01*
X145604906Y-103991487D01*
X145594235Y-103855902D01*
X145687942Y-103863277D01*
X145707714Y-103863277D01*
X145861341Y-103851186D01*
X145851484Y-103976430D01*
X145851484Y-103996202D01*
X145870107Y-104232835D01*
X145873200Y-104252363D01*
X145928612Y-104483169D01*
X145934722Y-104501973D01*
X146025557Y-104721269D01*
X146034534Y-104738886D01*
X146149225Y-104926043D01*
X146201872Y-104973674D01*
X146271914Y-104985281D01*
X146337111Y-104957178D01*
X146345752Y-104949303D01*
X147489759Y-103805296D01*
X148633766Y-104949303D01*
X148696078Y-104983329D01*
X148766893Y-104978264D01*
X148823729Y-104935717D01*
X148830293Y-104926043D01*
X148944984Y-104738886D01*
X148953961Y-104721269D01*
X149044796Y-104501973D01*
X149050906Y-104483169D01*
X149106318Y-104252363D01*
X149109411Y-104232835D01*
X149128034Y-103996202D01*
X149128034Y-103976430D01*
X149109411Y-103739797D01*
X149106318Y-103720269D01*
X149050906Y-103489463D01*
X149044796Y-103470659D01*
X148992780Y-103345081D01*
X149067215Y-103352641D01*
X149116908Y-103358215D01*
X149128435Y-103358859D01*
X149171455Y-103363229D01*
X149196045Y-103363315D01*
X149241694Y-103359000D01*
X149471901Y-103359000D01*
X149419478Y-103485561D01*
X149413368Y-103504365D01*
X149357938Y-103735248D01*
X149354845Y-103754776D01*
X149336215Y-103991487D01*
X149336215Y-104011259D01*
X149354845Y-104247970D01*
X149357938Y-104267498D01*
X149413368Y-104498381D01*
X149419478Y-104517185D01*
X149510343Y-104736554D01*
X149519319Y-104754171D01*
X149643383Y-104956624D01*
X149655005Y-104972620D01*
X149809212Y-105153173D01*
X149823192Y-105167153D01*
X150003745Y-105321360D01*
X150019741Y-105332982D01*
X150222194Y-105457046D01*
X150239811Y-105466022D01*
X150459180Y-105556887D01*
X150477984Y-105562997D01*
X150708867Y-105618427D01*
X150728395Y-105621520D01*
X150965106Y-105640150D01*
X150984878Y-105640150D01*
X151221589Y-105621520D01*
X151241117Y-105618427D01*
X151472000Y-105562997D01*
X151490804Y-105556887D01*
X151710173Y-105466022D01*
X151727790Y-105457046D01*
X151930243Y-105332982D01*
X151946239Y-105321360D01*
X152096956Y-105192635D01*
X153501609Y-105192635D01*
X153506674Y-105263450D01*
X153549221Y-105320286D01*
X153558895Y-105326850D01*
X153746052Y-105441541D01*
X153763669Y-105450518D01*
X153982965Y-105541353D01*
X154001769Y-105547463D01*
X154232575Y-105602875D01*
X154252103Y-105605968D01*
X154488736Y-105624591D01*
X154508508Y-105624591D01*
X154745141Y-105605968D01*
X154764669Y-105602875D01*
X154995475Y-105547463D01*
X155014279Y-105541353D01*
X155233575Y-105450518D01*
X155251192Y-105441541D01*
X155438349Y-105326850D01*
X155485980Y-105274203D01*
X155497587Y-105204161D01*
X155469484Y-105138964D01*
X155461609Y-105130323D01*
X154587717Y-104256431D01*
X154525405Y-104222405D01*
X154454590Y-104227470D01*
X154409527Y-104256431D01*
X153535635Y-105130323D01*
X153501609Y-105192635D01*
X152096956Y-105192635D01*
X152126792Y-105167153D01*
X152140772Y-105153173D01*
X152294979Y-104972620D01*
X152306601Y-104956624D01*
X152430665Y-104754171D01*
X152439641Y-104736554D01*
X152530506Y-104517185D01*
X152536616Y-104498381D01*
X152592046Y-104267498D01*
X152595139Y-104247970D01*
X152613769Y-104011259D01*
X152613769Y-103991487D01*
X152603098Y-103855902D01*
X152696805Y-103863277D01*
X152716577Y-103863277D01*
X152870204Y-103851186D01*
X152860347Y-103976430D01*
X152860347Y-103996202D01*
X152878970Y-104232835D01*
X152882063Y-104252363D01*
X152937475Y-104483169D01*
X152943585Y-104501973D01*
X153034420Y-104721269D01*
X153043397Y-104738886D01*
X153158088Y-104926043D01*
X153210735Y-104973674D01*
X153280777Y-104985281D01*
X153345974Y-104957178D01*
X153354615Y-104949303D01*
X154344385Y-103959533D01*
X154734711Y-103959533D01*
X154739776Y-104030348D01*
X154768737Y-104075411D01*
X155642629Y-104949303D01*
X155704941Y-104983329D01*
X155775756Y-104978264D01*
X155832592Y-104935717D01*
X155839156Y-104926043D01*
X155953847Y-104738886D01*
X155962824Y-104721269D01*
X156053659Y-104501973D01*
X156059769Y-104483169D01*
X156115181Y-104252363D01*
X156118274Y-104232835D01*
X156136897Y-103996202D01*
X156136897Y-103976430D01*
X156118274Y-103739797D01*
X156115181Y-103720269D01*
X156059769Y-103489463D01*
X156053659Y-103470659D01*
X155962824Y-103251363D01*
X155953847Y-103233746D01*
X155839156Y-103046589D01*
X155786509Y-102998958D01*
X155716467Y-102987351D01*
X155651270Y-103015454D01*
X155642629Y-103023329D01*
X154768737Y-103897221D01*
X154734711Y-103959533D01*
X154344385Y-103959533D01*
X155461609Y-102842309D01*
X155495635Y-102779997D01*
X155490570Y-102709182D01*
X155448023Y-102652346D01*
X155438349Y-102645782D01*
X155251192Y-102531091D01*
X155233575Y-102522114D01*
X155014279Y-102431279D01*
X154995475Y-102425169D01*
X154764669Y-102369757D01*
X154745141Y-102366664D01*
X154508508Y-102348041D01*
X154488736Y-102348041D01*
X154335574Y-102360095D01*
X154345468Y-102234386D01*
X154345468Y-102214614D01*
X154326838Y-101977903D01*
X154323745Y-101958375D01*
X154268315Y-101727492D01*
X154262205Y-101708688D01*
X154171340Y-101489319D01*
X154162364Y-101471702D01*
X154038690Y-101269886D01*
X155105342Y-101269886D01*
X155123972Y-101506597D01*
X155127065Y-101526125D01*
X155182495Y-101757008D01*
X155188605Y-101775812D01*
X155279470Y-101995181D01*
X155288446Y-102012798D01*
X155412510Y-102215251D01*
X155424132Y-102231247D01*
X155578339Y-102411800D01*
X155592319Y-102425780D01*
X155772872Y-102579987D01*
X155788868Y-102591609D01*
X155991321Y-102715673D01*
X156008938Y-102724649D01*
X156228307Y-102815514D01*
X156247111Y-102821624D01*
X156477994Y-102877054D01*
X156497522Y-102880147D01*
X156734233Y-102898777D01*
X156754005Y-102898777D01*
X156990716Y-102880147D01*
X157010244Y-102877054D01*
X157241127Y-102821624D01*
X157259931Y-102815514D01*
X157479300Y-102724649D01*
X157496917Y-102715673D01*
X157699370Y-102591609D01*
X157715366Y-102579987D01*
X157895919Y-102425780D01*
X157909899Y-102411800D01*
X158006257Y-102298980D01*
X158102614Y-102411800D01*
X158116594Y-102425780D01*
X158297147Y-102579987D01*
X158313143Y-102591609D01*
X158515596Y-102715673D01*
X158533213Y-102724649D01*
X158752582Y-102815514D01*
X158771386Y-102821624D01*
X159002269Y-102877054D01*
X159021797Y-102880147D01*
X159258508Y-102898777D01*
X159278280Y-102898777D01*
X159514991Y-102880147D01*
X159534519Y-102877054D01*
X159765402Y-102821624D01*
X159784206Y-102815514D01*
X160003575Y-102724649D01*
X160021192Y-102715673D01*
X160223645Y-102591609D01*
X160239641Y-102579987D01*
X160420194Y-102425780D01*
X160434174Y-102411800D01*
X160588381Y-102231247D01*
X160600003Y-102215251D01*
X160724067Y-102012798D01*
X160733043Y-101995181D01*
X160823908Y-101775812D01*
X160830018Y-101757008D01*
X160885448Y-101526125D01*
X160888541Y-101506597D01*
X160907171Y-101269886D01*
X160907171Y-101250114D01*
X160888541Y-101013403D01*
X160885448Y-100993875D01*
X160830018Y-100762992D01*
X160823908Y-100744188D01*
X160733043Y-100524819D01*
X160724067Y-100507202D01*
X160600003Y-100304749D01*
X160588381Y-100288753D01*
X160434174Y-100108200D01*
X160420194Y-100094220D01*
X160239641Y-99940013D01*
X160223645Y-99928391D01*
X160021192Y-99804327D01*
X160003575Y-99795351D01*
X159784206Y-99704486D01*
X159765402Y-99698376D01*
X159534519Y-99642946D01*
X159514991Y-99639853D01*
X159278280Y-99621223D01*
X159258508Y-99621223D01*
X159021797Y-99639853D01*
X159002269Y-99642946D01*
X158771386Y-99698376D01*
X158752582Y-99704486D01*
X158533213Y-99795351D01*
X158515596Y-99804327D01*
X158313143Y-99928391D01*
X158297147Y-99940013D01*
X158116594Y-100094220D01*
X158102614Y-100108200D01*
X158006257Y-100221020D01*
X157909899Y-100108200D01*
X157895919Y-100094220D01*
X157715366Y-99940013D01*
X157699370Y-99928391D01*
X157496917Y-99804327D01*
X157479300Y-99795351D01*
X157259931Y-99704486D01*
X157241127Y-99698376D01*
X157010244Y-99642946D01*
X156990716Y-99639853D01*
X156754005Y-99621223D01*
X156734233Y-99621223D01*
X156497522Y-99639853D01*
X156477994Y-99642946D01*
X156247111Y-99698376D01*
X156228307Y-99704486D01*
X156008938Y-99795351D01*
X155991321Y-99804327D01*
X155788868Y-99928391D01*
X155772872Y-99940013D01*
X155592319Y-100094220D01*
X155578339Y-100108200D01*
X155424132Y-100288753D01*
X155412510Y-100304749D01*
X155288446Y-100507202D01*
X155279470Y-100524819D01*
X155188605Y-100744188D01*
X155182495Y-100762992D01*
X155127065Y-100993875D01*
X155123972Y-101013403D01*
X155105342Y-101250114D01*
X155105342Y-101269886D01*
X154038690Y-101269886D01*
X154038300Y-101269249D01*
X154026678Y-101253253D01*
X153872471Y-101072700D01*
X153858491Y-101058720D01*
X153677938Y-100904513D01*
X153661942Y-100892891D01*
X153459489Y-100768827D01*
X153441872Y-100759851D01*
X153222503Y-100668986D01*
X153203699Y-100662876D01*
X153160599Y-100652529D01*
X153269052Y-100475550D01*
X153278028Y-100457933D01*
X153368893Y-100238564D01*
X153375003Y-100219760D01*
X153430433Y-99988877D01*
X153433526Y-99969349D01*
X153452156Y-99732638D01*
X153452156Y-99712866D01*
X153433526Y-99476155D01*
X153430433Y-99456627D01*
X153375003Y-99225744D01*
X153368893Y-99206940D01*
X153278028Y-98987571D01*
X153269052Y-98969954D01*
X153144988Y-98767501D01*
X153133366Y-98751505D01*
X152979159Y-98570952D01*
X152965179Y-98556972D01*
X152784626Y-98402765D01*
X152768630Y-98391143D01*
X152566177Y-98267079D01*
X152548560Y-98258103D01*
X152329191Y-98167238D01*
X152310387Y-98161128D01*
X152079504Y-98105698D01*
X152059976Y-98102605D01*
X151823265Y-98083975D01*
X151803493Y-98083975D01*
X151566782Y-98102605D01*
X151547254Y-98105698D01*
X151316371Y-98161128D01*
X151297567Y-98167238D01*
X151078198Y-98258103D01*
X151060581Y-98267079D01*
X150858128Y-98391143D01*
X150842132Y-98402765D01*
X150661579Y-98556972D01*
X150647599Y-98570952D01*
X150493392Y-98751505D01*
X150481770Y-98767501D01*
X150357706Y-98969954D01*
X150348730Y-98987571D01*
X150257865Y-99206940D01*
X150251755Y-99225744D01*
X150196325Y-99456627D01*
X150193232Y-99476155D01*
X150174602Y-99712866D01*
X150174602Y-99732638D01*
X150193232Y-99969349D01*
X150196325Y-99988877D01*
X150251755Y-100219760D01*
X150257865Y-100238564D01*
X150348730Y-100457933D01*
X150357706Y-100475550D01*
X150481770Y-100678003D01*
X150493392Y-100693999D01*
X150647599Y-100874552D01*
X150661579Y-100888532D01*
X150842132Y-101042739D01*
X150858128Y-101054361D01*
X150916285Y-101090000D01*
X149657649Y-101090000D01*
X148326992Y-99759343D01*
X148328777Y-99736662D01*
X148328777Y-99716889D01*
X148310147Y-99480178D01*
X148307054Y-99460650D01*
X148251624Y-99229767D01*
X148245514Y-99210963D01*
X148154649Y-98991594D01*
X148145673Y-98973977D01*
X148021609Y-98771524D01*
X148009987Y-98755528D01*
X147855780Y-98574975D01*
X147841800Y-98560995D01*
X147661247Y-98406788D01*
X147645251Y-98395166D01*
X147442798Y-98271102D01*
X147425181Y-98262126D01*
X147205812Y-98171261D01*
X147187008Y-98165151D01*
X146956125Y-98109721D01*
X146936597Y-98106628D01*
X146699886Y-98087998D01*
X146680114Y-98087998D01*
X146443403Y-98106628D01*
X146423875Y-98109721D01*
X146192992Y-98165151D01*
X146174188Y-98171261D01*
X145954819Y-98262126D01*
X145937202Y-98271102D01*
X145734749Y-98395166D01*
X145718753Y-98406788D01*
X145538200Y-98560995D01*
X145524220Y-98574975D01*
X145370013Y-98755528D01*
X145358391Y-98771524D01*
X145234327Y-98973977D01*
X145225351Y-98991594D01*
X145134486Y-99210963D01*
X145128376Y-99229767D01*
X145072946Y-99460650D01*
X145069853Y-99480178D01*
X145051223Y-99716889D01*
X145051223Y-99736661D01*
X145069853Y-99973372D01*
X145072946Y-99992900D01*
X145128376Y-100223783D01*
X145134486Y-100242587D01*
X145225351Y-100461956D01*
X145234327Y-100479573D01*
X145327952Y-100632354D01*
X145200820Y-100662876D01*
X145182016Y-100668986D01*
X144962647Y-100759851D01*
X144945030Y-100768827D01*
X144742577Y-100892891D01*
X144726581Y-100904513D01*
X144546028Y-101058720D01*
X144532048Y-101072700D01*
X144377841Y-101253253D01*
X144366219Y-101269249D01*
X144242155Y-101471702D01*
X144233179Y-101489319D01*
X144142314Y-101708688D01*
X144136204Y-101727492D01*
X144080774Y-101958375D01*
X144077681Y-101977903D01*
X144059051Y-102214614D01*
X144059051Y-102234386D01*
X144069722Y-102369971D01*
X143976015Y-102362596D01*
X143956243Y-102362596D01*
X143719532Y-102381226D01*
X143700004Y-102384319D01*
X143469121Y-102439749D01*
X143450317Y-102445859D01*
X143230948Y-102536724D01*
X143213331Y-102545700D01*
X143010878Y-102669764D01*
X142994882Y-102681386D01*
X142814329Y-102835593D01*
X142800349Y-102849573D01*
X142646142Y-103030126D01*
X142634520Y-103046122D01*
X142510456Y-103248575D01*
X142501480Y-103266192D01*
X142410615Y-103485561D01*
X142404505Y-103504365D01*
X142349075Y-103735248D01*
X142345982Y-103754776D01*
X142327352Y-103991487D01*
X142327352Y-104011259D01*
X135934000Y-104011259D01*
X135934000Y-101552758D01*
X137482026Y-101552758D01*
X137500656Y-101789469D01*
X137503749Y-101808997D01*
X137559179Y-102039880D01*
X137565289Y-102058684D01*
X137656154Y-102278053D01*
X137665130Y-102295670D01*
X137789194Y-102498123D01*
X137800816Y-102514119D01*
X137955023Y-102694672D01*
X137969003Y-102708652D01*
X138149556Y-102862859D01*
X138165552Y-102874481D01*
X138368005Y-102998545D01*
X138385622Y-103007521D01*
X138604991Y-103098386D01*
X138623795Y-103104496D01*
X138854678Y-103159926D01*
X138874206Y-103163019D01*
X139110917Y-103181649D01*
X139130689Y-103181649D01*
X139367400Y-103163019D01*
X139386928Y-103159926D01*
X139617811Y-103104496D01*
X139636615Y-103098386D01*
X139855984Y-103007521D01*
X139873601Y-102998545D01*
X140076054Y-102874481D01*
X140092050Y-102862859D01*
X140272603Y-102708652D01*
X140286583Y-102694672D01*
X140382941Y-102581852D01*
X140479298Y-102694672D01*
X140493278Y-102708652D01*
X140673831Y-102862859D01*
X140689827Y-102874481D01*
X140892280Y-102998545D01*
X140909897Y-103007521D01*
X141129266Y-103098386D01*
X141148070Y-103104496D01*
X141378953Y-103159926D01*
X141398481Y-103163019D01*
X141635192Y-103181649D01*
X141654964Y-103181649D01*
X141891675Y-103163019D01*
X141911203Y-103159926D01*
X142142086Y-103104496D01*
X142160890Y-103098386D01*
X142380259Y-103007521D01*
X142397876Y-102998545D01*
X142600329Y-102874481D01*
X142616325Y-102862859D01*
X142796878Y-102708652D01*
X142810858Y-102694672D01*
X142965065Y-102514119D01*
X142976687Y-102498123D01*
X143100751Y-102295670D01*
X143109727Y-102278053D01*
X143200592Y-102058684D01*
X143206702Y-102039880D01*
X143262132Y-101808997D01*
X143265225Y-101789469D01*
X143283855Y-101552758D01*
X143283855Y-101532986D01*
X143265225Y-101296275D01*
X143262132Y-101276747D01*
X143206702Y-101045864D01*
X143200592Y-101027060D01*
X143109727Y-100807691D01*
X143100751Y-100790074D01*
X142976687Y-100587621D01*
X142965065Y-100571625D01*
X142810858Y-100391072D01*
X142796878Y-100377092D01*
X142616325Y-100222885D01*
X142600329Y-100211263D01*
X142397876Y-100087199D01*
X142380259Y-100078223D01*
X142160890Y-99987358D01*
X142142086Y-99981248D01*
X141911203Y-99925818D01*
X141891675Y-99922725D01*
X141654964Y-99904095D01*
X141635192Y-99904095D01*
X141398481Y-99922725D01*
X141378953Y-99925818D01*
X141148070Y-99981248D01*
X141129266Y-99987358D01*
X140909897Y-100078223D01*
X140892280Y-100087199D01*
X140689827Y-100211263D01*
X140673831Y-100222885D01*
X140493278Y-100377092D01*
X140479298Y-100391072D01*
X140382941Y-100503892D01*
X140286583Y-100391072D01*
X140272603Y-100377092D01*
X140092050Y-100222885D01*
X140076054Y-100211263D01*
X139873601Y-100087199D01*
X139855984Y-100078223D01*
X139636615Y-99987358D01*
X139617811Y-99981248D01*
X139386928Y-99925818D01*
X139367400Y-99922725D01*
X139130689Y-99904095D01*
X139110917Y-99904095D01*
X138874206Y-99922725D01*
X138854678Y-99925818D01*
X138623795Y-99981248D01*
X138604991Y-99987358D01*
X138385622Y-100078223D01*
X138368005Y-100087199D01*
X138165552Y-100211263D01*
X138149556Y-100222885D01*
X137969003Y-100377092D01*
X137955023Y-100391072D01*
X137800816Y-100571625D01*
X137789194Y-100587621D01*
X137665130Y-100790074D01*
X137656154Y-100807691D01*
X137565289Y-101027060D01*
X137559179Y-101045864D01*
X137503749Y-101276747D01*
X137500656Y-101296275D01*
X137482026Y-101532986D01*
X137482026Y-101552758D01*
X135934000Y-101552758D01*
X135934000Y-96748955D01*
X140012154Y-96748955D01*
X140030784Y-96985666D01*
X140033877Y-97005194D01*
X140089307Y-97236077D01*
X140095417Y-97254881D01*
X140186282Y-97474250D01*
X140195258Y-97491867D01*
X140319322Y-97694320D01*
X140330944Y-97710316D01*
X140485151Y-97890869D01*
X140499131Y-97904849D01*
X140679684Y-98059056D01*
X140695680Y-98070678D01*
X140898133Y-98194742D01*
X140915750Y-98203718D01*
X141135119Y-98294583D01*
X141153923Y-98300693D01*
X141384806Y-98356123D01*
X141404334Y-98359216D01*
X141641045Y-98377846D01*
X141660817Y-98377846D01*
X141897528Y-98359216D01*
X141917056Y-98356123D01*
X142147939Y-98300693D01*
X142166743Y-98294583D01*
X142386112Y-98203718D01*
X142403729Y-98194742D01*
X142606182Y-98070678D01*
X142622178Y-98059056D01*
X142802731Y-97904849D01*
X142816711Y-97890869D01*
X142970918Y-97710316D01*
X142982540Y-97694320D01*
X143106604Y-97491867D01*
X143115580Y-97474250D01*
X143206445Y-97254881D01*
X143212555Y-97236077D01*
X143267985Y-97005194D01*
X143271078Y-96985666D01*
X143289708Y-96748955D01*
X143289708Y-96729183D01*
X143271357Y-96496023D01*
X155227357Y-96496023D01*
X155245987Y-96732734D01*
X155249080Y-96752262D01*
X155304510Y-96983145D01*
X155310620Y-97001949D01*
X155401485Y-97221318D01*
X155410461Y-97238935D01*
X155534525Y-97441388D01*
X155546147Y-97457384D01*
X155700354Y-97637937D01*
X155714334Y-97651917D01*
X155894887Y-97806124D01*
X155910883Y-97817746D01*
X156113336Y-97941810D01*
X156130953Y-97950786D01*
X156350322Y-98041651D01*
X156369126Y-98047761D01*
X156600009Y-98103191D01*
X156619537Y-98106284D01*
X156856248Y-98124914D01*
X156876020Y-98124914D01*
X157112731Y-98106284D01*
X157132259Y-98103191D01*
X157363142Y-98047761D01*
X157381946Y-98041651D01*
X157601315Y-97950786D01*
X157618932Y-97941810D01*
X157821385Y-97817746D01*
X157837381Y-97806124D01*
X158017934Y-97651917D01*
X158031914Y-97637937D01*
X158186121Y-97457384D01*
X158197743Y-97441388D01*
X158321807Y-97238935D01*
X158330783Y-97221318D01*
X158421648Y-97001949D01*
X158427758Y-96983145D01*
X158483188Y-96752262D01*
X158486281Y-96732734D01*
X158504911Y-96496023D01*
X158504911Y-96476251D01*
X158486281Y-96239540D01*
X158483188Y-96220012D01*
X158427758Y-95989129D01*
X158421648Y-95970325D01*
X158330783Y-95750956D01*
X158321807Y-95733339D01*
X158197743Y-95530886D01*
X158186121Y-95514890D01*
X158031914Y-95334337D01*
X158017934Y-95320357D01*
X157912577Y-95230373D01*
X158051271Y-95111917D01*
X158065251Y-95097937D01*
X158219458Y-94917384D01*
X158231080Y-94901388D01*
X158355144Y-94698935D01*
X158364120Y-94681318D01*
X158454985Y-94461949D01*
X158461095Y-94443145D01*
X158516525Y-94212262D01*
X158519618Y-94192734D01*
X158538248Y-93956023D01*
X158538248Y-93936251D01*
X158519618Y-93699540D01*
X158516525Y-93680012D01*
X158461095Y-93449129D01*
X158454985Y-93430325D01*
X158364120Y-93210956D01*
X158355144Y-93193339D01*
X158231080Y-92990886D01*
X158219458Y-92974890D01*
X158065251Y-92794337D01*
X158051271Y-92780357D01*
X157870718Y-92626150D01*
X157854722Y-92614528D01*
X157652269Y-92490464D01*
X157634652Y-92481488D01*
X157415283Y-92390623D01*
X157396479Y-92384513D01*
X157165596Y-92329083D01*
X157146068Y-92325990D01*
X156909357Y-92307360D01*
X156889585Y-92307360D01*
X156652874Y-92325990D01*
X156633346Y-92329083D01*
X156402463Y-92384513D01*
X156383659Y-92390623D01*
X156164290Y-92481488D01*
X156146673Y-92490464D01*
X155944220Y-92614528D01*
X155928224Y-92626150D01*
X155747671Y-92780357D01*
X155733691Y-92794337D01*
X155579484Y-92974890D01*
X155567862Y-92990886D01*
X155443798Y-93193339D01*
X155434822Y-93210956D01*
X155343957Y-93430325D01*
X155337847Y-93449129D01*
X155282417Y-93680012D01*
X155279324Y-93699540D01*
X155260694Y-93936251D01*
X155260694Y-93956023D01*
X155279324Y-94192734D01*
X155282417Y-94212262D01*
X155337847Y-94443145D01*
X155343957Y-94461949D01*
X155434822Y-94681318D01*
X155443798Y-94698935D01*
X155567862Y-94901388D01*
X155579484Y-94917384D01*
X155733691Y-95097937D01*
X155747671Y-95111917D01*
X155853028Y-95201901D01*
X155714334Y-95320357D01*
X155700354Y-95334337D01*
X155546147Y-95514890D01*
X155534525Y-95530886D01*
X155410461Y-95733339D01*
X155401485Y-95750956D01*
X155310620Y-95970325D01*
X155304510Y-95989129D01*
X155249080Y-96220012D01*
X155245987Y-96239540D01*
X155227357Y-96476251D01*
X155227357Y-96496023D01*
X143271357Y-96496023D01*
X143271078Y-96492472D01*
X143267985Y-96472944D01*
X143212555Y-96242061D01*
X143206445Y-96223257D01*
X143115580Y-96003888D01*
X143106604Y-95986271D01*
X142982540Y-95783818D01*
X142970918Y-95767822D01*
X142816711Y-95587269D01*
X142802731Y-95573289D01*
X142697374Y-95483305D01*
X142836068Y-95364849D01*
X142850048Y-95350869D01*
X143004255Y-95170316D01*
X143015877Y-95154320D01*
X143139941Y-94951867D01*
X143148917Y-94934250D01*
X143239782Y-94714881D01*
X143245892Y-94696077D01*
X143301322Y-94465194D01*
X143304415Y-94445666D01*
X143323045Y-94208955D01*
X143323045Y-94189183D01*
X143304415Y-93952472D01*
X143301322Y-93932944D01*
X143245892Y-93702061D01*
X143239782Y-93683257D01*
X143148917Y-93463888D01*
X143139941Y-93446271D01*
X143015877Y-93243818D01*
X143004255Y-93227822D01*
X142850048Y-93047269D01*
X142836068Y-93033289D01*
X142655515Y-92879082D01*
X142639519Y-92867460D01*
X142437066Y-92743396D01*
X142419449Y-92734420D01*
X142200080Y-92643555D01*
X142181276Y-92637445D01*
X141950393Y-92582015D01*
X141930865Y-92578922D01*
X141694154Y-92560292D01*
X141674382Y-92560292D01*
X141437671Y-92578922D01*
X141418143Y-92582015D01*
X141187260Y-92637445D01*
X141168456Y-92643555D01*
X140949087Y-92734420D01*
X140931470Y-92743396D01*
X140729017Y-92867460D01*
X140713021Y-92879082D01*
X140532468Y-93033289D01*
X140518488Y-93047269D01*
X140364281Y-93227822D01*
X140352659Y-93243818D01*
X140228595Y-93446271D01*
X140219619Y-93463888D01*
X140128754Y-93683257D01*
X140122644Y-93702061D01*
X140067214Y-93932944D01*
X140064121Y-93952472D01*
X140045491Y-94189183D01*
X140045491Y-94208955D01*
X140064121Y-94445666D01*
X140067214Y-94465194D01*
X140122644Y-94696077D01*
X140128754Y-94714881D01*
X140219619Y-94934250D01*
X140228595Y-94951867D01*
X140352659Y-95154320D01*
X140364281Y-95170316D01*
X140518488Y-95350869D01*
X140532468Y-95364849D01*
X140637825Y-95454833D01*
X140499131Y-95573289D01*
X140485151Y-95587269D01*
X140330944Y-95767822D01*
X140319322Y-95783818D01*
X140195258Y-95986271D01*
X140186282Y-96003888D01*
X140095417Y-96223257D01*
X140089307Y-96242061D01*
X140033877Y-96472944D01*
X140030784Y-96492472D01*
X140012154Y-96729183D01*
X140012154Y-96748955D01*
X135934000Y-96748955D01*
X135934000Y-91636023D01*
X137431223Y-91636023D01*
X137449853Y-91872734D01*
X137452946Y-91892262D01*
X137508376Y-92123145D01*
X137514486Y-92141949D01*
X137605351Y-92361318D01*
X137614327Y-92378935D01*
X137738391Y-92581388D01*
X137750013Y-92597384D01*
X137904220Y-92777937D01*
X137918200Y-92791917D01*
X138098753Y-92946124D01*
X138114749Y-92957746D01*
X138317202Y-93081810D01*
X138334819Y-93090786D01*
X138554188Y-93181651D01*
X138572992Y-93187761D01*
X138803875Y-93243191D01*
X138823403Y-93246284D01*
X139060114Y-93264914D01*
X139079886Y-93264914D01*
X139316597Y-93246284D01*
X139336125Y-93243191D01*
X139567008Y-93187761D01*
X139585812Y-93181651D01*
X139805181Y-93090786D01*
X139822798Y-93081810D01*
X140025251Y-92957746D01*
X140041247Y-92946124D01*
X140221800Y-92791917D01*
X140235780Y-92777937D01*
X140389987Y-92597384D01*
X140401609Y-92581388D01*
X140525673Y-92378935D01*
X140534649Y-92361318D01*
X140625514Y-92141949D01*
X140631624Y-92123145D01*
X140687054Y-91892262D01*
X140690147Y-91872734D01*
X140708777Y-91636023D01*
X140708777Y-91616251D01*
X140704347Y-91559958D01*
X157776225Y-91559958D01*
X157794855Y-91796669D01*
X157797948Y-91816197D01*
X157853378Y-92047080D01*
X157859488Y-92065884D01*
X157950353Y-92285253D01*
X157959329Y-92302870D01*
X158083393Y-92505323D01*
X158095015Y-92521319D01*
X158249222Y-92701872D01*
X158263202Y-92715852D01*
X158443755Y-92870059D01*
X158459751Y-92881681D01*
X158662204Y-93005745D01*
X158679821Y-93014721D01*
X158899190Y-93105586D01*
X158917994Y-93111696D01*
X159148877Y-93167126D01*
X159168405Y-93170219D01*
X159405116Y-93188849D01*
X159424888Y-93188849D01*
X159661599Y-93170219D01*
X159681127Y-93167126D01*
X159912010Y-93111696D01*
X159930814Y-93105586D01*
X160150183Y-93014721D01*
X160167800Y-93005745D01*
X160370253Y-92881681D01*
X160386249Y-92870059D01*
X160566802Y-92715852D01*
X160580782Y-92701872D01*
X160734989Y-92521319D01*
X160746611Y-92505323D01*
X160870675Y-92302870D01*
X160879651Y-92285253D01*
X160970516Y-92065884D01*
X160976626Y-92047080D01*
X161032056Y-91816197D01*
X161035149Y-91796669D01*
X161053779Y-91559958D01*
X161053779Y-91540186D01*
X161035149Y-91303475D01*
X161032056Y-91283947D01*
X160976626Y-91053064D01*
X160970516Y-91034260D01*
X160879651Y-90814891D01*
X160870675Y-90797274D01*
X160746611Y-90594821D01*
X160734989Y-90578825D01*
X160580782Y-90398272D01*
X160566802Y-90384292D01*
X160386249Y-90230085D01*
X160370253Y-90218463D01*
X160167800Y-90094399D01*
X160150183Y-90085423D01*
X159930814Y-89994558D01*
X159912010Y-89988448D01*
X159681127Y-89933018D01*
X159661599Y-89929925D01*
X159424888Y-89911295D01*
X159405116Y-89911295D01*
X159168405Y-89929925D01*
X159148877Y-89933018D01*
X158917994Y-89988448D01*
X158899190Y-89994558D01*
X158679821Y-90085423D01*
X158662204Y-90094399D01*
X158459751Y-90218463D01*
X158443755Y-90230085D01*
X158263202Y-90384292D01*
X158249222Y-90398272D01*
X158095015Y-90578825D01*
X158083393Y-90594821D01*
X157959329Y-90797274D01*
X157950353Y-90814891D01*
X157859488Y-91034260D01*
X157853378Y-91053064D01*
X157797948Y-91283947D01*
X157794855Y-91303475D01*
X157776225Y-91540186D01*
X157776225Y-91559958D01*
X140704347Y-91559958D01*
X140690147Y-91379540D01*
X140687054Y-91360012D01*
X140631624Y-91129129D01*
X140625514Y-91110325D01*
X140534649Y-90890956D01*
X140525673Y-90873339D01*
X140401609Y-90670886D01*
X140389987Y-90654890D01*
X140235780Y-90474337D01*
X140221800Y-90460357D01*
X140041247Y-90306150D01*
X140025251Y-90294528D01*
X139822798Y-90170464D01*
X139805181Y-90161488D01*
X139585812Y-90070623D01*
X139567008Y-90064513D01*
X139336125Y-90009083D01*
X139316597Y-90005990D01*
X139079886Y-89987360D01*
X139060114Y-89987360D01*
X138823403Y-90005990D01*
X138803875Y-90009083D01*
X138572992Y-90064513D01*
X138554188Y-90070623D01*
X138334819Y-90161488D01*
X138317202Y-90170464D01*
X138114749Y-90294528D01*
X138098753Y-90306150D01*
X137918200Y-90460357D01*
X137904220Y-90474337D01*
X137750013Y-90654890D01*
X137738391Y-90670886D01*
X137614327Y-90873339D01*
X137605351Y-90890956D01*
X137514486Y-91110325D01*
X137508376Y-91129129D01*
X137452946Y-91360012D01*
X137449853Y-91379540D01*
X137431223Y-91616251D01*
X137431223Y-91636023D01*
X135934000Y-91636023D01*
X135934000Y-87036661D01*
X145051223Y-87036661D01*
X145069853Y-87273372D01*
X145072946Y-87292900D01*
X145128376Y-87523783D01*
X145134486Y-87542587D01*
X145225351Y-87761956D01*
X145234327Y-87779573D01*
X145358391Y-87982026D01*
X145370013Y-87998022D01*
X145524220Y-88178575D01*
X145538200Y-88192555D01*
X145718753Y-88346762D01*
X145734749Y-88358384D01*
X145937202Y-88482448D01*
X145954819Y-88491424D01*
X146174188Y-88582289D01*
X146192992Y-88588399D01*
X146423875Y-88643829D01*
X146443403Y-88646922D01*
X146680114Y-88665552D01*
X146699886Y-88665552D01*
X146936597Y-88646922D01*
X146956125Y-88643829D01*
X147187008Y-88588399D01*
X147205812Y-88582289D01*
X147425181Y-88491424D01*
X147442798Y-88482448D01*
X147645251Y-88358384D01*
X147661247Y-88346762D01*
X147841800Y-88192555D01*
X147855780Y-88178575D01*
X148009987Y-87998022D01*
X148021609Y-87982026D01*
X148145673Y-87779573D01*
X148154649Y-87761956D01*
X148245514Y-87542587D01*
X148251624Y-87523783D01*
X148307054Y-87292900D01*
X148310147Y-87273372D01*
X148328777Y-87036661D01*
X148328777Y-87032638D01*
X150174602Y-87032638D01*
X150193232Y-87269349D01*
X150196325Y-87288877D01*
X150251755Y-87519760D01*
X150257865Y-87538564D01*
X150348730Y-87757933D01*
X150357706Y-87775550D01*
X150481770Y-87978003D01*
X150493392Y-87993999D01*
X150647599Y-88174552D01*
X150661579Y-88188532D01*
X150842132Y-88342739D01*
X150858128Y-88354361D01*
X151060581Y-88478425D01*
X151078198Y-88487401D01*
X151297567Y-88578266D01*
X151316371Y-88584376D01*
X151547254Y-88639806D01*
X151566782Y-88642899D01*
X151803493Y-88661529D01*
X151823265Y-88661529D01*
X152059976Y-88642899D01*
X152079504Y-88639806D01*
X152310387Y-88584376D01*
X152329191Y-88578266D01*
X152548560Y-88487401D01*
X152566177Y-88478425D01*
X152768630Y-88354361D01*
X152784626Y-88342739D01*
X152965179Y-88188532D01*
X152979159Y-88174552D01*
X153133366Y-87993999D01*
X153144988Y-87978003D01*
X153269052Y-87775550D01*
X153278028Y-87757933D01*
X153368893Y-87538564D01*
X153375003Y-87519760D01*
X153430433Y-87288877D01*
X153433526Y-87269349D01*
X153452156Y-87032638D01*
X153452156Y-87012866D01*
X153433526Y-86776155D01*
X153430433Y-86756627D01*
X153375003Y-86525744D01*
X153368893Y-86506940D01*
X153278028Y-86287571D01*
X153269052Y-86269954D01*
X153144988Y-86067501D01*
X153133366Y-86051505D01*
X152979159Y-85870952D01*
X152965179Y-85856972D01*
X152784626Y-85702765D01*
X152768630Y-85691143D01*
X152566177Y-85567079D01*
X152548560Y-85558103D01*
X152329191Y-85467238D01*
X152310387Y-85461128D01*
X152079504Y-85405698D01*
X152059976Y-85402605D01*
X151823265Y-85383975D01*
X151803493Y-85383975D01*
X151566782Y-85402605D01*
X151547254Y-85405698D01*
X151316371Y-85461128D01*
X151297567Y-85467238D01*
X151078198Y-85558103D01*
X151060581Y-85567079D01*
X150858128Y-85691143D01*
X150842132Y-85702765D01*
X150661579Y-85856972D01*
X150647599Y-85870952D01*
X150493392Y-86051505D01*
X150481770Y-86067501D01*
X150357706Y-86269954D01*
X150348730Y-86287571D01*
X150257865Y-86506940D01*
X150251755Y-86525744D01*
X150196325Y-86756627D01*
X150193232Y-86776155D01*
X150174602Y-87012866D01*
X150174602Y-87032638D01*
X148328777Y-87032638D01*
X148328777Y-87016889D01*
X148310147Y-86780178D01*
X148307054Y-86760650D01*
X148251624Y-86529767D01*
X148245514Y-86510963D01*
X148154649Y-86291594D01*
X148145673Y-86273977D01*
X148021609Y-86071524D01*
X148009987Y-86055528D01*
X147855780Y-85874975D01*
X147841800Y-85860995D01*
X147661247Y-85706788D01*
X147645251Y-85695166D01*
X147442798Y-85571102D01*
X147425181Y-85562126D01*
X147205812Y-85471261D01*
X147187008Y-85465151D01*
X146956125Y-85409721D01*
X146936597Y-85406628D01*
X146699886Y-85387998D01*
X146680114Y-85387998D01*
X146443403Y-85406628D01*
X146423875Y-85409721D01*
X146192992Y-85465151D01*
X146174188Y-85471261D01*
X145954819Y-85562126D01*
X145937202Y-85571102D01*
X145734749Y-85695166D01*
X145718753Y-85706788D01*
X145538200Y-85860995D01*
X145524220Y-85874975D01*
X145370013Y-86055528D01*
X145358391Y-86071524D01*
X145234327Y-86273977D01*
X145225351Y-86291594D01*
X145134486Y-86510963D01*
X145128376Y-86529767D01*
X145072946Y-86760650D01*
X145069853Y-86780178D01*
X145051223Y-87016889D01*
X145051223Y-87036661D01*
X135934000Y-87036661D01*
X135934000Y-83390983D01*
X140841666Y-83390983D01*
X140852277Y-83661047D01*
X140854230Y-83678737D01*
X140902787Y-83944611D01*
X140907213Y-83961850D01*
X140992748Y-84218230D01*
X140999559Y-84234673D01*
X141120365Y-84476443D01*
X141129425Y-84491763D01*
X141283091Y-84714100D01*
X141294220Y-84727990D01*
X141477681Y-84926456D01*
X141490654Y-84938639D01*
X141700248Y-85109276D01*
X141714810Y-85119510D01*
X141946357Y-85258913D01*
X141962215Y-85266994D01*
X142211094Y-85372380D01*
X142227932Y-85378145D01*
X142489176Y-85447413D01*
X142506659Y-85450748D01*
X142775058Y-85482515D01*
X142792837Y-85483353D01*
X143063033Y-85476985D01*
X143080751Y-85475310D01*
X143347356Y-85430935D01*
X143364663Y-85426780D01*
X143622354Y-85345283D01*
X143638902Y-85338731D01*
X143882540Y-85221738D01*
X143898000Y-85212920D01*
X144122723Y-85062765D01*
X144136786Y-85051857D01*
X144338110Y-84871536D01*
X144350496Y-84858755D01*
X144524404Y-84651867D01*
X144534865Y-84637467D01*
X144677887Y-84408138D01*
X144686215Y-84392410D01*
X144795498Y-84145218D01*
X144801527Y-84128471D01*
X144874889Y-83868346D01*
X144878499Y-83850918D01*
X144914478Y-83583052D01*
X144915537Y-83570237D01*
X144919313Y-83450095D01*
X144919060Y-83437238D01*
X144915785Y-83390983D01*
X153541666Y-83390983D01*
X153552277Y-83661047D01*
X153554230Y-83678737D01*
X153602787Y-83944611D01*
X153607213Y-83961850D01*
X153692748Y-84218230D01*
X153699559Y-84234673D01*
X153820365Y-84476443D01*
X153829425Y-84491763D01*
X153983091Y-84714100D01*
X153994220Y-84727990D01*
X154177681Y-84926456D01*
X154190654Y-84938639D01*
X154400248Y-85109276D01*
X154414810Y-85119510D01*
X154646357Y-85258913D01*
X154662215Y-85266994D01*
X154911094Y-85372380D01*
X154927932Y-85378145D01*
X155189176Y-85447413D01*
X155206659Y-85450748D01*
X155475058Y-85482515D01*
X155492837Y-85483353D01*
X155763033Y-85476985D01*
X155780751Y-85475310D01*
X156047356Y-85430935D01*
X156064663Y-85426780D01*
X156322354Y-85345283D01*
X156338902Y-85338731D01*
X156582540Y-85221738D01*
X156598000Y-85212920D01*
X156822723Y-85062765D01*
X156836786Y-85051857D01*
X157038110Y-84871536D01*
X157050496Y-84858755D01*
X157224404Y-84651867D01*
X157234865Y-84637467D01*
X157377887Y-84408138D01*
X157386215Y-84392410D01*
X157495498Y-84145218D01*
X157501527Y-84128471D01*
X157574889Y-83868346D01*
X157578499Y-83850918D01*
X157614478Y-83583052D01*
X157615537Y-83570237D01*
X157619313Y-83450095D01*
X157619060Y-83437238D01*
X157599972Y-83167641D01*
X157597465Y-83150020D01*
X157540580Y-82885802D01*
X157535614Y-82868711D01*
X157442068Y-82615145D01*
X157434744Y-82598924D01*
X157306404Y-82361067D01*
X157296867Y-82346040D01*
X157136293Y-82128640D01*
X157124734Y-82115106D01*
X156935130Y-81922500D01*
X156921780Y-81910730D01*
X156706929Y-81746761D01*
X156692053Y-81736989D01*
X156456241Y-81604929D01*
X156440137Y-81597351D01*
X156188071Y-81499834D01*
X156171060Y-81494601D01*
X155907769Y-81433573D01*
X155890190Y-81430789D01*
X155620926Y-81407468D01*
X155603130Y-81407188D01*
X155333267Y-81422040D01*
X155315610Y-81424271D01*
X155050531Y-81476998D01*
X155033364Y-81481694D01*
X154778359Y-81571245D01*
X154762024Y-81578314D01*
X154522181Y-81702903D01*
X154507006Y-81712202D01*
X154287111Y-81869341D01*
X154273397Y-81880686D01*
X154077836Y-82067242D01*
X154065858Y-82080406D01*
X153898535Y-82292655D01*
X153888531Y-82307375D01*
X153752782Y-82541082D01*
X153744952Y-82557066D01*
X153643488Y-82807570D01*
X153637988Y-82824496D01*
X153572832Y-83086796D01*
X153569772Y-83104330D01*
X153542225Y-83373194D01*
X153541666Y-83390983D01*
X144915785Y-83390983D01*
X144899972Y-83167641D01*
X144897465Y-83150020D01*
X144840580Y-82885802D01*
X144835614Y-82868711D01*
X144742068Y-82615145D01*
X144734744Y-82598924D01*
X144606404Y-82361067D01*
X144596867Y-82346040D01*
X144436293Y-82128640D01*
X144424734Y-82115106D01*
X144235130Y-81922500D01*
X144221780Y-81910730D01*
X144006929Y-81746761D01*
X143992053Y-81736989D01*
X143756241Y-81604929D01*
X143740137Y-81597351D01*
X143488071Y-81499834D01*
X143471060Y-81494601D01*
X143207769Y-81433573D01*
X143190190Y-81430789D01*
X142920926Y-81407468D01*
X142903130Y-81407188D01*
X142633267Y-81422040D01*
X142615610Y-81424271D01*
X142350531Y-81476998D01*
X142333364Y-81481694D01*
X142078359Y-81571245D01*
X142062024Y-81578314D01*
X141822181Y-81702903D01*
X141807006Y-81712202D01*
X141587111Y-81869341D01*
X141573397Y-81880686D01*
X141377836Y-82067242D01*
X141365858Y-82080406D01*
X141198535Y-82292655D01*
X141188531Y-82307375D01*
X141052782Y-82541082D01*
X141044952Y-82557066D01*
X140943488Y-82807570D01*
X140937988Y-82824496D01*
X140872832Y-83086796D01*
X140869772Y-83104330D01*
X140842225Y-83373194D01*
X140841666Y-83390983D01*
X135934000Y-83390983D01*
X135934000Y-78936023D01*
X137431223Y-78936023D01*
X137449853Y-79172734D01*
X137452946Y-79192262D01*
X137508376Y-79423145D01*
X137514486Y-79441949D01*
X137605351Y-79661318D01*
X137614327Y-79678935D01*
X137738391Y-79881388D01*
X137750013Y-79897384D01*
X137904220Y-80077937D01*
X137918200Y-80091917D01*
X138098753Y-80246124D01*
X138114749Y-80257746D01*
X138317202Y-80381810D01*
X138334819Y-80390786D01*
X138554188Y-80481651D01*
X138572992Y-80487761D01*
X138803875Y-80543191D01*
X138823403Y-80546284D01*
X139060114Y-80564914D01*
X139079886Y-80564914D01*
X139316597Y-80546284D01*
X139336125Y-80543191D01*
X139567008Y-80487761D01*
X139585812Y-80481651D01*
X139805181Y-80390786D01*
X139822798Y-80381810D01*
X140025251Y-80257746D01*
X140041247Y-80246124D01*
X140221800Y-80091917D01*
X140235780Y-80077937D01*
X140389987Y-79897384D01*
X140401609Y-79881388D01*
X140525673Y-79678935D01*
X140534649Y-79661318D01*
X140561695Y-79596023D01*
X145051223Y-79596023D01*
X145069853Y-79832734D01*
X145072946Y-79852262D01*
X145128376Y-80083145D01*
X145134486Y-80101949D01*
X145225351Y-80321318D01*
X145234327Y-80338935D01*
X145358391Y-80541388D01*
X145370013Y-80557384D01*
X145524220Y-80737937D01*
X145538200Y-80751917D01*
X145718753Y-80906124D01*
X145734749Y-80917746D01*
X145937202Y-81041810D01*
X145954819Y-81050786D01*
X146174188Y-81141651D01*
X146192992Y-81147761D01*
X146423875Y-81203191D01*
X146443403Y-81206284D01*
X146680114Y-81224914D01*
X146699886Y-81224914D01*
X146936597Y-81206284D01*
X146956125Y-81203191D01*
X147187008Y-81147761D01*
X147205812Y-81141651D01*
X147425181Y-81050786D01*
X147442798Y-81041810D01*
X147645251Y-80917746D01*
X147661247Y-80906124D01*
X147794335Y-80792456D01*
X150772987Y-80792456D01*
X150778052Y-80863271D01*
X150820599Y-80920107D01*
X150830273Y-80926671D01*
X151017430Y-81041362D01*
X151035047Y-81050339D01*
X151254343Y-81141174D01*
X151273147Y-81147284D01*
X151503953Y-81202696D01*
X151523481Y-81205789D01*
X151760114Y-81224412D01*
X151779886Y-81224412D01*
X152016519Y-81205789D01*
X152036047Y-81202696D01*
X152266853Y-81147284D01*
X152285657Y-81141174D01*
X152504953Y-81050339D01*
X152522570Y-81041362D01*
X152709727Y-80926671D01*
X152757358Y-80874024D01*
X152768965Y-80803982D01*
X152740862Y-80738785D01*
X152732987Y-80730144D01*
X151859095Y-79856252D01*
X151796783Y-79822226D01*
X151725968Y-79827291D01*
X151680905Y-79856252D01*
X150807013Y-80730144D01*
X150772987Y-80792456D01*
X147794335Y-80792456D01*
X147841800Y-80751917D01*
X147855780Y-80737937D01*
X148009987Y-80557384D01*
X148021609Y-80541388D01*
X148145673Y-80338935D01*
X148154649Y-80321318D01*
X148245514Y-80101949D01*
X148251624Y-80083145D01*
X148307054Y-79852262D01*
X148310147Y-79832734D01*
X148328777Y-79596023D01*
X150131725Y-79596023D01*
X150150348Y-79832656D01*
X150153441Y-79852184D01*
X150208853Y-80082990D01*
X150214963Y-80101794D01*
X150305798Y-80321090D01*
X150314775Y-80338707D01*
X150429466Y-80525864D01*
X150482113Y-80573495D01*
X150552155Y-80585102D01*
X150617352Y-80556999D01*
X150625993Y-80549124D01*
X151499885Y-79675232D01*
X151533911Y-79612920D01*
X151530080Y-79559354D01*
X152006089Y-79559354D01*
X152011154Y-79630169D01*
X152040115Y-79675232D01*
X152914007Y-80549124D01*
X152976319Y-80583150D01*
X153047134Y-80578085D01*
X153103970Y-80535538D01*
X153110534Y-80525864D01*
X153225225Y-80338707D01*
X153234202Y-80321090D01*
X153325037Y-80101794D01*
X153331147Y-80082990D01*
X153386559Y-79852184D01*
X153389652Y-79832656D01*
X153408275Y-79596023D01*
X153408275Y-79576251D01*
X153389652Y-79339618D01*
X153386559Y-79320090D01*
X153331147Y-79089284D01*
X153325037Y-79070480D01*
X153237836Y-78859958D01*
X157776225Y-78859958D01*
X157794855Y-79096669D01*
X157797948Y-79116197D01*
X157853378Y-79347080D01*
X157859488Y-79365884D01*
X157950353Y-79585253D01*
X157959329Y-79602870D01*
X158083393Y-79805323D01*
X158095015Y-79821319D01*
X158249222Y-80001872D01*
X158263202Y-80015852D01*
X158443755Y-80170059D01*
X158459751Y-80181681D01*
X158662204Y-80305745D01*
X158679821Y-80314721D01*
X158899190Y-80405586D01*
X158917994Y-80411696D01*
X159148877Y-80467126D01*
X159168405Y-80470219D01*
X159405116Y-80488849D01*
X159424888Y-80488849D01*
X159661599Y-80470219D01*
X159681127Y-80467126D01*
X159912010Y-80411696D01*
X159930814Y-80405586D01*
X160150183Y-80314721D01*
X160167800Y-80305745D01*
X160370253Y-80181681D01*
X160386249Y-80170059D01*
X160566802Y-80015852D01*
X160580782Y-80001872D01*
X160734989Y-79821319D01*
X160746611Y-79805323D01*
X160870675Y-79602870D01*
X160879651Y-79585253D01*
X160970516Y-79365884D01*
X160976626Y-79347080D01*
X161032056Y-79116197D01*
X161035149Y-79096669D01*
X161053779Y-78859958D01*
X161053779Y-78840186D01*
X161035149Y-78603475D01*
X161032056Y-78583947D01*
X160976626Y-78353064D01*
X160970516Y-78334260D01*
X160879651Y-78114891D01*
X160870675Y-78097274D01*
X160746611Y-77894821D01*
X160734989Y-77878825D01*
X160580782Y-77698272D01*
X160566802Y-77684292D01*
X160386249Y-77530085D01*
X160370253Y-77518463D01*
X160167800Y-77394399D01*
X160150183Y-77385423D01*
X159930814Y-77294558D01*
X159912010Y-77288448D01*
X159681127Y-77233018D01*
X159661599Y-77229925D01*
X159424888Y-77211295D01*
X159405116Y-77211295D01*
X159168405Y-77229925D01*
X159148877Y-77233018D01*
X158917994Y-77288448D01*
X158899190Y-77294558D01*
X158679821Y-77385423D01*
X158662204Y-77394399D01*
X158459751Y-77518463D01*
X158443755Y-77530085D01*
X158263202Y-77684292D01*
X158249222Y-77698272D01*
X158095015Y-77878825D01*
X158083393Y-77894821D01*
X157959329Y-78097274D01*
X157950353Y-78114891D01*
X157859488Y-78334260D01*
X157853378Y-78353064D01*
X157797948Y-78583947D01*
X157794855Y-78603475D01*
X157776225Y-78840186D01*
X157776225Y-78859958D01*
X153237836Y-78859958D01*
X153234202Y-78851184D01*
X153225225Y-78833567D01*
X153110534Y-78646410D01*
X153057887Y-78598779D01*
X152987845Y-78587172D01*
X152922648Y-78615275D01*
X152914007Y-78623150D01*
X152040115Y-79497042D01*
X152006089Y-79559354D01*
X151530080Y-79559354D01*
X151528846Y-79542105D01*
X151499885Y-79497042D01*
X150625993Y-78623150D01*
X150563681Y-78589124D01*
X150492866Y-78594189D01*
X150436030Y-78636736D01*
X150429466Y-78646410D01*
X150314775Y-78833567D01*
X150305798Y-78851184D01*
X150214963Y-79070480D01*
X150208853Y-79089284D01*
X150153441Y-79320090D01*
X150150348Y-79339618D01*
X150131725Y-79576251D01*
X150131725Y-79596023D01*
X148328777Y-79596023D01*
X148328777Y-79576251D01*
X148310147Y-79339540D01*
X148307054Y-79320012D01*
X148251624Y-79089129D01*
X148245514Y-79070325D01*
X148154649Y-78850956D01*
X148145673Y-78833339D01*
X148021609Y-78630886D01*
X148009987Y-78614890D01*
X147855780Y-78434337D01*
X147841800Y-78420357D01*
X147780840Y-78368292D01*
X150771035Y-78368292D01*
X150799138Y-78433489D01*
X150807013Y-78442130D01*
X151680905Y-79316022D01*
X151743217Y-79350048D01*
X151814032Y-79344983D01*
X151859095Y-79316022D01*
X152732987Y-78442130D01*
X152767013Y-78379818D01*
X152761948Y-78309003D01*
X152719401Y-78252167D01*
X152709727Y-78245603D01*
X152522570Y-78130912D01*
X152504953Y-78121935D01*
X152285657Y-78031100D01*
X152266853Y-78024990D01*
X152036047Y-77969578D01*
X152016519Y-77966485D01*
X151779886Y-77947862D01*
X151760114Y-77947862D01*
X151523481Y-77966485D01*
X151503953Y-77969578D01*
X151273147Y-78024990D01*
X151254343Y-78031100D01*
X151035047Y-78121935D01*
X151017430Y-78130912D01*
X150830273Y-78245603D01*
X150782642Y-78298250D01*
X150771035Y-78368292D01*
X147780840Y-78368292D01*
X147661247Y-78266150D01*
X147645251Y-78254528D01*
X147442798Y-78130464D01*
X147425181Y-78121488D01*
X147205812Y-78030623D01*
X147187008Y-78024513D01*
X146956125Y-77969083D01*
X146936597Y-77965990D01*
X146699886Y-77947360D01*
X146680114Y-77947360D01*
X146443403Y-77965990D01*
X146423875Y-77969083D01*
X146192992Y-78024513D01*
X146174188Y-78030623D01*
X145954819Y-78121488D01*
X145937202Y-78130464D01*
X145734749Y-78254528D01*
X145718753Y-78266150D01*
X145538200Y-78420357D01*
X145524220Y-78434337D01*
X145370013Y-78614890D01*
X145358391Y-78630886D01*
X145234327Y-78833339D01*
X145225351Y-78850956D01*
X145134486Y-79070325D01*
X145128376Y-79089129D01*
X145072946Y-79320012D01*
X145069853Y-79339540D01*
X145051223Y-79576251D01*
X145051223Y-79596023D01*
X140561695Y-79596023D01*
X140625514Y-79441949D01*
X140631624Y-79423145D01*
X140687054Y-79192262D01*
X140690147Y-79172734D01*
X140708777Y-78936023D01*
X140708777Y-78916251D01*
X140690147Y-78679540D01*
X140687054Y-78660012D01*
X140631624Y-78429129D01*
X140625514Y-78410325D01*
X140534649Y-78190956D01*
X140525673Y-78173339D01*
X140401609Y-77970886D01*
X140389987Y-77954890D01*
X140235780Y-77774337D01*
X140221800Y-77760357D01*
X140041247Y-77606150D01*
X140025251Y-77594528D01*
X139822798Y-77470464D01*
X139805181Y-77461488D01*
X139585812Y-77370623D01*
X139567008Y-77364513D01*
X139336125Y-77309083D01*
X139316597Y-77305990D01*
X139079886Y-77287360D01*
X139060114Y-77287360D01*
X138823403Y-77305990D01*
X138803875Y-77309083D01*
X138572992Y-77364513D01*
X138554188Y-77370623D01*
X138334819Y-77461488D01*
X138317202Y-77470464D01*
X138114749Y-77594528D01*
X138098753Y-77606150D01*
X137918200Y-77760357D01*
X137904220Y-77774337D01*
X137750013Y-77954890D01*
X137738391Y-77970886D01*
X137614327Y-78173339D01*
X137605351Y-78190956D01*
X137514486Y-78410325D01*
X137508376Y-78429129D01*
X137452946Y-78660012D01*
X137449853Y-78679540D01*
X137431223Y-78916251D01*
X137431223Y-78936023D01*
X135934000Y-78936023D01*
X135934000Y-77150137D01*
X162486000Y-77150137D01*
X162486000Y-116802137D01*
G37*
%TD.AperFunction*%
%TD*%
M02*
